<svg width="32" height="32" viewBox="0 0 32 32" fill="none" xmlns="http://www.w3.org/2000/svg">
<path d="M3.54549 9.95531C3.77481 10.4874 4.11281 11.4493 4.11131 12.4956C4.11112 12.6213 4.19206 12.7353 4.31493 12.7616C4.60081 12.8228 5.07731 13.0271 5.07731 13.7078C5.07731 13.7078 5.07731 14.3179 4.52206 14.5609C4.41681 14.6069 4.35018 14.7123 4.36162 14.8266C4.47443 15.9544 4.99649 21.5049 4.81212 25.8779C4.81212 25.8779 5.35287 26.2384 5.87299 26.5631C6.03637 26.6651 6.25193 26.5846 6.30649 26.3999C6.40843 26.0553 6.56049 25.521 6.66856 25.0527C6.66856 25.0527 7.02181 26.0874 7.05118 27.1525C7.05537 27.3038 7.17693 27.4244 7.32818 27.4316C8.06768 27.4667 10.1314 27.4189 11.5602 25.9663C11.5602 25.9663 14.4335 23.6679 17.2107 24.6698C17.2107 24.6698 20.8298 18.0435 17.7126 7.38906C17.7126 7.38906 16.6606 7.37475 15.6171 7.62856C15.4654 7.6655 15.3507 7.78919 15.3294 7.94388C15.2719 8.36175 15.1397 9.21313 14.9553 9.73994C14.9204 9.83988 14.7768 9.8335 14.7484 9.73156C14.6666 9.4375 14.5364 8.95975 14.417 8.47581C14.3654 8.26706 14.1557 8.14056 13.9482 8.19725C13.4114 8.344 12.3187 8.73681 10.7351 9.75913C10.7351 9.75913 8.46737 11.1972 6.02168 10.2154C5.83587 10.1409 5.65243 10.0647 5.46237 10.0018C5.07949 9.87506 4.41906 9.67288 3.83706 9.57631C3.62493 9.54106 3.46031 9.75788 3.54549 9.95531Z" fill="url(#paint0_linear_10_3387)"/>
<path d="M17.2105 24.6697C17.2105 24.6697 20.8296 18.0435 17.7125 7.38904C17.7125 7.38904 17.1546 7.38197 16.4491 7.47566C16.8023 9.48216 18.0666 17.9236 15.6631 24.4174C16.1694 24.4107 16.6916 24.4825 17.2105 24.6697Z" fill="#F79A80"/>
<path d="M7.66968 13.4528C7.50005 13.4803 7.37537 13.6268 7.37537 13.7987V15.4538C7.37537 15.6474 7.53224 15.8042 7.72574 15.8042H7.85018C8.05405 15.8042 8.21487 15.6309 8.19955 15.4276L8.07512 13.7724C8.05974 13.5677 7.87237 13.42 7.66968 13.4528Z" fill="#E2526F"/>
<path d="M9.18933 13.857V15.0926C9.18933 15.2712 9.38958 15.3766 9.53677 15.2755L10.1202 14.875C10.2873 14.7602 10.3547 14.5464 10.2835 14.3566C10.256 14.283 10.2093 14.2182 10.1482 14.1688L9.55083 13.6847C9.40583 13.5671 9.18933 13.6704 9.18933 13.857Z" fill="#E2526F"/>
<path d="M10.6404 13.3787V13.4653C10.6404 13.6199 10.756 13.75 10.9095 13.7683C11.091 13.7899 11.2506 13.6481 11.2506 13.4653V13.3787C11.2506 13.2374 11.1536 13.1145 11.0161 13.0819C10.8244 13.0363 10.6404 13.1816 10.6404 13.3787Z" fill="#E2526F"/>
<path d="M12.936 12.5337C12.8322 12.5804 12.7692 12.6875 12.7788 12.8008L12.8788 13.9815C12.9106 14.3562 13.3288 14.5676 13.6463 14.3662C13.725 14.3162 13.8023 14.264 13.8733 14.211C14.1006 14.0414 14.1398 13.7163 13.9627 13.4948L13.2553 12.6107C13.179 12.5151 13.0475 12.4834 12.936 12.5337Z" fill="#E2526F"/>
<path d="M14.1189 12.3662L14.5004 12.9004C14.5926 13.0293 14.792 12.9993 14.8421 12.849L14.94 12.5555C14.9621 12.4892 14.9468 12.4163 14.9002 12.3644L14.5922 12.0222C14.5304 11.9535 14.4288 11.938 14.3493 11.9851L14.1778 12.0867C14.0801 12.1446 14.0529 12.2738 14.1189 12.3662Z" fill="#E2526F"/>
<path d="M17.041 11.0551L16.2978 11.1724C16.1487 11.1959 16.0481 11.3362 16.0752 11.4847C16.1268 11.7666 16.2169 12.2288 16.3272 12.6703C16.39 12.9209 16.7355 12.9475 16.8358 12.7094L17.3765 11.4245C17.451 11.2475 17.321 11.0518 17.1289 11.0518H17.0828C17.0689 11.0518 17.0548 11.0529 17.041 11.0551Z" fill="#E2526F"/>
<path d="M7.76043 20.4989L7.73568 20.7151C7.71556 20.8908 7.81143 21.0592 7.97281 21.1315C8.12643 21.2004 8.30656 21.1672 8.42562 21.0482L8.61068 20.8631C8.72968 20.7441 8.76287 20.5639 8.694 20.4103L8.68 20.3792C8.61462 20.2333 8.46962 20.1394 8.30981 20.1394H8.1635C7.95731 20.1394 7.78393 20.2941 7.76043 20.4989Z" fill="#E2526F"/>
<path d="M7.96623 22.5514L8.05179 22.0595C8.06979 21.9563 8.15941 21.8809 8.26429 21.8809H9.34141C9.57648 21.8809 9.64198 22.2035 9.42541 22.2952L8.26273 22.787C8.10548 22.8535 7.93698 22.7197 7.96623 22.5514Z" fill="#E2526F"/>
<path d="M11.2734 19.4378L11.4853 21.3408C11.4994 21.4678 11.6198 21.5547 11.7449 21.5278C11.9328 21.4875 12.1911 21.4212 12.3521 21.3356C12.4273 21.2956 12.4701 21.2143 12.4638 21.1294L12.389 20.1263C12.3844 20.0655 12.4059 20.0055 12.4481 19.9613L12.7031 19.6941C12.7414 19.654 12.7628 19.6007 12.7628 19.5452V19.2486C12.7628 19.1163 12.6447 19.0152 12.5139 19.0356L11.4547 19.2008C11.3405 19.2186 11.2606 19.323 11.2734 19.4378Z" fill="#E2526F"/>
<path d="M13.5225 19.0249L13.5677 19.3016C13.5956 19.4725 13.8034 19.5425 13.9291 19.4232C13.9719 19.3825 13.9962 19.3259 13.9962 19.2668V18.9821C13.9962 18.8478 13.8748 18.7462 13.7426 18.7698L13.6974 18.7778C13.5814 18.7986 13.5035 18.9086 13.5225 19.0249Z" fill="#E2526F"/>
<path d="M14.8945 18.6434L14.4206 20.4987C14.3826 20.6474 14.5077 20.7871 14.6597 20.7656L15.0248 20.714C15.1111 20.7019 15.1808 20.6397 15.2029 20.5555C15.2603 20.3372 15.4281 19.9258 15.8879 19.8311C15.9737 19.8134 16.0393 19.7432 16.0533 19.6567L16.105 19.3412C16.1178 19.2631 16.0867 19.1842 16.024 19.1358L15.2353 18.5262C15.1126 18.4312 14.9329 18.4931 14.8945 18.6434Z" fill="#E2526F"/>
<path d="M18.1388 17.7717L17.4825 18.0852C17.3888 18.1299 17.3403 18.235 17.367 18.3353L17.7561 19.7954C17.814 20.0124 18.1236 20.0085 18.1745 19.7898C18.3049 19.229 18.449 18.4896 18.4481 17.9628C18.4478 17.8053 18.2809 17.7038 18.1388 17.7717Z" fill="#C7304D"/>
<path d="M17.5187 12.403L17.3549 12.8505C17.3277 12.9248 17.3916 13.0005 17.4695 12.9862L17.8043 12.9242C17.8693 12.9122 17.906 12.8426 17.8792 12.7823L17.7081 12.3967C17.6708 12.3127 17.5503 12.3167 17.5187 12.403Z" fill="#C7304D"/>
<path d="M17.2106 6.68367C17.2106 6.68367 18.036 5.5926 19.9418 4.69748C21.342 4.03985 22.9032 3.76998 24.4421 3.9281C25.1793 4.00385 25.9032 4.17667 26.2687 4.54217C26.2687 4.54217 26.0195 6.57735 25.1473 9.48479C25.1473 9.48479 19.1177 10.0711 17.2106 6.68367Z" fill="#A34F46"/>
<path d="M21.1768 6.70386L21.4588 9.27611C23.3813 9.6553 25.1472 9.4848 25.1472 9.4848C26.0194 6.57736 26.2686 4.54224 26.2686 4.54224C26.2686 4.54224 25.0019 6.88905 21.1768 6.70386Z" fill="#F79A80"/>
<path d="M28.4775 7.90829C28.4775 7.90829 27.4075 6.80692 25.1639 6.70386L24.6393 9.52361C24.6393 9.52361 27.6992 9.45667 28.4775 7.90829Z" fill="#A34F46"/>
<path d="M24.485 6.09274C24.3062 7.00062 23.8951 8.32943 22.8989 9.47243C24.1801 9.5773 25.1472 9.48455 25.1472 9.48455C26.0195 6.57712 26.2687 4.54199 26.2687 4.54199C26.2687 4.54199 25.7776 5.45087 24.485 6.09274Z" fill="#CE735F"/>
<path d="M17.2105 6.68359C17.2105 6.68359 21.0682 10.3575 28.4775 7.90822C28.4775 7.90822 27.1304 21.4407 24.8035 26.2781C24.8035 26.2781 23.4556 27.7297 22.0955 28.1047C21.9075 28.1565 21.7175 28.0255 21.6865 27.8331L21.4357 26.2781C21.4357 26.2781 21.1329 27.1362 20.6647 27.9357C20.5823 28.0763 20.4122 28.1389 20.2595 28.0817C19.5936 27.8325 17.7734 27.1197 16.4225 26.2965C16.146 26.1281 16.046 25.7775 16.1944 25.4898C17.0945 23.7439 19.7977 17.2904 17.2105 6.68359Z" fill="url(#paint1_linear_10_3387)"/>
<path d="M23.8781 8.74433C24.3775 9.20308 25.2029 10.226 25.0968 11.9232C25.0968 11.9232 24.9959 18.1593 23.8734 24.3204C23.6947 25.3013 23.297 26.2377 22.6587 27.0036C22.5582 27.1243 22.4494 27.2445 22.332 27.362C22.2325 27.4618 22.0658 27.441 21.9987 27.3171L21.4357 26.2781L21.6865 27.833C21.7175 28.0255 21.9075 28.1565 22.0955 28.1047C23.4556 27.7297 24.8035 26.2781 24.8035 26.2781C27.1304 21.4408 28.4775 7.9082 28.4775 7.9082C26.7488 8.47977 25.2162 8.71508 23.8781 8.74433Z" fill="#F79A80"/>
<path d="M17.1289 11.0518H17.0829C17.0688 11.0518 17.0548 11.0529 17.0409 11.0551L16.915 11.0749C16.9498 11.4635 16.9812 11.8734 17.008 12.2999L17.3765 11.4245C17.451 11.2475 17.321 11.0518 17.1289 11.0518Z" fill="#9C304D"/>
<defs>
<linearGradient id="paint0_linear_10_3387" x1="4.08346" y1="11.7561" x2="22.9617" y2="24.5818" gradientUnits="userSpaceOnUse">
<stop offset="0.0103" stop-color="#FFDDCD"/>
<stop offset="1" stop-color="#F79A80"/>
</linearGradient>
<linearGradient id="paint1_linear_10_3387" x1="17.889" y1="12.7542" x2="35.182" y2="29.2786" gradientUnits="userSpaceOnUse">
<stop offset="0.0103" stop-color="#FFDDCD"/>
<stop offset="1" stop-color="#F79A80"/>
</linearGradient>
</defs>
</svg>
