<svg width="32" height="32" viewBox="0 0 32 32" fill="none" xmlns="http://www.w3.org/2000/svg">
<g clip-path="url(#clip0_4_4777)">
<path d="M9.37931 14.0689H6.62069C2.97931 14.0689 0 11.0896 0 7.44824H9.37931V14.0689Z" fill="#565656"/>
<path d="M21.5173 23.9999H10.4828C13.4069 21.3517 13.4069 16.7172 10.4828 14.0688H21.5173C18.5932 16.7172 18.5932 21.3517 21.5173 23.9999Z" fill="#565656"/>
<path d="M23.7242 26.2069H8.27592C7.66905 26.2069 7.17249 25.7103 7.17249 25.1034C7.17249 24.4966 7.66899 24 8.27592 24H23.7242C24.331 24 24.8276 24.4966 24.8276 25.1034C24.8276 25.7103 24.3311 26.2069 23.7242 26.2069Z" fill="#7F7C79"/>
<path d="M32.0001 5.79321H9.37939V9.10359H31.2828C31.7242 8.11046 32.0001 6.95184 32.0001 5.79321Z" fill="#7F7C79"/>
<path d="M19.9173 16.276C20.3035 15.4484 20.8 14.7312 21.5173 14.0691H10.4828C11.2 14.7312 11.7517 15.4484 12.0828 16.276H19.9173Z" fill="#7F7C79"/>
<path d="M9.37927 9.10352V14.069H23.7241C27.1448 14.069 30.0137 12.0276 31.2827 9.10352H9.37927Z" fill="#3D3737"/>
</g>
<defs>
<clipPath id="clip0_4_4777">
<rect width="32" height="32" fill="white"/>
</clipPath>
</defs>
</svg>
