<svg width="32" height="32" viewBox="0 0 32 32" fill="none" xmlns="http://www.w3.org/2000/svg">
<path d="M31.3067 27.3253L31.2854 27.3467C30.4232 28.2089 29.0258 28.2089 28.1645 27.3467L6.9645 6.14668C6.71617 5.8983 6.57666 5.56146 6.57666 5.21023C6.57666 4.859 6.71617 4.52216 6.9645 4.27379L8.23472 3.00356C8.4831 2.75523 8.81994 2.61572 9.17117 2.61572C9.52239 2.61572 9.85924 2.75523 10.1076 3.00356L31.3076 24.2036C32.1689 25.0658 32.1689 26.4631 31.3067 27.3253Z" fill="#F4900C"/>
<path d="M15.7911 6.17412L12.6479 3.03101C12.3979 2.78105 12.0588 2.64062 11.7053 2.64062C11.3517 2.64063 11.0127 2.78105 10.7626 3.03101L7.62039 6.17412C5.72884 8.03367 4.19817 8.85412 2.23817 8.89056C2.08617 10.2888 2.82928 13.5066 3.98661 14.8035C5.49061 16.4888 8.02661 17.0212 10.4071 16.9848C10.2879 14.8843 10.7955 13.0541 12.6479 11.2017L15.7902 8.05856C15.9142 7.93501 16.0126 7.7882 16.0798 7.62655C16.147 7.4649 16.1816 7.29158 16.1817 7.11652C16.1817 6.94147 16.1473 6.76812 16.0803 6.6064C16.0132 6.44469 15.915 6.29779 15.7911 6.17412Z" fill="#66757F"/>
<path d="M2.23821 8.89075C1.57066 8.90319 0.8551 8.82675 0.0568781 8.66675C-0.571566 13.0667 6.34221 19.9805 10.7422 19.3521C10.5707 18.5192 10.4507 17.7352 10.408 16.985C6.48088 15.7325 3.20177 12.4765 2.23821 8.89075Z" fill="#CCD6DD"/>
</svg>
