<svg width="32" height="32" viewBox="0 0 32 32" fill="none" xmlns="http://www.w3.org/2000/svg">
<path d="M1.05001 21.1094C0.60001 17.7077 2.70001 12.255 3.70001 4.90131C3.90001 3.60065 10.7 2.19995 13.9 2.19995C14.7 2.19995 15.4 5.95183 15.2 7.25248C15.05 8.20296 13.7 7.95284 13.7 7.95284C13.25 9.20346 11.9 8.70321 11.9 8.70321C11.5 9.75374 10.3 9.25349 10.3 9.25349C9.80001 10.254 8.70001 9.75374 8.70001 9.75374C7.70001 14.1059 9.55001 13.7057 10.9 20.259C10.9 20.259 11.3 20.209 12.35 18.0579C16.65 9.40356 31.75 12.1549 30.85 21.4596C30.65 23.5106 32.85 26.9123 24.7 29.4636C18.25 31.4646 10.35 27.6127 10.35 27.6127C7.65001 28.4631 2.40001 28.4131 2.25001 26.4121C2.10001 24.0609 1.30001 22.8603 1.05001 21.1094Z" fill="#FFE1BD"/>
<path d="M30.9 21.4499C31.1 19.2499 30.4501 17.4499 29.25 16.1499C29.9501 17.3499 30.3 18.7999 30.15 20.4999C29.95 22.5499 32.15 25.9499 24 28.4999C17.55 30.4999 9.65005 26.6499 9.65005 26.6499C7.55005 27.2999 3.85005 27.3999 2.30005 26.4499C2.50005 28.3999 7.70005 28.4499 10.4 27.5999C10.4 27.5999 18.3 31.4499 24.75 29.4499C32.85 26.8999 30.7 23.4999 30.9 21.4499Z" fill="#E6B796"/>
<path d="M8.15005 9.69995C6.90005 14.8 8.95005 14.6 10.3001 21.05L11.0001 20.3C10.0001 13.8 8.30005 14.6 8.70005 9.79995C8.40005 9.79995 8.15005 9.69995 8.15005 9.69995Z" fill="#E6B796"/>
<path d="M14.6001 24.25C18.7501 25.8 25.0001 24.2 28.5501 22.55C27.0001 26.3 18.7501 28.3 14.6001 24.25Z" fill="#E6B796"/>
<path d="M12.55 3.60003C12.25 3.05003 11.65 3.10003 11.25 3.25003C11.3 2.65003 12.75 2.20003 12.55 3.60003Z" fill="#E6B796"/>
<path d="M15.6001 5.7499C15.4501 4.6499 15.1001 3.5499 14.4501 2.6499C14.8001 3.5999 15.0001 4.5999 15.0001 5.5999C15.0001 6.0499 15.1001 7.6499 14.3001 7.4499C13.8001 7.2999 13.8001 6.8999 13.6501 6.4499C13.4501 5.7499 13.0501 4.9999 13.1001 4.2999C12.9001 4.9999 13.1501 5.8499 13.2001 6.5499C13.2501 6.9499 13.5501 8.0999 13.0001 8.2499C12.7001 8.3499 12.3501 8.1499 12.1001 7.9999C12.0001 7.9499 11.9501 7.5499 11.9001 7.3999C11.7001 6.6999 11.3001 5.8999 11.3501 5.1499C11.1501 5.7999 11.3501 6.5999 11.4001 7.2999C11.4501 7.6999 11.6501 8.6499 11.1501 8.8499C10.5501 9.1499 10.5001 8.4499 10.4001 8.0999C10.2001 7.4499 9.90007 6.6999 9.90007 5.9999C9.70007 6.8499 9.95007 7.8499 9.95007 8.6999C9.95007 9.1499 9.00007 9.4999 8.65007 9.2499C8.10007 8.8499 8.00007 7.8499 7.90007 7.1999C8.05007 7.3999 8.30007 7.6999 8.60007 7.6499C8.35007 7.3499 8.20007 6.8999 8.05007 6.5499C7.90007 6.2499 7.55007 5.5999 7.15007 5.5999C7.20007 5.6999 7.55007 6.5499 7.50007 6.5999C7.35007 6.8499 7.20007 7.1499 7.00007 7.3999C6.85007 7.5999 6.40007 8.2999 6.05007 8.0999C5.65007 7.8499 5.55007 7.2499 5.45007 6.8499C5.50007 7.3499 5.45007 8.0999 5.95007 8.3999C6.40007 8.6999 6.95007 8.2499 7.25007 7.9499C7.35007 8.9499 7.80007 10.2999 9.05007 10.1999C9.30007 10.1999 9.60007 10.0999 9.85007 9.9999C10.0501 9.8999 10.3001 9.6499 10.5001 9.7499C11.0501 9.8999 11.6001 9.7999 12.0001 9.3999C12.2001 9.1999 12.1501 9.0999 12.4001 9.1499C12.7001 9.1999 13.0001 9.2499 13.2501 9.1499C13.5001 9.0999 13.7001 8.9499 13.8501 8.7499C13.9501 8.6499 14.0001 8.5499 14.0501 8.3999C14.1501 8.1999 14.2501 8.2999 14.4501 8.2999C15.7501 8.2999 15.7001 6.6499 15.6001 5.7499Z" fill="#E6B796"/>
<path d="M14.35 2.89995C14.05 2.34995 13.45 2.39995 13.05 2.54995C13.1 1.99995 14.6 1.54995 14.35 2.89995Z" fill="#E6B796"/>
<path d="M11.1 4.35003C10.8 3.80003 10.2 3.85003 9.80005 4.00003C9.85005 3.40003 11.3 2.95003 11.1 4.35003Z" fill="#E6B796"/>
<path d="M9.4001 5.14983C9.1001 4.59983 8.5001 4.64983 8.1001 4.79983C8.1501 4.19983 9.6501 3.74983 9.4001 5.14983Z" fill="#E6B796"/>
</svg>
