<svg width="32" height="32" viewBox="0 0 32 32" fill="none" xmlns="http://www.w3.org/2000/svg">
<path d="M11.3441 24.857C10.5286 23.5633 9.96157 21.9255 9.96157 21.9255C9.96157 21.9255 9.39445 23.5633 8.57907 24.857C8.40551 25.1323 8.30945 25.4488 8.30945 25.7743V26.0648C8.30945 26.9627 9.02257 27.7098 9.92039 27.7242C9.93401 27.7245 9.94776 27.7245 9.96164 27.7245C9.97551 27.7245 9.9892 27.7245 10.0029 27.7242C10.9006 27.7098 11.6138 26.9627 11.6138 26.0648V25.7743C11.6137 25.4488 11.5176 25.1323 11.3441 24.857Z" fill="#D6C6E1"/>
<path d="M9.96157 21.9255C9.96145 21.9259 9.39439 23.5634 8.57907 24.8569C8.40551 25.1322 8.30945 25.4487 8.30945 25.7742V26.0648C8.30945 26.9627 9.02264 27.7097 9.92039 27.7242C9.93401 27.7244 9.94776 27.7245 9.96164 27.7245V21.9255H9.96157Z" fill="white"/>
<path d="M17.66 2.89453H17.1746V29.1053H17.66V2.89453Z" fill="#FFD3CD"/>
<path d="M17.1746 5.01122L17.66 5.44222V2.89453H17.1746V5.01122Z" fill="#DE8280"/>
<path d="M17.1746 26.9069V29.1055H17.66V26.5591L17.1746 26.9069Z" fill="#DE8280"/>
<path d="M23.3738 11.301C23.3738 11.301 22.5587 5.7603 17.4503 2.21392C17.2819 2.09705 17.2459 1.8528 17.3919 1.70867C17.3955 1.70505 17.3992 1.70142 17.4031 1.69786C17.5877 1.52324 17.6341 1.24767 17.501 1.03117L17.468 0.977298C17.3135 0.725986 16.9697 0.675048 16.749 0.870736L16.7457 0.873736C16.1949 1.36311 16.1864 2.22336 16.704 2.74774C16.8967 2.94299 17.2227 3.1783 17.5727 3.43005C17.5727 3.43005 22.7115 6.86405 21.4148 13.133C21.3625 13.3856 21.4642 13.6429 21.6695 13.7992C22.062 14.0981 22.6415 14.6997 22.6544 15.6526C22.6575 15.8844 22.6575 16.116 22.6544 16.3477C22.6415 17.3007 22.062 17.9023 21.6695 18.2012C21.4642 18.3575 21.3625 18.6147 21.4148 18.8674C22.7115 25.1363 17.5727 28.5704 17.5727 28.5704C17.2226 28.822 16.8967 29.0574 16.704 29.2526C16.1864 29.777 16.1949 30.6373 16.7457 31.1266C16.7509 31.1312 16.756 31.1358 16.7613 31.1403C16.98 31.3293 17.3192 31.2651 17.4705 31.0189L17.501 30.9692C17.6341 30.7527 17.5878 30.4769 17.403 30.3024C17.3992 30.2988 17.3955 30.2952 17.3919 30.2916C17.2459 30.1475 17.2818 29.9033 17.4503 29.7864C22.5587 26.24 23.3738 20.6992 23.3738 20.6992C23.6378 19.1152 23.6906 16.0001 23.6906 16.0001C23.6906 16.0001 23.6378 12.885 23.3738 11.301Z" fill="url(#paint0_radial_14_1225)"/>
<path d="M9.9616 28.1765C9.72172 28.1765 9.52722 27.9821 9.52722 27.7422V8.86304H10.396V27.7422C10.396 27.9821 10.2015 28.1765 9.9616 28.1765Z" fill="#B7486F"/>
<path d="M10.396 8.86304H9.52722V9.80335H10.396V8.86304Z" fill="#7F153E"/>
<path d="M10.9709 8.64192C10.5404 7.9926 10.2458 7.10729 10.0906 6.55923C10.0454 6.39985 9.87764 6.39985 9.83251 6.55923C9.67732 7.10735 9.3827 7.99267 8.9522 8.64192C8.80132 8.86948 8.9227 9.2306 9.14895 9.2306H9.96151H10.7741C11.0004 9.2306 11.1218 8.86954 10.9709 8.64192Z" fill="white"/>
<path d="M10.0905 6.5592C10.068 6.47951 10.0147 6.43963 9.96155 6.4397V9.23057H10.7741C11.0004 9.23057 11.1218 8.86951 10.9709 8.64195C10.5404 7.99263 10.2458 7.10732 10.0905 6.5592Z" fill="#D6C6E1"/>
<path d="M17.4504 29.7862C18.1072 29.3302 18.6894 28.8404 19.2114 28.3344C19.1122 27.9441 19.0668 27.5701 19.0526 27.2373C18.2512 28.116 17.5728 28.5701 17.5728 28.5701C17.2227 28.8219 16.8969 29.0572 16.7042 29.2524C16.1865 29.7768 16.195 30.6371 16.7458 31.1264C16.751 31.1311 16.7562 31.1356 16.7614 31.1401C16.9801 31.3291 17.3194 31.2649 17.4707 31.0187L17.5012 30.969C17.6342 30.7525 17.5878 30.4769 17.4032 30.3022C17.3994 30.2987 17.3957 30.2951 17.392 30.2914C17.246 30.1474 17.2819 29.9031 17.4504 29.7862Z" fill="#998337"/>
<path d="M17.4503 2.21375C17.2819 2.09688 17.2459 1.85263 17.3919 1.7085C17.3955 1.70488 17.3992 1.70132 17.4031 1.69769C17.5877 1.52307 17.6341 1.2475 17.501 1.031L17.4705 0.981316C17.3193 0.735066 16.98 0.670816 16.7613 0.859816C16.7561 0.864316 16.7509 0.868879 16.7457 0.873504C16.1949 1.36288 16.1864 2.22313 16.704 2.7475C16.8967 2.94275 17.2227 3.17807 17.5727 3.42982C17.5727 3.42982 18.2615 3.89119 19.0712 4.78325C19.1012 4.4545 19.1631 4.09632 19.2764 3.72794C18.7383 3.19975 18.1342 2.68857 17.4503 2.21375Z" fill="#998337"/>
<path d="M18.4574 29.0272L17.8553 28.2748C17.7696 28.1677 17.6133 28.1504 17.5062 28.2361C17.4113 28.312 17.3916 28.4416 17.4468 28.545C17.358 28.4685 17.2271 28.4593 17.1324 28.5353H17.1323C17.0253 28.621 17.008 28.7773 17.0936 28.8844L17.6958 29.6367C17.7815 29.7439 17.9378 29.7612 18.0448 29.6755C18.1397 29.5996 18.1594 29.47 18.1043 29.3666C18.1931 29.4431 18.3239 29.4522 18.4187 29.3763C18.5258 29.2906 18.5431 29.1343 18.4574 29.0272Z" fill="#FFD3CD"/>
<path d="M18.4235 2.62762C18.3244 2.54825 18.1853 2.56081 18.0969 2.64744C18.1621 2.54212 18.1438 2.40381 18.0447 2.3245C17.9376 2.23875 17.7813 2.25612 17.6956 2.36325L17.0935 3.11562C17.0078 3.22275 17.0251 3.379 17.1322 3.46469H17.1323C17.2314 3.54406 17.3704 3.5315 17.4588 3.44481C17.3936 3.55012 17.4119 3.68844 17.511 3.76781C17.6181 3.8535 17.7745 3.83619 17.8601 3.72906L18.4622 2.97669C18.548 2.86956 18.5306 2.71331 18.4235 2.62762Z" fill="#FFD3CD"/>
<path d="M21.6696 13.7991C22.0621 14.098 22.6416 14.6996 22.6544 15.6525C22.6576 15.8843 22.6576 16.1159 22.6544 16.3476C22.6416 17.3005 22.0621 17.9022 21.6696 18.2011C23.4469 17.7311 23.3419 16.0006 23.3419 16.0006C23.3419 14.2433 21.6696 13.7991 21.6696 13.7991Z" fill="#BAA047"/>
<defs>
<radialGradient id="paint0_radial_14_1225" cx="0" cy="0" r="1" gradientUnits="userSpaceOnUse" gradientTransform="translate(20.0073 16.0006) scale(11.0931)">
<stop stop-color="#F0DD7A"/>
<stop offset="1" stop-color="#BAA047"/>
</radialGradient>
</defs>
</svg>
