<svg width="32" height="32" viewBox="0 0 32 32" fill="none" xmlns="http://www.w3.org/2000/svg">
<g clip-path="url(#clip0_4_4604)">
<path d="M16.1022 29.7102H15.7478C15.2203 29.7102 14.7705 29.3288 14.6836 28.8089L13.7554 23.2378H18.2499L17.1609 28.8375C17.0627 29.3439 16.6184 29.7102 16.1022 29.7102Z" fill="#263238"/>
<path d="M8.53714 30.9227L8.20382 30.8013C7.70813 30.6211 7.41581 30.1087 7.51237 29.5904L8.54527 24.0376L12.769 25.5748L9.83054 30.4641C9.5646 30.907 9.02203 31.099 8.53714 30.9227Z" fill="#37474F"/>
<path d="M23.4685 30.9227L23.8018 30.8013C24.2975 30.6211 24.5898 30.1087 24.4932 29.5904L23.4603 24.0376L19.2366 25.5748L22.1751 30.4641C22.4409 30.907 22.983 31.099 23.4685 30.9227Z" fill="#37474F"/>
<path d="M27.0228 8.87573C20.0903 8.87573 12.1347 8.87573 4.97789 8.87573C4.47469 9.58987 4.034 10.3509 3.6753 11.1578C2.46066 13.8902 2.51028 17.0455 3.77293 19.7564C4.38513 21.0703 5.20277 22.2687 6.18441 23.3113C7.42874 24.6328 9.05871 25.533 10.8321 25.9192C12.4976 26.2822 14.2264 26.4747 16.0008 26.4747C17.7753 26.4747 19.504 26.2822 21.1695 25.9192C22.943 25.533 24.5729 24.6328 25.8173 23.3113C26.7989 22.2692 27.6166 21.0703 28.2287 19.7564C29.4914 17.0461 29.541 13.8902 28.3264 11.1578C27.9667 10.3509 27.526 9.58981 27.0228 8.87573Z" fill="#455A64"/>
<path d="M3.09216 4.57845C3.60673 6.06817 4.24318 7.5045 4.97726 8.87559C12.2031 10.7537 19.7969 10.7537 27.0222 8.87559C27.759 7.50019 28.3965 6.05954 28.9121 4.56445L3.09216 4.57845Z" fill="#37474F"/>
<path d="M3.52372 4.96807C11.7016 7.05054 20.2985 7.05054 28.4769 4.96807C29.101 4.80894 29.101 3.91092 28.4769 3.7518C20.2991 1.66932 11.7021 1.66932 3.52372 3.7518C2.89965 3.91086 2.89965 4.80894 3.52372 4.96807Z" fill="#90A4AE"/>
<path d="M16.0003 5.45116C12.5225 5.45116 9.05328 5.08441 5.66016 4.36002C9.05328 3.63513 12.523 3.26831 16.0003 3.26831C19.4782 3.26831 22.9474 3.63507 26.3405 4.35945C22.9473 5.0849 19.4777 5.45116 16.0003 5.45116Z" fill="#76FF03"/>
<path d="M2.93736 14.6927C2.7443 14.6927 2.54848 14.641 2.3721 14.532C0.886703 13.6156 0 12.0282 0 10.2845C0 8.05373 1.81441 6.23926 4.04526 6.23926C4.64071 6.23926 5.39797 8.27804 4.97784 8.87568C4.88827 9.00243 4.79877 8.39673 4.04526 8.39673C3.75888 8.39673 3.487 8.46092 3.24374 8.57524C2.60242 8.8778 2.15748 9.52994 2.15748 10.2845C2.15748 10.6303 2.21898 10.9657 2.33492 11.2775C2.55067 11.8579 3.26368 11.9047 3.51181 11.5477C3.85107 11.0579 3.29931 14.6927 2.93736 14.6927Z" fill="#546E7A"/>
<path d="M29.0632 14.6928C29.2562 14.6928 29.4521 14.641 29.6284 14.532C31.1133 13.6156 32 12.0277 32 10.2845C32 8.05373 30.1856 6.23926 27.9548 6.23926C27.3588 6.23926 26.6021 8.27804 27.0222 8.87568C27.1118 9.00243 27.2013 8.39673 27.9548 8.39673C28.2412 8.39673 28.513 8.46092 28.7563 8.57524C29.3976 8.8773 29.8426 9.52994 29.8426 10.2845C29.8426 10.6303 29.7811 10.9657 29.6651 11.2775C29.4494 11.8579 28.7364 11.9047 28.4882 11.5477C28.1495 11.058 28.7012 14.6928 29.0632 14.6928Z" fill="#546E7A"/>
<path d="M14.8287 3.63829C14.8287 4.47431 14.1507 4.35999 13.3147 4.35999C12.4787 4.35999 11.8007 4.47487 11.8007 3.63829C11.8007 2.80172 12.4787 2.12427 13.3147 2.12427C14.1508 2.12433 14.8287 2.80228 14.8287 3.63829Z" fill="#B2FF59"/>
<path d="M20.5061 3.26837C20.5061 4.51433 19.4959 4.71927 18.2499 4.71927C17.004 4.71927 15.9938 4.51433 15.9938 3.26837C15.9938 2.02241 17.004 1.01221 18.2499 1.01221C19.4959 1.01277 20.5061 2.02247 20.5061 3.26837Z" fill="#B2FF59"/>
</g>
<defs>
<clipPath id="clip0_4_4604">
<rect width="32" height="32" fill="white"/>
</clipPath>
</defs>
</svg>
