<svg width="32" height="32" viewBox="0 0 32 32" fill="none" xmlns="http://www.w3.org/2000/svg">
<path d="M10.3334 12C10.3334 11.4477 9.88565 11 9.33337 11C8.78109 11 8.33337 11.4477 8.33337 12V24C8.33337 24.5523 8.78109 25 9.33337 25C9.88565 25 10.3334 24.5523 10.3334 24V12Z" fill="#D3D3D3"/>
<path d="M16 7C16.5523 7 17 7.44772 17 8V24C17 24.5523 16.5523 25 16 25C15.4477 25 15 24.5523 15 24V8C15 7.44772 15.4477 7 16 7Z" fill="#D3D3D3"/>
<path d="M23.6666 17.3333C23.6666 16.781 23.2189 16.3333 22.6666 16.3333C22.1144 16.3333 21.6666 16.781 21.6666 17.3333V23.9999C21.6666 24.5522 22.1144 24.9999 22.6666 24.9999C23.2189 24.9999 23.6666 24.5522 23.6666 23.9999V17.3333Z" fill="#D3D3D3"/>
<path fill-rule="evenodd" clip-rule="evenodd" d="M15.9234 1.66675C12.8456 1.66673 10.4335 1.66672 8.55157 1.91975C6.62525 2.17873 5.10523 2.71919 3.91215 3.91227C2.71907 5.10535 2.17861 6.62537 1.91963 8.55169C1.6666 10.4337 1.66661 12.8457 1.66663 15.9235V16.0766C1.66661 19.1545 1.6666 21.5665 1.91963 23.4485C2.17861 25.3747 2.71907 26.8949 3.91215 28.0879C5.10523 29.281 6.62525 29.8214 8.55157 30.0805C10.4335 30.3334 12.8456 30.3334 15.9234 30.3334H16.0765C19.1544 30.3334 21.5664 30.3334 23.4484 30.0805C25.3746 29.8214 26.8948 29.281 28.0878 28.0879C29.2809 26.8949 29.8213 25.3747 30.0804 23.4485C30.3333 21.5665 30.3333 19.1545 30.3333 16.0766V15.9235C30.3333 12.8457 30.3333 10.4337 30.0804 8.55169C29.8213 6.62537 29.2809 5.10535 28.0878 3.91227C26.8948 2.71919 25.3746 2.17873 23.4484 1.91975C21.5664 1.66672 19.1544 1.66673 16.0765 1.66675H15.9234ZM5.32636 5.32648C6.08589 4.56694 7.11352 4.13108 8.81807 3.90191C10.5514 3.66887 12.829 3.66675 16 3.66675C19.1709 3.66675 21.4485 3.66887 23.1818 3.90191C24.8864 4.13108 25.914 4.56694 26.6736 5.32648C27.4332 6.08601 27.869 7.11364 28.0981 8.81819C28.3312 10.5515 28.3333 12.8291 28.3333 16.0001C28.3333 19.171 28.3312 21.4486 28.0981 23.1819C27.869 24.8865 27.4332 25.9141 26.6736 26.6737C25.914 27.4333 24.8864 27.8691 23.1818 28.0982C21.4485 28.3313 19.1709 28.3334 16 28.3334C12.829 28.3334 10.5514 28.3313 8.81807 28.0982C7.11352 27.8691 6.08589 27.4333 5.32636 26.6737C4.56681 25.9141 4.13096 24.8865 3.90179 23.1819C3.66875 21.4486 3.66663 19.171 3.66663 16.0001C3.66663 12.8291 3.66875 10.5515 3.90179 8.81819C4.13096 7.11364 4.56681 6.08601 5.32636 5.32648Z" fill="#D3D3D3"/>
</svg>
