<svg width="32" height="32" viewBox="0 0 32 32" fill="none" xmlns="http://www.w3.org/2000/svg">
<g clip-path="url(#clip0_4_4799)">
<path d="M30.3135 13.4714C30.3135 16.9149 28.3183 20.0384 25.2647 21.5141V29.8127C25.2647 31.0191 24.2828 32.0001 23.0765 32.0001H8.79953C7.59321 32.0001 6.6114 31.0191 6.6114 29.8127V21.5947C5.28865 20.9313 4.15221 19.9519 3.2934 18.7248C2.24171 17.2209 1.6864 15.4534 1.6864 13.6128C1.6864 11.5859 2.3839 9.60056 3.6509 8.0235C4.76328 6.64013 6.27384 5.61419 7.95571 5.08881C8.62246 3.68712 9.64003 2.4875 10.927 1.59294C12.4035 0.566188 14.1353 0.0166875 15.9385 0.000875C15.965 0 15.9925 0 16.0191 0C19.4243 0 22.4987 1.91963 24.006 4.93581C25.6937 5.45544 27.2117 6.47631 28.3307 7.86056C29.6094 9.44181 30.3135 11.4346 30.3135 13.4714Z" fill="#CCE6FF"/>
<path d="M30.3135 13.4714C30.3135 16.9149 28.3183 20.0384 25.2647 21.5141V29.8127C25.2647 31.0191 24.2829 32.0001 23.0765 32.0001H15.9385V0.0008125C15.965 0 15.9925 0 16.0191 0C19.4244 0 22.4987 1.91963 24.006 4.93581C25.6937 5.45544 27.2117 6.47631 28.3307 7.86056C29.6094 9.44181 30.3135 11.4346 30.3135 13.4714Z" fill="#BDDEFF"/>
<path d="M25.2651 25.7117H6.61182V28.2057H25.2651V25.7117Z" fill="#A6673A"/>
<path d="M25.2652 25.7117H15.9381V28.2057H25.2652V25.7117Z" fill="#99522E"/>
</g>
<defs>
<clipPath id="clip0_4_4799">
<rect width="32" height="32" fill="white"/>
</clipPath>
</defs>
</svg>
