<svg width="32" height="32" viewBox="0 0 32 32" fill="none" xmlns="http://www.w3.org/2000/svg">
<path d="M29.6348 13.9004L31.9961 10.3311C31.9961 10.3311 32.295 1.458 26.6631 0.999023H16.0019H15.9971H5.33592C-0.295877 1.458 0.00293938 10.331 0.00293938 10.331L2.37502 13.8661L0 20.3291L2.66602 30.9971L29.333 31.001L32 20.332L29.6348 13.9004Z" fill="#A85D5D"/>
<g opacity="0.2">
<path d="M0.0371413 10.3808C0.199308 7.90526 1.04891 2.6816 5.33597 2.33106H15.9971H16.002H26.6631C30.9503 2.68166 31.8008 7.90726 31.962 10.3818L31.9962 10.3311C31.9962 10.3311 32.2951 1.45801 26.6632 0.999023H16.002H15.9971H5.33597C-0.295822 1.45801 0.00299443 10.331 0.00299443 10.331L0.0371413 10.3808Z" fill="white"/>
</g>
<path d="M32 20.332L0 20.3291L2.37502 13.8662L29.6348 13.9004L32 20.332Z" fill="#723F3F"/>
<path d="M29.6348 13.9005L2.37501 13.8663L0.00292969 10.3311H31.9961L29.6348 13.9005Z" fill="#8C4C4C"/>
<path d="M16.666 25.6611C16.666 26.0293 16.3672 26.3281 16 26.3281C15.6318 26.3281 15.333 26.0293 15.333 25.6611C15.333 25.2929 15.6318 24.9951 16 24.9951C16.3672 24.9951 16.666 25.2929 16.666 25.6611Z" fill="black"/>
<path d="M10.6475 18.4521C9.88085 18.4521 9.14156 18.2831 8.61817 17.9892C8.21872 17.7646 7.98145 17.4862 7.98145 17.2441C7.98145 16.7519 9.02055 16.0361 10.6475 16.0361C11.414 16.0361 12.1543 16.2051 12.6777 16.5C13.0761 16.7236 13.3144 17.0019 13.3144 17.2441C13.3144 17.7372 12.2753 18.4521 10.6475 18.4521Z" fill="#FFCE54"/>
<path d="M15.9805 18.4521C15.2139 18.4521 14.4746 18.2831 13.9502 17.9892C13.5517 17.7646 13.3145 17.4862 13.3145 17.2441C13.3145 16.7519 14.3526 16.0361 15.9805 16.0361C16.747 16.0361 17.4863 16.2051 18.0107 16.5C18.4092 16.7236 18.6464 17.0019 18.6464 17.2441C18.6464 17.7372 17.6085 18.4521 15.9805 18.4521Z" fill="#FFCE54"/>
<path d="M21.3135 18.4521C20.5469 18.4521 19.8067 18.2831 19.2833 17.9892C18.8848 17.7646 18.6465 17.4862 18.6465 17.2441C18.6465 16.7519 19.6856 16.0361 21.3135 16.0361C22.0801 16.0361 22.8193 16.2051 23.3428 16.5C23.7412 16.7236 23.9795 17.0019 23.9795 17.2441C23.9795 17.7372 22.9405 18.4521 21.3135 18.4521Z" fill="#FFCE54"/>
<path d="M13.3145 16.5772C12.5479 16.5772 11.8076 16.4092 11.2842 16.1143C10.8857 15.8897 10.6475 15.6124 10.6475 15.3702C10.6475 14.877 11.6865 14.1611 13.3145 14.1611C14.0801 14.1611 14.8203 14.3311 15.3438 14.625C15.7422 14.8486 15.9805 15.1279 15.9805 15.3702C15.9805 15.8623 14.9414 16.5772 13.3145 16.5772Z" fill="#FFCE54"/>
<path d="M18.6464 16.5772C17.8808 16.5772 17.1406 16.4092 16.6172 16.1143C16.2187 15.8897 15.9805 15.6124 15.9805 15.3702C15.9805 14.877 17.0196 14.1611 18.6464 14.1611C19.413 14.1611 20.1533 14.3311 20.6767 14.625C21.0752 14.8486 21.3134 15.1279 21.3134 15.3702C21.3134 15.8623 20.2745 16.5772 18.6464 16.5772Z" fill="#FFCE54"/>
<path d="M15.9805 14.703C15.2139 14.703 14.4746 14.534 13.9502 14.2392C13.5517 14.0156 13.3145 13.7372 13.3145 13.4951C13.3145 13.0029 14.3526 12.2871 15.9805 12.2871C16.747 12.2871 17.4863 12.456 18.0107 12.751C18.4092 12.9746 18.6464 13.2529 18.6464 13.4951C18.6464 13.9872 17.6085 14.703 15.9805 14.703Z" fill="#FFCE54"/>
<path d="M5.73049 20.332H10.2656C10.5254 20.1367 10.667 19.9248 10.667 19.7432C10.667 19.5009 10.4287 19.2236 10.0302 18.999C9.50678 18.7041 8.76656 18.5361 8 18.5361C6.37302 18.5361 5.33398 19.251 5.33398 19.7432C5.33398 19.9326 5.47851 20.1425 5.73049 20.332Z" fill="#FFCE54"/>
<path d="M11.0635 20.332H15.5987C15.8584 20.1367 15.999 19.9248 15.999 19.7432C15.999 19.5009 15.7618 19.2236 15.3633 18.999C14.8399 18.7041 14.0996 18.5361 13.333 18.5361C11.7051 18.5361 10.667 19.251 10.667 19.7432C10.6671 19.9326 10.8116 20.1425 11.0635 20.332Z" fill="#FFCE54"/>
<path d="M18.9407 20.332H12.9199V26.5079H18.9407V20.332Z" fill="#CCD1D9"/>
<path d="M16.3955 20.332H20.9307C21.1905 20.1367 21.3321 19.9248 21.3321 19.7432C21.3321 19.5009 21.0947 19.2236 20.6963 18.999C20.1719 18.7041 19.4327 18.5361 18.666 18.5361C17.0382 18.5361 15.999 19.251 15.999 19.7432C15.999 19.9326 16.1446 20.1425 16.3955 20.332Z" fill="#FFCE54"/>
<path d="M21.7285 20.332H26.2637C26.5235 20.1367 26.6651 19.9248 26.6651 19.7432C26.6651 19.5009 26.4268 19.2236 26.0284 18.999C25.5049 18.7041 24.7647 18.5361 23.9991 18.5361C22.3712 18.5361 21.332 19.251 21.332 19.7432C21.332 19.9326 21.4765 20.1425 21.7285 20.332Z" fill="#FFCE54"/>
<path d="M27.163 20.3319C27.2714 20.1474 27.332 19.9491 27.332 19.7431C27.332 18.7938 26.0751 18.0088 24.4453 17.8857C24.5751 17.6864 24.6465 17.4697 24.6465 17.2441C24.6465 16.3368 23.5 15.581 21.9785 15.4072C21.9785 15.3945 21.9795 15.3818 21.9795 15.3701C21.9795 14.4619 20.834 13.706 19.3116 13.5322C19.3126 13.5205 19.3135 13.5078 19.3135 13.4951C19.3135 12.4599 17.8213 11.6201 15.9805 11.6201C14.1396 11.6201 12.6475 12.46 12.6475 13.4951C12.6475 13.5078 12.6485 13.5205 12.6494 13.5322C11.1269 13.706 9.9814 14.4619 9.9814 15.3701C9.9814 15.3818 9.9824 15.3945 9.9824 15.4072C8.46092 15.581 7.31444 16.3368 7.31444 17.2441C7.31444 17.4706 7.38573 17.6884 7.51757 17.8896C5.90529 18.0205 4.66699 18.8007 4.66699 19.7431C4.66699 19.9491 4.72753 20.1474 4.83591 20.3319H27.163ZM14.8212 20.0126C14.4082 20.1884 13.8798 20.285 13.333 20.285C12.7861 20.285 12.2578 20.1884 11.8457 20.0126C11.6171 19.9149 11.4745 19.8154 11.3955 19.7431C11.4746 19.6728 11.6171 19.5721 11.8457 19.4755C12.2578 19.2997 12.7861 19.202 13.333 19.202C13.8799 19.202 14.4082 19.2997 14.8212 19.4755C15.0488 19.5721 15.1914 19.6728 15.2715 19.7431C15.1914 19.8154 15.0488 19.915 14.8212 20.0126ZM14.4922 17.5126C14.2646 17.416 14.1221 17.3154 14.0419 17.2441C14.0605 17.2275 14.083 17.2099 14.1084 17.1904C14.6914 17.1103 15.2138 16.9443 15.6308 16.7158C15.7461 16.7079 15.8632 16.7031 15.9804 16.7031C16.0976 16.7031 16.2148 16.7079 16.329 16.7158C16.747 16.9443 17.2695 17.1103 17.8524 17.1904C17.8778 17.2099 17.9003 17.2275 17.9189 17.2441C17.8388 17.3154 17.6962 17.416 17.4686 17.5126C17.0556 17.6884 16.5272 17.7861 15.9804 17.7861C15.4335 17.7861 14.9052 17.6884 14.4922 17.5126ZM20.1532 20.0126C19.7411 20.1884 19.2128 20.285 18.666 20.285C18.1191 20.285 17.5908 20.1884 17.1777 20.0126C16.9501 19.9149 16.8076 19.8154 16.7275 19.7431C16.8076 19.6728 16.9502 19.5721 17.1777 19.4755C17.5908 19.2997 18.1191 19.202 18.666 19.202C19.2128 19.202 19.7411 19.2997 20.1532 19.4755C20.3817 19.5721 20.5243 19.6728 20.6035 19.7431C20.5243 19.8154 20.3817 19.915 20.1532 20.0126ZM25.4863 19.4755C25.7148 19.5721 25.8574 19.6728 25.9365 19.7431C25.8574 19.8153 25.7148 19.9149 25.4863 20.0126C25.0742 20.1884 24.5449 20.285 23.999 20.285C23.4522 20.285 22.9239 20.1884 22.5107 20.0126C22.2822 19.9149 22.1396 19.8154 22.0605 19.7431C22.1397 19.6728 22.2822 19.5721 22.5107 19.4755C22.9238 19.2997 23.4522 19.202 23.999 19.202C24.5449 19.202 25.0742 19.2997 25.4863 19.4755ZM21.3134 16.703C21.8603 16.703 22.3886 16.7997 22.8007 16.9755C23.0292 17.0732 23.1718 17.1727 23.2509 17.244C23.1718 17.3153 23.0292 17.4159 22.8007 17.5126C22.3886 17.6884 21.8603 17.786 21.3134 17.786C20.7666 17.786 20.2383 17.6883 19.8251 17.5126C19.5966 17.4159 19.454 17.3153 19.375 17.244C19.3935 17.2274 19.4159 17.2098 19.4414 17.1904C20.0244 17.1103 20.5469 16.9442 20.9639 16.7157C21.0791 16.7079 21.1953 16.703 21.3134 16.703ZM18.6464 14.828C19.1932 14.828 19.7216 14.9247 20.1347 15.1005C20.3632 15.1982 20.5058 15.2977 20.5849 15.37C20.5663 15.3857 20.5439 15.4042 20.5185 15.4237C19.9355 15.5038 19.4129 15.6708 18.9959 15.8974C18.8807 15.9062 18.7645 15.9111 18.6463 15.9111C18.5292 15.9111 18.413 15.9062 18.2977 15.8974C17.8797 15.6708 17.3573 15.5038 16.7743 15.4237C16.7489 15.4042 16.7274 15.3857 16.7088 15.37C16.7274 15.3524 16.7489 15.3349 16.7743 15.3153C17.3573 15.2352 17.8798 15.0692 18.2977 14.8417C18.412 14.8329 18.5292 14.828 18.6464 14.828ZM14.4922 13.2265C14.9052 13.0507 15.4336 12.954 15.9804 12.954C16.5273 12.954 17.0556 13.0507 17.4686 13.2265C17.6962 13.3231 17.8388 13.4237 17.9189 13.495C17.9003 13.5116 17.8778 13.5302 17.8524 13.5497C17.2695 13.6298 16.747 13.7958 16.329 14.0224C16.2148 14.0322 16.0976 14.036 15.9804 14.036C15.8632 14.036 15.746 14.0322 15.6308 14.0224C15.2139 13.7958 14.6914 13.6298 14.1084 13.5497C14.083 13.5302 14.0605 13.5116 14.0419 13.495C14.1221 13.4238 14.2646 13.3231 14.4922 13.2265ZM11.8261 15.1005C12.2392 14.9247 12.7676 14.828 13.3144 14.828C13.4316 14.828 13.5478 14.8329 13.663 14.8417C14.081 15.0693 14.6035 15.2353 15.1864 15.3154C15.2118 15.3349 15.2333 15.3525 15.2518 15.3701C15.2333 15.3857 15.2118 15.4042 15.1864 15.4238C14.6034 15.5039 14.08 15.6708 13.663 15.8974C13.5478 15.9062 13.4315 15.9111 13.3144 15.9111C13.1962 15.9111 13.08 15.9062 12.9648 15.8974C12.5479 15.6708 12.0254 15.5039 11.4423 15.4238C11.4169 15.4043 11.3945 15.3857 11.3759 15.3701C11.455 15.2977 11.5976 15.1982 11.8261 15.1005ZM9.16012 16.9755C9.5722 16.7997 10.1005 16.7031 10.6474 16.7031C10.7656 16.7031 10.8818 16.7079 10.997 16.7158C11.414 16.9443 11.9365 17.1103 12.5195 17.1904C12.5449 17.2099 12.5674 17.2275 12.5859 17.2441C12.5059 17.3154 12.3643 17.416 12.1357 17.5126C11.7226 17.6884 11.1943 17.7861 10.6474 17.7861C10.1005 17.7861 9.57226 17.6884 9.16012 17.5126C8.9316 17.416 8.78901 17.3154 8.7099 17.2441C8.78901 17.1728 8.9316 17.0732 9.16012 16.9755ZM6.51261 19.4755C6.92475 19.2997 7.45403 19.202 7.99994 19.202C8.54685 19.202 9.07513 19.2997 9.48821 19.4755C9.71673 19.5721 9.85932 19.6728 9.93837 19.7431C9.85926 19.8153 9.71673 19.9149 9.48821 20.0126C9.07513 20.1884 8.54679 20.285 7.99994 20.285C7.45309 20.285 6.92475 20.1884 6.51261 20.0126C6.28409 19.9149 6.1415 19.8154 6.06245 19.7431C6.14156 19.6728 6.28409 19.5721 6.51261 19.4755Z" fill="#F6BB42"/>
<path d="M16.6474 23.9915H15.3134V25.6614H16.6474V23.9915Z" fill="#AAB2BC"/>
<path d="M16.9444 23.1387C16.9444 23.667 16.5156 24.0947 15.9883 24.0947C15.46 24.0947 15.0312 23.667 15.0312 23.1387C15.0312 22.6104 15.46 22.1826 15.9883 22.1826C16.5156 22.1826 16.9444 22.6103 16.9444 23.1387Z" fill="#434A54"/>
<path d="M19.9795 10.331C19.9795 10.331 19.9805 10.33 19.9805 10.3291V7.66306C19.9805 7.29589 19.6817 6.99707 19.3135 6.99707H12.6475C12.2793 6.99707 11.9805 7.29589 11.9805 7.66306V10.3291C11.9805 10.3301 11.9805 10.331 11.9805 10.331H19.9795Z" fill="#CCD1D9"/>
<path d="M13.3144 10.331V8.33005H18.6464V10.331H19.9794C19.9794 8.96777 19.9804 7.66306 19.9804 7.66306C19.9804 7.29589 19.6817 6.99707 19.3135 6.99707H12.6475C12.2793 6.99707 11.9805 7.29589 11.9805 7.66306C11.9805 7.66306 11.9805 8.96777 11.9805 10.331H13.3144Z" fill="#AAB2BC"/>
<path d="M3.44922 20.3291L5.80961 30.9981H7.17479L4.81547 20.3291H3.44922Z" fill="#AAB2BC"/>
<path d="M27.1523 20.3311L24.79 31.001H26.1553L28.5176 20.3311H27.1523Z" fill="#AAB2BC"/>
<path d="M18.6464 20.331V26.3282H13.3144V20.3301H11.9805V26.9952C11.9805 27.3623 12.2793 27.6611 12.6475 27.6611H19.3135C19.6817 27.6611 19.9804 27.3623 19.9804 26.9952V20.331H18.6464Z" fill="#AAB2BC"/>
<path d="M16 20.9951C14.8954 20.9951 14 21.8906 14 22.9951C14 24.0995 14.8955 24.9951 16 24.9951C17.1035 24.9951 17.999 24.0995 17.999 22.9951C17.999 21.8906 17.1035 20.9951 16 20.9951ZM16 23.6611C15.6318 23.6611 15.333 23.3623 15.333 22.9951C15.333 22.6279 15.6318 22.3282 16 22.3282C16.3671 22.3282 16.666 22.6279 16.666 22.9951C16.666 23.3623 16.3671 23.6611 16 23.6611Z" fill="#AAB2BC"/>
<path opacity="0.1" d="M0 20.3291L0.489251 18.9951H31.5079L32 20.3291H0Z" fill="black"/>
</svg>
