<svg width="32" height="32" viewBox="0 0 32 32" fill="none" xmlns="http://www.w3.org/2000/svg">
<path d="M19.3103 13.7931L17.1034 17.1035H14.8966L12.6897 13.7931V0H19.3104V13.7931H19.3103Z" fill="#E0E0E0"/>
<path d="M12.6896 3.31037H19.3103V0H12.6896V3.31037Z" fill="#A3AAAF"/>
<path d="M14.8965 19.8621H17.1034V17.1035H14.8965V19.8621Z" fill="#A3AAAF"/>
<path d="M16.1655 31.9999C17.6 31.9999 18.7587 30.8413 18.7587 29.4068V28.1379C18.7587 27.8068 18.7035 27.4206 18.538 27.0896C17.9862 25.3241 18.0966 23.7792 18.7035 22.6207L19.1449 21.4621C19.4759 20.6896 18.869 19.8621 18.0414 19.8621H13.9035C13.0759 19.8621 12.469 20.6896 12.8 21.5172L13.2414 22.6207C13.9035 23.7793 13.9587 25.2138 13.4069 27.0896C13.2965 27.4207 13.2414 27.8069 13.2414 28.1379V29.4068C13.2414 30.8413 14.4 31.9999 15.8345 31.9999H16.1655Z" fill="#C17C3E"/>
<path d="M14.8965 27.0344H13.462V27.0896C13.2965 27.4207 13.2413 27.8069 13.2413 28.1379H13.2965H14.8965C15.2276 28.1379 15.4483 27.9172 15.4483 27.5861C15.4483 27.255 15.2275 27.0344 14.8965 27.0344Z" fill="#9E5A23"/>
<path d="M14.8965 29.2412H13.2965C13.2965 29.2412 13.2965 29.2412 13.2413 29.2412V29.4067C13.2413 29.7378 13.2965 30.0688 13.4068 30.3446H14.8965C15.2275 30.3446 15.4482 30.124 15.4482 29.7929C15.4482 29.4618 15.2275 29.2412 14.8965 29.2412Z" fill="#9E5A23"/>
</svg>
