<svg width="32" height="32" viewBox="0 0 32 32" fill="none" xmlns="http://www.w3.org/2000/svg">
<path d="M11.7702 8.97607C11.7702 8.97607 13.1198 9.63264 14.5566 9.15176C14.7935 9.07251 15.0463 9.21951 15.1026 9.46289C15.294 10.2898 15.6257 12.0323 15.4607 13.605L16.5914 14.1633C16.5914 14.1633 18.146 14.9974 19.4746 14.1633L17.8634 16.6646C17.8634 16.6646 15.4607 12.2268 10.9097 11.4353L11.7702 8.97607Z" fill="#632E54"/>
<path d="M16.6612 14.4513C16.6612 14.4513 17.538 11.3552 20.7711 10.9716L17.0174 9.24585L14.5392 12.4373L16.6612 14.4513Z" fill="#FFF4B2"/>
<path d="M20.771 10.756C20.771 10.756 21.593 8.0707 24.4152 8.17857C26.735 8.2672 28.1752 9.51532 28.7439 10.2211C28.7959 10.2856 28.8992 10.2341 28.8752 10.1547C28.3452 8.4092 25.7732 1.99707 16.7435 2.7792L16.1133 3.68338L17.2092 8.72482L20.771 10.756Z" fill="#FFF4B2"/>
<path d="M15.4716 4.54471C15.9696 6.25402 16.5921 9.7939 14.2208 12.2185L14.8013 12.6175C14.8013 12.6175 15.5211 11.9123 16.2734 10.7142C16.6252 10.1539 17.3184 9.9134 17.9358 10.151L20.8948 11.2899C21.0331 11.3432 21.1891 11.2815 21.2537 11.1481C21.3182 11.0148 21.27 10.8543 21.1425 10.7788L17.9094 8.86171C17.5171 8.62909 17.266 8.21871 17.2345 7.76371C17.1778 6.94521 17.028 5.57496 16.6349 4.44959C16.5196 4.11965 16.585 3.75377 16.8004 3.47846L16.8084 3.46827C16.9937 3.23146 17.2663 3.08277 17.5633 3.06009C19.4045 2.91952 26.0896 2.99102 28.8632 10.9788C28.8937 11.0666 28.9761 11.1269 29.069 11.1269C29.2007 11.1269 29.3034 11.0116 29.2865 10.881C29.0919 9.38359 27.5887 1.56652 17.4359 1.8614C16.8166 1.8794 16.2342 2.16477 15.8471 2.64859C15.4201 3.1824 15.2805 3.88859 15.4716 4.54471Z" fill="url(#paint0_linear_14_1263)"/>
<path d="M14.8013 12.6176C14.8013 12.6176 15.1607 12.2647 15.6364 11.6363C15.3223 11.6103 15.0569 11.5414 14.8431 11.4622C14.663 11.7233 14.4575 11.9767 14.2208 12.2186L14.8013 12.6176Z" fill="#C6753E"/>
<path d="M11.0309 10.5859C11.0309 10.5859 17.0968 11.3659 18.4342 17.2885V21.0706H8.81531C8.81531 21.0706 9.14712 14.4315 11.0309 10.5859Z" fill="url(#paint1_linear_14_1263)"/>
<path d="M14.7216 18.4389L12.4715 16.8135C12.2881 16.6811 12.2657 16.4166 12.4241 16.2552L13.3511 15.3109C13.5335 15.1252 13.5073 14.821 13.295 14.6703C12.6578 14.2178 11.3618 13.2954 10.1053 12.3904C8.85265 16.2039 8.6084 21.0706 8.6084 21.0706H14.9321L14.7216 18.4389Z" fill="#C6753E"/>
<path d="M4.62842 25.1697C4.62842 25.1697 6.11079 30.1465 12.5239 30.1465C12.5239 30.1465 18.3667 30.1465 19.3776 25.1697C19.3776 25.1697 13.1824 23.5366 4.62842 25.1697Z" fill="#AF6D94"/>
<path d="M17.8786 24.873L17.8787 24.8728C17.8587 24.8696 17.8361 24.8663 17.8158 24.863C17.7513 24.8526 17.685 24.8423 17.6168 24.8319C17.5829 24.8267 17.5496 24.8216 17.5148 24.8164C17.5038 24.8148 17.4937 24.8131 17.4826 24.8115V24.8117C15.7661 24.5577 12.9769 24.3016 9.49988 24.5405L9.826 26.6751C9.826 26.6751 10.9097 26.3305 11.4789 26.1108C11.629 26.0528 11.7968 26.0709 11.929 26.1626C12.3696 26.4681 13.4166 27.1526 14.2994 27.4116C14.3954 27.4397 14.4964 27.4336 14.5904 27.3993C14.9873 27.255 16.1198 26.8201 16.9835 26.2621C16.4199 27.52 15.3344 29.1334 13.2848 30.0902C14.9005 29.8963 18.593 29.0316 19.3774 25.1697C19.3774 25.1697 18.8436 25.03 17.8786 24.873Z" fill="#632E54"/>
<path d="M3.25466 21.6964C3.25466 21.6964 3.05409 24.1783 4.18159 26.0357C4.22147 26.1013 4.26953 26.1613 4.32291 26.2165C4.46541 26.364 4.77128 26.6698 5.08472 26.9148C5.27528 27.0638 5.54922 27.0297 5.69547 26.8371C5.97659 26.4668 6.45734 25.8765 6.88109 25.5681C7.03116 25.4589 7.23359 25.4609 7.37872 25.5767C7.76265 25.883 8.62097 26.5177 9.51178 26.8405C9.63572 26.8855 9.77353 26.8651 9.88372 26.7927C10.2442 26.5558 11.0809 25.9967 11.6079 25.5703C11.7458 25.4588 11.9395 25.4519 12.087 25.5505C12.5263 25.8441 13.4562 26.4302 14.2087 26.666C14.3412 26.7075 14.4838 26.6837 14.5951 26.6007C14.9688 26.3218 15.8738 25.6312 16.3739 25.1203C16.5155 24.9757 16.7427 24.961 16.9042 25.083C17.3285 25.4035 18.1201 26.0148 18.7295 26.5633C18.8947 26.7118 19.1432 26.7134 19.3069 26.5634C19.5622 26.3297 19.9222 25.9948 20.1218 25.786C20.1945 25.7101 20.2528 25.6252 20.2978 25.5302C20.5518 24.9948 21.4495 22.9253 21.1143 21.0483V20.0115L11.2643 20.6595L4.39516 21.1002L3.25466 21.6964Z" fill="#AF6D94"/>
<path d="M21.1143 21.0481V20.0112L19.52 20.1161L11.2643 20.6593L7.89001 20.8757L8.79695 22.6845C8.79695 22.6845 9.77895 22.1868 10.3445 21.8855C10.4892 21.8085 10.6662 21.8372 10.7798 21.9554C11.132 22.322 11.956 23.1052 13.0461 23.6622C13.1703 23.7257 13.32 23.7096 13.4303 23.6245C13.7588 23.3713 14.4635 22.806 14.952 22.2555C15.0885 22.1016 15.3264 22.096 15.4743 22.2391C15.8041 22.5579 16.3442 23.0969 16.6898 23.5289C16.801 23.668 16.9981 23.7036 17.152 23.6142C17.2935 23.5321 17.4772 23.4125 17.6812 23.2479C17.5306 23.831 17.308 24.4865 16.9734 25.1352C17.4104 25.4667 18.1516 26.0427 18.7313 26.5645C18.8956 26.7124 19.1428 26.7135 19.3058 26.5642C19.5617 26.3298 19.9234 25.9934 20.1231 25.7844C20.195 25.7092 20.2526 25.6252 20.2971 25.5313C20.5503 24.9982 21.4497 22.9267 21.1143 21.0481Z" fill="#7C3E65"/>
<path d="M4.36924 14.9568C4.36924 14.9568 2.62824 17.6518 2.71493 21.0972C2.72218 21.3836 2.82661 21.659 3.01236 21.8772C3.23517 22.1389 3.57524 22.5185 3.96674 22.8882C4.06036 22.9766 4.20455 22.9815 4.30105 22.8962C4.6538 22.5843 5.50511 21.8552 6.19611 21.4515C6.26418 21.4117 6.34936 21.4238 6.4053 21.4794C6.66768 21.74 7.46986 22.4852 8.52436 22.9777C8.61374 23.0194 8.71924 23.0029 8.79261 22.937C9.10105 22.6595 9.93324 21.8945 10.4724 21.2463C10.5372 21.1683 10.652 21.158 10.727 21.226C11.0901 21.5552 12.1145 22.4513 13.0453 22.959C13.1421 23.0118 13.2616 22.991 13.3381 22.9115C13.6605 22.5767 14.5042 21.6711 14.9465 20.9222C15.0024 20.8274 15.1307 20.8088 15.2128 20.882C15.5714 21.2022 16.4264 21.9856 16.8434 22.538C16.931 22.654 17.0979 22.6693 17.2051 22.5712C17.5869 22.2217 18.385 21.4377 18.7624 20.6729C18.8154 20.5655 18.9564 20.5422 19.0424 20.6253C19.372 20.9442 20.0689 21.6506 20.4725 22.2955C20.577 22.4623 20.821 22.455 20.9067 22.2779C21.0581 21.965 21.2814 21.5405 21.5384 21.169C21.7071 20.9252 21.7724 20.6258 21.7369 20.3314C21.6324 19.4644 21.3433 17.6998 20.6475 16.7026C20.585 16.613 20.484 16.5601 20.3752 16.5508C19.688 16.4922 17.0807 16.2219 15.8635 15.4149C15.7502 15.3398 15.6067 15.3288 15.4799 15.378L13.1566 16.2788C13.1566 16.2788 14.1157 16.9528 14.323 17.2121C14.323 17.2121 14.4008 19.1821 14.2712 19.8302C14.2712 19.8302 13.986 18.6637 13.649 18.1452C13.649 18.1452 12.0419 17.6009 11.3162 16.0975L11.031 14.9569H4.36924V14.9568Z" fill="#AF6D94"/>
<path d="M20.9066 22.2777C21.058 21.9648 21.2812 21.5403 21.5382 21.1688C21.707 20.9251 21.7722 20.6256 21.7368 20.3312C21.6323 19.4642 21.3432 17.6996 20.6474 16.7024C20.5849 16.6128 20.4839 16.5599 20.3751 16.5506C19.7527 16.4975 17.5588 16.2694 16.2456 15.6277C16.9026 16.8035 18.0627 19.3851 17.5588 22.2319C17.9617 21.8283 18.4797 21.2452 18.7624 20.6727C18.8153 20.5654 18.9564 20.5421 19.0423 20.6252C19.372 20.9441 20.0688 21.6504 20.4725 22.2954C20.5768 22.4622 20.8209 22.4548 20.9066 22.2777Z" fill="#7C3E65"/>
<path d="M10.6316 16.6861L11.4083 17.314C11.5121 17.3979 11.6645 17.3802 11.7461 17.2747L11.9503 17.0109C11.7115 16.7564 11.4886 16.4548 11.3161 16.0974L11.0309 14.9568H9.41202L8.44434 17.3685C8.44434 17.3685 9.57221 17.0633 10.3065 16.6557C10.4106 16.5979 10.539 16.6112 10.6316 16.6861Z" fill="#7C3E65"/>
<path d="M19.3277 13.8337L17.4936 16.3253C17.3738 16.4879 17.4207 16.7175 17.5958 16.8181C18.0637 17.0871 18.9304 17.5752 19.4828 17.8253C19.6201 17.8874 19.7801 17.8634 19.8923 17.7631C20.1846 17.5016 20.7585 16.9648 21.0646 16.5211C21.1486 16.3996 21.1613 16.2424 21.105 16.1057C20.9206 15.6576 20.4349 14.5917 19.7051 13.8135C19.5999 13.7011 19.419 13.7097 19.3277 13.8337Z" fill="#7C3E65"/>
<path d="M4.32626 17.9878C4.14845 18.2033 3.94401 18.5695 3.85045 19.1653C3.83295 19.2765 3.8322 19.3908 3.84951 19.5022C3.87482 19.6646 3.93938 19.8881 4.1017 20.0757C4.18726 20.1745 4.33938 20.1813 4.4337 20.0907C4.49401 20.0327 4.56476 19.9596 4.63326 19.8766C4.77495 19.7048 4.86295 19.495 4.88901 19.2739C4.92213 18.9927 4.9362 18.5419 4.79107 18.0763C4.72782 17.8735 4.46145 17.8238 4.32626 17.9878Z" fill="#EFC3EB"/>
<path d="M5.82077 10.7576C5.82077 10.7576 4.27058 13.0828 3.55846 14.7364C3.50727 14.8553 3.47752 14.9807 3.4649 15.1095C3.43971 15.3664 3.40515 15.8355 3.42421 16.3422C3.43646 16.6677 3.78177 16.8715 4.0699 16.7193C4.67033 16.4023 5.60621 15.9195 6.24083 15.6468C6.36465 15.5936 6.50665 15.6477 6.56558 15.7688C6.74408 16.1355 7.17458 16.8928 7.89865 17.4304C8.1454 17.6136 8.48071 17.62 8.73327 17.4449C9.15408 17.1531 9.83227 16.6328 10.3873 15.9735C10.4671 15.8787 10.6111 15.8756 10.6908 15.9705C10.839 16.147 11.0745 16.4205 11.3026 16.6562C11.4015 16.7584 11.5685 16.7467 11.6501 16.6302C11.9726 16.1696 12.7485 15.0737 13.4075 14.2356C13.5105 14.1047 13.483 13.9152 13.3481 13.8175L10.8754 12.0278C10.8754 12.0278 7.94627 10.7058 5.82077 10.7576Z" fill="#AF6D94"/>
<path d="M10.8755 12.0275C10.8755 12.0275 9.71124 11.5023 8.31824 11.127V11.4111C8.31824 11.4111 8.34017 12.1996 9.72505 13.5044C9.83967 13.6124 10.0099 13.6369 10.1482 13.5613L11.7702 12.6751L10.8755 12.0275Z" fill="#7C3E65"/>
<path d="M5.94807 12.7872C5.68795 12.9603 5.35064 13.2859 5.05757 13.8934C5.00289 14.0068 4.96501 14.129 4.94757 14.2537C4.92207 14.4357 4.91889 14.6958 5.03176 14.9491C5.09132 15.0827 5.25195 15.1392 5.3822 15.0727C5.46551 15.0302 5.56495 14.9748 5.66514 14.9082C5.87239 14.7702 6.03457 14.5742 6.13401 14.346C6.26051 14.0557 6.42151 13.5778 6.41682 13.0325C6.41482 12.7948 6.14589 12.6554 5.94807 12.7872Z" fill="#EFC3EB"/>
<path d="M10.5987 6.41624C9.50675 6.79742 6.80787 7.94749 5.66168 10.3115L5.45981 11.6575C5.41212 11.9751 5.72431 12.2278 6.02418 12.1129C6.65306 11.8719 7.3035 11.6184 8.0645 11.5132C8.162 11.4997 8.25987 11.5454 8.31343 11.628C8.49593 11.9093 8.96125 12.5671 9.56743 12.9863C9.70156 13.079 9.87643 13.0894 10.0222 13.0165L10.7716 12.6418C10.9588 12.5482 11.0964 12.3787 11.1511 12.1765C11.3213 11.5467 11.747 10.1251 12.3191 9.29986C12.4337 9.13442 12.4459 8.91999 12.3387 8.74961C12.0512 8.29255 11.5012 7.38436 11.2157 6.69192C11.1161 6.45036 10.8456 6.33005 10.5987 6.41624Z" fill="#AF6D94"/>
<path d="M9.0825 8.18434C8.73275 8.24734 8.23356 8.43434 7.653 8.93546C7.54463 9.02903 7.44988 9.13928 7.37525 9.26146C7.26631 9.43984 7.14525 9.70977 7.1485 10.0251C7.15019 10.1913 7.29219 10.323 7.45813 10.3126C7.56431 10.306 7.69306 10.2931 7.82775 10.2689C8.10638 10.2188 8.36425 10.0876 8.57125 9.89459C8.83456 9.64903 9.21869 9.22328 9.46056 8.65234C9.56588 8.40353 9.34844 8.1364 9.0825 8.18434Z" fill="#EFC3EB"/>
<defs>
<linearGradient id="paint0_linear_14_1263" x1="25.5125" y1="4.72445" x2="4.25506" y2="19.5903" gradientUnits="userSpaceOnUse">
<stop stop-color="#FFB77F"/>
<stop offset="1" stop-color="#C6753E"/>
</linearGradient>
<linearGradient id="paint1_linear_14_1263" x1="16.1644" y1="13.3227" x2="12.9191" y2="19.0019" gradientUnits="userSpaceOnUse">
<stop stop-color="#FFB77F"/>
<stop offset="1" stop-color="#C6753E"/>
</linearGradient>
</defs>
</svg>
