<svg width="32" height="32" viewBox="0 0 32 32" fill="none" xmlns="http://www.w3.org/2000/svg">
<path d="M26.928 23.024C26.928 23.024 26.9552 25.844 26.3043 28.3115L23.7744 22.6444C23.7744 22.6444 25.9789 22.4275 26.928 23.024Z" fill="#E8897B"/>
<path d="M14.1565 29.342C14.1565 29.342 14.7481 31.0148 16.7277 31.4585C17.4435 31.6189 18.1975 31.5585 18.8544 31.2317C19.2733 31.0233 19.7251 30.6872 20.0459 30.1467C20.1314 30.0027 20.3373 30.0035 20.4289 30.1437C20.6376 30.463 21.0286 30.9214 21.6851 31.2307C22.6311 31.6762 23.7313 31.6042 24.6469 31.0991C25.3429 30.7151 26.1055 30.0265 26.3982 28.8044C26.543 28.1997 26.5282 27.5693 26.3997 26.9611C26.1754 25.8998 24.8016 23.7902 23.7744 22.6445C23.7744 22.6445 18.495 23.8647 14.1565 29.342Z" fill="url(#paint0_linear_10_3259)"/>
<path d="M26.3997 26.9609C26.3906 26.9182 26.3801 26.8712 26.3701 26.8253C25.3424 26.7902 22.7677 26.3917 22.4182 23.3267C20.2487 24.1683 16.8605 25.928 14.1565 29.3418C14.1565 29.3418 14.7481 31.0147 16.7277 31.4584C17.4435 31.6188 18.1975 31.5583 18.8544 31.2316C19.2733 31.0232 19.7251 30.687 20.0459 30.1465C20.1314 30.0025 20.3373 30.0034 20.4289 30.1436C20.6376 30.4629 21.0286 30.9213 21.6851 31.2305C22.6311 31.6761 23.7313 31.604 24.6469 31.099C25.3429 30.715 26.1055 30.0263 26.3982 28.8043C26.543 28.1996 26.5281 27.5692 26.3997 26.9609Z" fill="#B56D95"/>
<path d="M26.3997 26.961C26.3906 26.9184 26.3801 26.8714 26.3701 26.8254C25.8191 26.8066 24.8234 26.6827 23.9644 26.0999C24.1361 27.225 24.3279 30.4245 21.0475 30.8294C21.2249 30.9741 21.4356 31.1132 21.6851 31.2307C22.6311 31.6763 23.7313 31.6042 24.6469 31.0992C25.3429 30.7152 26.1055 30.0265 26.3982 28.8045C26.543 28.1997 26.5281 27.5694 26.3997 26.961Z" fill="#934A74"/>
<path d="M20.0865 27.2392C19.96 26.9964 19.7369 26.6595 19.3747 26.3734C19.2967 26.3118 19.3515 26.1879 19.449 26.2081L20.1432 26.3525C20.1432 26.3525 20.3687 26.1795 20.7393 25.9713C20.8265 25.9224 20.9195 26.0269 20.86 26.1072C20.6547 26.3845 20.3925 26.7966 20.281 27.2165C20.2562 27.3101 20.1313 27.325 20.0865 27.2392Z" fill="#934A74"/>
<path d="M19.4745 27.4613C19.3393 27.294 19.074 27.3732 19.039 27.5854C18.6193 30.1282 16.4862 30.9589 15.8873 31.1622C16.1355 31.2836 16.4121 31.3878 16.7277 31.4585C17.4435 31.6189 18.1975 31.5585 18.8544 31.2317C19.2256 31.047 19.6222 30.7613 19.9312 30.3226C20.0586 29.9982 20.118 29.6451 20.107 29.2887C20.0795 28.3928 19.75 27.8019 19.4745 27.4613Z" fill="#934A74"/>
<path d="M16.258 2.32377C16.258 2.32377 15.2933 0.168146 12.6871 0.488834C11.6396 0.617771 10.6645 1.11052 9.91254 1.85102C9.06448 2.68615 8.10711 4.10946 8.19417 6.23652C8.20261 6.44277 8.22798 6.64683 8.25742 6.85115C8.35229 7.50958 8.58529 9.0209 8.83598 9.85202C8.91179 10.1035 8.95929 10.361 8.97604 10.6231L8.97892 10.6681C9.06929 12.0839 8.27942 13.4382 6.96661 13.9763C6.48798 14.1725 5.90561 14.298 5.19948 14.2966C4.66542 14.2956 4.35223 14.8874 4.64311 15.3354C5.02523 15.9239 5.76904 16.5979 7.21673 16.9599C8.18092 17.2009 9.20336 17.1743 10.123 16.7974C10.647 16.5826 11.1838 16.2515 11.5176 15.744C11.5176 15.744 11.6302 16.6 12.5216 16.6836C12.9344 16.7224 13.3384 16.5646 13.6588 16.3014C14.1134 15.9279 14.7698 15.2238 14.856 14.2231C14.856 14.2231 12.1852 8.26608 16.258 2.32377Z" fill="#FFE19F"/>
<path d="M11.6805 16.174C11.819 16.401 12.0703 16.6412 12.5216 16.6836C12.9344 16.7224 13.3384 16.5646 13.6588 16.3014C14.1134 15.9279 14.7698 15.2238 14.856 14.2231C14.856 14.2231 14.6214 13.6964 14.3972 12.8049C14.0812 14.2106 13.3377 15.6462 11.6805 16.174Z" fill="#D8A648"/>
<path d="M14.5534 29.6751C16 28.1328 21.4355 22.6961 25.851 23.0698C26.1806 23.0977 26.5023 23.2089 26.7631 23.4126C26.7806 23.4264 26.7982 23.4406 26.8155 23.4553C26.9743 23.5899 27.2155 23.5275 27.2945 23.3349C27.5993 22.5909 27.8312 21.1077 24.9873 20.8802C24.9873 20.8802 25.3142 19.3008 22.2593 19.5809C22.2593 19.5809 21.9303 17.1983 17.956 17.1158C17.956 17.1158 13.0476 17.0079 13.744 19.7338C13.744 19.7338 8.75465 20.7729 8.46334 24.3628C8.45302 24.49 8.46227 24.6172 8.48346 24.7431C8.63102 25.6187 9.45315 28.8633 13.6231 29.9483C13.9592 30.0356 14.3159 29.9284 14.5534 29.6751Z" fill="#CFC46E"/>
<path d="M24.9873 20.8802C24.9873 20.8802 25.3142 19.3007 22.2593 19.581C22.2593 19.581 22.259 19.5787 22.2582 19.5744C22.2581 19.5734 22.2577 19.5716 22.2575 19.5704C22.2568 19.5662 22.256 19.5617 22.2548 19.5552C22.2541 19.5518 22.2531 19.5471 22.2523 19.5432C22.251 19.5372 22.25 19.5317 22.2483 19.5245C22.247 19.5185 22.2452 19.5112 22.2437 19.5045C22.242 19.4972 22.2404 19.4905 22.2383 19.4823C22.2363 19.4745 22.2338 19.4655 22.2315 19.4569C22.2291 19.4481 22.2269 19.4397 22.2241 19.4301C22.2213 19.4201 22.2177 19.4091 22.2145 19.3982C22.2115 19.3885 22.2087 19.3791 22.2054 19.3687C22.2015 19.3569 22.197 19.3441 22.1926 19.3314C22.1888 19.3204 22.1852 19.3097 22.181 19.2982C22.1762 19.2849 22.1706 19.2709 22.1652 19.2569C22.1605 19.2449 22.156 19.233 22.1508 19.2204C22.1448 19.2055 22.138 19.1899 22.1313 19.1744C22.1257 19.1616 22.1203 19.1489 22.1144 19.1356C22.1069 19.1191 22.0987 19.1022 22.0905 19.0851C22.084 19.0717 22.0777 19.0584 22.0709 19.0447C22.062 19.027 22.0524 19.0089 22.0427 18.9906C22.0352 18.9766 22.0277 18.9626 22.0198 18.9483C22.0093 18.9296 21.9982 18.9105 21.9869 18.8913C21.9783 18.8768 21.9697 18.8623 21.9605 18.8476C21.9484 18.8278 21.9355 18.8078 21.9223 18.7877C21.9127 18.7729 21.9027 18.758 21.8925 18.7429C21.8786 18.7226 21.864 18.7021 21.8492 18.6815C21.838 18.6661 21.8267 18.6507 21.815 18.6351C21.7993 18.6144 21.783 18.5936 21.7663 18.5727C21.7537 18.557 21.7409 18.5412 21.7277 18.5254C21.71 18.5042 21.6917 18.483 21.6728 18.4617C21.6589 18.4461 21.6448 18.4306 21.6303 18.4149C21.6103 18.3932 21.5897 18.3716 21.5684 18.3499C21.5533 18.3346 21.5377 18.3192 21.5218 18.3037C21.4995 18.2819 21.4767 18.2602 21.4529 18.2385C21.4362 18.2231 21.4188 18.2079 21.4014 18.1926C21.3767 18.1709 21.3517 18.1494 21.3256 18.1279C21.3072 18.1128 21.288 18.0977 21.2688 18.0826C21.2417 18.0612 21.2143 18.04 21.1857 18.0189C21.1657 18.0041 21.1448 17.9894 21.1241 17.9749C21.0942 17.9537 21.0639 17.9327 21.0324 17.9119C21.0109 17.8977 20.9884 17.8839 20.9661 17.8699C20.9332 17.8493 20.9002 17.8287 20.8657 17.8086C20.8425 17.795 20.8182 17.7818 20.7942 17.7685C20.7583 17.7486 20.7224 17.7286 20.6847 17.7092C20.6597 17.6963 20.6334 17.6839 20.6077 17.6713C20.5687 17.6522 20.5299 17.6332 20.489 17.6147C20.4622 17.6027 20.4339 17.5911 20.4064 17.5794C20.3641 17.5613 20.322 17.5432 20.2778 17.5259C20.2496 17.5149 20.2197 17.5045 20.1906 17.4937C20.1445 17.4767 20.0985 17.4596 20.0503 17.4434C20.0212 17.4336 19.9904 17.4247 19.9605 17.4153C19.9097 17.3993 19.8595 17.3832 19.8065 17.3682C19.777 17.3599 19.7457 17.3526 19.7156 17.3446C19.6596 17.3298 19.604 17.3148 19.5455 17.3012C19.517 17.2946 19.4868 17.289 19.4577 17.2827C19.395 17.2691 19.3326 17.2553 19.267 17.2431C19.2442 17.2389 19.2197 17.2356 19.1966 17.2316C18.9352 17.1859 18.6528 17.1516 18.3453 17.1324C18.3402 17.1322 18.3355 17.1316 18.3304 17.1312C18.2093 17.124 18.0848 17.1186 17.9562 17.116C17.9562 17.116 17.4343 17.1051 16.756 17.1839C16.7455 17.1999 16.735 17.2157 16.7247 17.2316C15.7506 18.7355 16.7869 20.7637 18.5775 20.8309C19.3512 20.8599 20.1293 20.6391 20.7707 20.3756C20.9518 20.5507 21.1855 20.6632 21.4402 20.6841C22.1053 20.7383 23.2139 20.9446 23.0708 21.72C23.0293 21.9452 22.8856 22.1383 22.6986 22.2707C22.1486 22.6597 20.6054 23.8266 19.4218 25.4199C21.4485 24.014 23.7812 22.8823 25.8808 23.0727C26.1901 23.1006 26.4904 23.2068 26.7385 23.3938C26.7645 23.4134 26.7903 23.4339 26.8157 23.4555C26.9745 23.5902 27.2158 23.5277 27.2947 23.3351C27.5993 22.5909 27.8312 21.1078 24.9873 20.8802Z" fill="#A19145"/>
<path d="M17.1273 27.2095C13.8959 28.5731 10.6204 27.3867 9.19678 26.7146C9.87709 27.9253 11.1708 29.3102 13.6232 29.9482C13.9592 30.0356 14.3158 29.9285 14.5534 29.6752C15.0331 29.1637 15.9531 28.2235 17.1273 27.2095Z" fill="#A19145"/>
<path d="M18.4662 20.1923C17.3262 20.1923 16.402 19.2681 16.402 18.1281V14.5876H20.5304V18.1281C20.5303 19.2681 19.6062 20.1923 18.4662 20.1923Z" fill="url(#paint1_linear_10_3259)"/>
<path d="M16.4985 14.5876C17.1109 15.4644 18.7707 17.7393 20.0357 19.4667C20.3435 19.1062 20.5303 18.6393 20.5303 18.1281V14.5876H16.4985Z" fill="#E8897B"/>
<path d="M16.6475 14.6009C16.6475 14.6009 18.3889 17.2376 21.3816 18.3674C21.6743 18.4779 22.0046 18.3679 22.1759 18.1061C22.748 17.2317 23.9778 15.0881 24.4004 12.2634C24.4371 12.0179 24.3936 11.7666 24.2851 11.5433L21.2359 5.26562L19.68 5.35712L16.8428 8.37731L16.6475 14.6009Z" fill="url(#paint2_linear_10_3259)"/>
<path d="M20.3474 12.5278C20.1615 12.5278 20.0107 12.377 20.0107 12.1911V11.4844C20.0107 11.2984 20.1615 11.1477 20.3474 11.1477C20.5335 11.1477 20.6842 11.2985 20.6842 11.4844V12.1911C20.6841 12.377 20.5334 12.5278 20.3474 12.5278Z" fill="#333345"/>
<path d="M21.6602 13.4727H22.564C22.7065 13.4727 22.8015 13.624 22.7346 13.7498C22.6293 13.9476 22.4394 14.1788 22.1263 14.1788C22.1263 14.1788 21.6802 14.1717 21.4842 13.74C21.4274 13.6153 21.523 13.4727 21.6602 13.4727Z" fill="#E8897B"/>
<path d="M21.2359 5.26562L20.6938 5.2975L20.5303 6.21313C20.4094 6.28669 19.6413 9.8165 22.5151 11.9547C22.7728 12.1464 22.9359 12.4397 22.9504 12.7606C22.9988 13.8355 22.8859 16.3077 21.1071 18.2581C21.1998 18.2969 21.2939 18.3344 21.3893 18.3703C21.6795 18.4795 22.0056 18.3663 22.1754 18.1069C22.7473 17.2331 23.9777 15.0889 24.4004 12.2634C24.4372 12.0178 24.3937 11.7666 24.2852 11.5433L21.2359 5.26562Z" fill="#E8897B"/>
<path d="M18.7645 7.47749L20.2509 6.20855C20.2509 6.20855 20.1078 10.2635 24.2105 12.2671C24.2105 12.2671 24.115 13.5551 23.9242 14.223C23.9242 14.223 26.0232 14.2707 25.9279 11.2653C25.9279 11.2653 28.8856 6.01774 22.7794 2.63068C22.7794 2.63068 19.106 -1.47201 15.1465 3.0123L14.5398 3.9143C13.6355 5.25843 13.1272 6.82955 13.0778 8.4488C13 11.0025 13.458 14.4924 16.3773 15.3204C16.742 15.4238 17.1025 15.1375 17.1025 14.7584V12.1717C17.1025 12.1717 19.203 10.9954 18.4762 8.40636C18.3812 8.0683 18.4975 7.70549 18.7645 7.47749Z" fill="#FFE19F"/>
<path d="M23.3443 2.96558C24.2453 4.09733 26.0838 6.9837 24.5528 10.2135C24.3432 10.6555 23.9225 10.9586 23.435 10.9995C23.1242 11.0256 22.7278 11.0105 22.2593 10.9011C22.7697 11.4043 23.4079 11.8752 24.2105 12.2671C24.2105 12.2671 24.115 13.5552 23.9242 14.2231C23.9242 14.2231 26.0232 14.2708 25.9279 11.2653C25.9279 11.2653 28.6966 6.35239 23.3443 2.96558Z" fill="#EDC063"/>
<path d="M14.4206 2.73633C14.7069 2.47426 15.1486 2.49676 15.4108 2.78289C15.9466 3.36751 17.0298 4.23808 18.8989 4.53514C19.0283 4.5557 19.1185 4.67501 19.0976 4.80445C19.0798 4.91526 18.987 4.99764 18.8749 5.00201C18.2303 5.02708 16.1 5.0092 14.4834 3.82051C14.1262 3.55783 14.0937 3.0357 14.4206 2.73633Z" fill="#A19145"/>
<path d="M24.8898 3.14592C24.6838 2.98899 24.4058 3.03642 24.2664 3.24955C23.9816 3.68511 23.3766 4.35442 22.2195 4.69192C22.1394 4.7153 22.0934 4.80274 22.1188 4.88905C22.1406 4.96292 22.2071 5.01205 22.2786 5.00686C22.6896 4.97699 24.0386 4.80986 24.9519 3.88586C25.1537 3.6818 25.1252 3.3253 24.8898 3.14592Z" fill="#A19145"/>
<path d="M12.1673 8.10581C12 7.99399 11.7825 8.15368 11.8381 8.34706C12.071 9.15812 12.5065 10.7041 12.7553 11.7758C12.7553 11.7758 13.1198 13.5984 14.7656 14.0156C15.1552 14.1143 15.5494 13.8601 15.6151 13.4636C15.6661 13.1566 15.6861 12.7537 15.5974 12.2889C15.5268 11.919 15.3728 11.5719 15.1729 11.2527C14.7326 10.5496 13.7283 9.14937 12.1673 8.10581Z" fill="url(#paint3_linear_10_3259)"/>
<path d="M14.1501 11.2979C14.4116 11.6045 14.7103 12.0864 14.7604 12.7238C14.7704 12.8521 14.6261 12.9384 14.5184 12.8679C14.2922 12.7199 13.9986 12.4367 14.0376 11.9774C14.0376 11.9774 14.0447 11.7106 13.9589 11.3976C13.9281 11.2848 14.0742 11.2088 14.1501 11.2979Z" fill="#E8897B"/>
<path d="M14.8324 21.0545C15.1956 21.5908 15.9459 22.314 17.4208 22.5524C17.6601 22.5911 17.6645 22.9301 17.4256 22.971C16.9694 23.0491 16.3772 23.0565 15.6986 22.8447C15.1921 22.6868 14.7656 22.3277 14.5783 21.8312C14.5084 21.6459 14.4559 21.4284 14.4432 21.1795C14.4322 20.9649 14.7119 20.8765 14.8324 21.0545Z" fill="#A19145"/>
<defs>
<linearGradient id="paint0_linear_10_3259" x1="19.4732" y1="25.5761" x2="21.5833" y2="32.2808" gradientUnits="userSpaceOnUse">
<stop offset="0.0051" stop-color="#FFC3B0"/>
<stop offset="1" stop-color="#E8897B"/>
</linearGradient>
<linearGradient id="paint1_linear_10_3259" x1="18.4662" y1="18.0113" x2="18.4662" y2="11.8081" gradientUnits="userSpaceOnUse">
<stop offset="0.0051" stop-color="#FFC3B0"/>
<stop offset="1" stop-color="#E8897B"/>
</linearGradient>
<linearGradient id="paint2_linear_10_3259" x1="20.5304" y1="17.1962" x2="20.5304" y2="2.02765" gradientUnits="userSpaceOnUse">
<stop offset="0.0051" stop-color="#FFC3B0"/>
<stop offset="1" stop-color="#E8897B"/>
</linearGradient>
<linearGradient id="paint3_linear_10_3259" x1="15.129" y1="13.3675" x2="11.0993" y2="7.66254" gradientUnits="userSpaceOnUse">
<stop offset="0.0051" stop-color="#FFC3B0"/>
<stop offset="1" stop-color="#E8897B"/>
</linearGradient>
</defs>
</svg>
