<svg width="32" height="32" viewBox="0 0 32 32" fill="none" xmlns="http://www.w3.org/2000/svg">
<path d="M6.3886 14.7019L7.14573 12.4307L4.3776 12.0995C4.3776 12.0995 4.53867 11.7907 4.63123 11.3776C4.88167 10.2598 3.83629 9.22985 2.7531 9.60222C2.4166 9.71791 2.0906 9.97029 1.86985 10.4671C1.86985 10.4671 1.61623 11.2278 2.12342 11.7825C2.19485 11.8607 2.13835 11.9896 2.0326 11.9945C1.56279 12.0161 0.765541 12.1843 0.490291 13.0423C0.424479 13.2473 0.404854 13.4659 0.424791 13.6803C0.471291 14.1793 0.740166 15.0018 2.00648 15.0125C2.17073 15.0139 2.33442 14.9933 2.49392 14.9543C2.9141 14.8515 3.70867 14.4312 4.02279 13.8029L6.3886 14.7019Z" fill="#E3EEFF"/>
<path d="M4.46313 13.9702L6.38851 14.7018L7.1457 12.4306L6.23226 12.3213C5.97395 12.8489 5.43913 13.6425 4.46313 13.9702Z" fill="#C7DAFF"/>
<path d="M3.7246 14.2167C2.9451 14.3977 1.17642 14.5606 0.848166 12.4512C0.698354 12.598 0.571291 12.7896 0.490291 13.0422C0.424479 13.2473 0.404854 13.4659 0.424791 13.6804C0.471291 14.1794 0.740166 15.0018 2.00648 15.0125C2.17073 15.0139 2.33435 14.9934 2.49392 14.9544C2.81329 14.8762 3.34798 14.6137 3.7246 14.2167Z" fill="#C7DAFF"/>
<path d="M21.2591 10.1784C21.2591 10.1784 18.4947 10.4622 16.9112 10.8448C16.6641 10.9045 16.4121 10.9325 16.1579 10.9234C16.1509 10.9232 16.1438 10.9229 16.1367 10.9226C15.4131 10.8937 14.7301 10.5793 14.2232 10.0622L13.0225 8.83709C12.5255 8.33003 11.7712 8.17247 11.1151 8.44403C9.97343 8.91665 8.22311 9.92178 6.99349 11.9242C6.37518 12.931 6.08093 14.1016 6.11324 15.2827C6.14711 16.5221 6.34236 18.2323 7.07811 19.3725C7.29961 19.7157 7.68793 19.9125 8.09549 19.886C9.2663 19.81 11.9766 19.707 13.4377 20.2458C13.5945 20.3036 13.7592 20.3284 13.926 20.3173C14.3097 20.2918 15.0584 20.3405 15.5028 21.0155C15.5624 21.1059 15.6247 21.1936 15.703 21.2685C16.1615 21.7072 17.8964 23.1792 20.8533 23.5342L21.2591 10.1784Z" fill="url(#paint0_linear_10_3385)"/>
<path d="M7.72215 15.1423C7.60997 15.4327 7.45422 15.8953 7.42472 16.2908C7.40597 16.5421 7.52078 16.7837 7.7319 16.9212C7.83947 16.9912 7.98059 17.0663 8.16009 17.1312C8.35203 17.2005 8.56009 17.0739 8.58278 16.8711C8.61309 16.5995 8.63159 16.1958 8.56697 15.7313C8.54478 15.5719 8.4669 15.4245 8.34759 15.3166L8.06434 15.0603C7.95303 14.9597 7.77622 15.0023 7.72215 15.1423Z" fill="#FA6B5A"/>
<path d="M11.9818 11.2704L12.5245 12.0671C12.6605 12.2668 12.9032 12.3652 13.1398 12.3166L13.3645 12.2705C13.4594 12.251 13.5248 12.1631 13.5136 12.0668C13.4946 11.9041 13.451 11.6453 13.3508 11.383C13.2636 11.1548 13.0488 10.998 12.8052 10.9803C12.6121 10.9662 12.3642 10.9581 12.1175 10.9778C11.9758 10.9892 11.9019 11.153 11.9818 11.2704Z" fill="#FA6B5A"/>
<path d="M7.14575 19.4635C7.37363 19.7492 7.72594 19.91 8.0955 19.886C9.26625 19.81 11.9765 19.707 13.4376 20.2458C13.5944 20.3036 13.7591 20.3284 13.9259 20.3173C14.3096 20.2918 15.0584 20.3405 15.5027 21.0155C15.5623 21.1059 15.6246 21.1936 15.7029 21.2685C16.1614 21.7071 17.8963 23.1792 20.8532 23.5342L21.2589 10.1785C21.2589 10.1785 20.1423 10.2932 18.9219 10.475C18.7878 12.7042 17.5053 19.2101 7.14575 19.4635Z" fill="#FF8E73"/>
<path d="M21.259 10.1785C21.259 10.1785 18.0892 12.7572 17.2072 18.2684C17.0966 18.9593 17.2384 19.6673 17.6126 20.2585C18.1776 21.1508 19.1098 22.4794 20.054 23.202C20.2869 23.3803 20.5632 23.4916 20.8532 23.5342L21.7694 23.6689C22.2878 23.7452 22.8115 23.5857 23.2012 23.2354C24.3929 22.1645 26.7364 19.578 26.4325 16.0097C26.3915 15.5275 26.0954 15.0943 25.6555 14.8924C25.1255 14.649 24.4539 14.1367 24.4078 13.0958C24.3949 12.8054 24.2686 12.533 24.0774 12.314C23.5693 11.7322 22.5329 10.688 21.259 10.1785Z" fill="#FA6B5A"/>
<path d="M22.0871 17.8531C22.0876 17.8287 22.0883 17.8043 22.0893 17.7796C22.1298 16.8095 23.1185 16.1692 24.0224 16.5235C25.0611 16.9305 26.4857 17.4516 27.2103 17.5527C27.2103 17.5527 28.0106 15.5312 29.6835 15.6042C30.2833 15.6305 30.8437 15.9484 31.188 16.4403C31.4124 16.761 31.6053 17.2047 31.5805 17.7679C31.5456 18.5582 31.0755 19.2862 30.3455 19.5911C30.272 19.6217 30.1946 19.6491 30.1135 19.6717C29.8394 19.7481 29.6741 20.0239 29.73 20.3028C29.7691 20.4977 29.7993 20.7309 29.7981 20.9819C29.7899 22.5774 28.0173 23.6124 26.6269 22.8299C26.264 22.6256 25.9495 22.2845 25.7903 21.7273C25.7335 21.5285 25.7051 20.5345 26.1311 20.0517C26.1311 20.0517 24.547 19.5178 23.2248 19.2389C22.5659 19.1001 22.0732 18.5264 22.0871 17.8531Z" fill="#E3EEFF"/>
<path d="M29.7747 21.2824C29.5122 21.5076 29.2038 21.6196 28.9261 21.6687C28.3857 21.7641 27.8162 21.6177 27.4091 21.2499C26.8058 20.7047 26.859 19.9625 26.9945 19.4622C27.0682 19.1902 26.8889 18.9168 26.6085 18.8879C25.0765 18.7297 23.0292 17.9365 22.1173 17.5608C22.1032 17.6319 22.0925 17.7044 22.0894 17.7797C22.0885 17.7984 22.088 17.817 22.0875 17.8355C22.0704 18.5136 22.549 19.0972 23.2128 19.2365C24.5375 19.5147 26.1312 20.0519 26.1312 20.0519C25.7052 20.5347 25.7336 21.5287 25.7904 21.7275C25.9496 22.2847 26.264 22.6258 26.627 22.83C27.9279 23.562 29.5628 22.7028 29.7747 21.2824Z" fill="#C7DAFF"/>
<defs>
<linearGradient id="paint0_linear_10_3385" x1="11.639" y1="9.56012" x2="19.3481" y2="25.5602" gradientUnits="userSpaceOnUse">
<stop offset="0.0051" stop-color="#FFC8A8"/>
<stop offset="1" stop-color="#FF8E73"/>
</linearGradient>
</defs>
</svg>
