<svg width="32" height="32" viewBox="0 0 32 32" fill="none" xmlns="http://www.w3.org/2000/svg">
<g clip-path="url(#clip0_4_4426)">
<path d="M32 10.9139L31.9897 10.9114C31.9922 10.8529 32 10.7965 32 10.7338C32.0011 8.95501 31.4452 7.22051 30.4102 5.77382C29.3752 4.32713 27.9131 3.24088 26.2292 2.66755C24.5454 2.09423 22.7242 2.06261 21.0215 2.57716C19.3187 3.0917 17.8198 4.12656 16.7352 5.53647C16.732 5.53526 16.7287 5.53431 16.7254 5.53359C16.6413 5.64913 16.5307 5.74283 16.4029 5.80682C16.2751 5.87082 16.1339 5.90326 15.991 5.9014C15.8481 5.89955 15.7077 5.86345 15.5817 5.79616C15.4556 5.72886 15.3475 5.63232 15.2664 5.51463L15.252 5.51793C14.1652 4.11206 12.6657 3.08151 10.9638 2.57072C9.26179 2.05993 7.44265 2.09452 5.76132 2.66963C4.08 3.24473 2.62077 4.33152 1.58819 5.77767C0.555599 7.22382 0.00141341 8.95685 0.00330706 10.7338C0.00330706 10.7944 0.0107276 10.85 0.0107276 10.9085L-0.0012207 10.9139C-0.0012207 10.9139 -0.00121819 11.12 0.0399945 11.4962C0.0837921 11.9644 0.166493 12.4282 0.287261 12.8826C0.949961 15.7449 3.14661 21.243 10.4499 26.121C14.6709 28.956 15.6963 29.7242 15.9654 29.7753C15.9782 29.7778 15.9852 29.7889 15.9996 29.7889C16.014 29.7889 16.0235 29.7753 16.0383 29.7712C16.3268 29.7044 17.3839 28.9177 21.5439 26.121C28.5217 21.4586 30.8395 16.2299 31.6114 13.2779C31.7982 12.6684 31.9162 12.04 31.9633 11.4043C31.998 11.0907 32 10.9139 32 10.9139ZM16.0021 6.64221C15.9778 6.601 15.9493 6.55978 15.925 6.51568C15.9493 6.55772 15.9778 6.59852 16.0021 6.64221Z" fill="#FF5245"/>
<path d="M12.9222 18.3496C10.6938 10.0131 13.5037 6.4416 14.9828 5.20728C14.2479 4.34079 13.3475 3.62948 12.3345 3.11491C9.65569 2.53134 5.91234 3.23648 3.49109 10.0885C3.07897 11.4897 2.89021 15.0085 3.28832 19.3309C5.23715 22.0163 7.66553 24.3183 10.4511 26.1211C14.6721 28.9561 15.6975 29.7243 15.9666 29.7754C15.9794 29.7779 15.9864 29.789 16.0008 29.789C16.0152 29.789 16.0247 29.7754 16.0395 29.7713C16.1508 29.7354 16.2563 29.6836 16.3528 29.6176C15.5034 27.2383 14.3284 23.6021 12.9222 18.3496Z" fill="url(#paint0_linear_4_4426)"/>
</g>
<defs>
<linearGradient id="paint0_linear_4_4426" x1="16.9372" y1="3.08706" x2="1.99266" y2="11.8095" gradientUnits="userSpaceOnUse">
<stop stop-color="#FF7471"/>
<stop offset="1" stop-color="#FF5245"/>
</linearGradient>
<clipPath id="clip0_4_4426">
<rect width="32" height="32" fill="white"/>
</clipPath>
</defs>
</svg>
