<svg width="32" height="32" viewBox="0 0 32 32" fill="none" xmlns="http://www.w3.org/2000/svg">
<path d="M18.5929 20.0019C16.1876 19.7077 15.1307 18.3557 13.0169 15.6561C15.7183 13.5441 17.0694 12.4872 19.4756 12.7806C21.8845 13.0757 24.1423 14.5726 25.0516 17.1263C23.5556 19.3868 21.0009 20.2934 18.5929 20.0019ZM13.2961 27.8366C11.0303 27.6703 9.97783 26.4561 7.87561 24.025C10.3067 21.9237 11.5218 20.8721 13.7885 21.0348C16.0561 21.1992 18.2409 22.4961 19.2089 24.8454C17.9121 27.0303 15.5645 27.9992 13.2961 27.8366ZM7.76716 13.8748C8.9565 15.3246 8.82583 16.6454 8.56539 19.2863C5.92539 19.025 4.6045 18.8952 3.41428 17.4454C2.22405 15.993 1.76005 13.9477 2.61605 12.0339C4.66139 11.5681 6.57694 12.4241 7.76716 13.8748ZM26.5369 9.03211C24.3725 9.93878 22.8392 9.31122 19.7698 8.057C21.0241 4.98767 21.6525 3.45256 23.8134 2.54322C25.9769 1.63567 28.5938 1.809 30.5796 3.51745C30.4072 6.13434 28.6978 8.12278 26.5369 9.03211ZM15.2027 5.87389C15.9796 8.42411 15.0925 10.089 13.3192 13.4188C9.99028 11.6446 8.3245 10.7574 7.54672 8.20634C6.76805 5.65345 7.26672 2.713 9.42939 0.659668C12.3698 1.15833 14.4241 3.32011 15.2027 5.87389Z" fill="#77B255"/>
<path d="M7.54671 8.20625C8.31294 10.72 9.94849 11.6223 13.1805 13.3449V13.3405C13.1183 11.0996 10.7512 3.67292 9.3876 0.705811C7.26405 2.75737 6.77338 5.67203 7.54671 8.20625ZM2.57605 12.1431C1.78494 14.0258 2.24627 16.0205 3.41427 17.4454C4.60538 18.896 5.92627 19.0249 8.56538 19.2863C7.67916 17.5645 4.20005 13.608 2.57605 12.1431Z" fill="#A6D388"/>
<path d="M19.4756 12.7805C17.1973 12.5032 15.8516 13.4472 13.424 15.3397C14.976 15.433 21.2338 16.0019 25.0329 17.1503C25.0382 17.1414 25.0462 17.1352 25.0516 17.1263C24.1422 14.5725 21.8845 13.0757 19.4756 12.7805ZM19.2053 24.8383C18.2356 22.4943 16.0542 21.1992 13.7885 21.0348C11.5662 20.8757 10.3485 21.889 8.01245 23.9077C10.472 23.6365 15.0391 23.1343 19.2053 24.8383Z" fill="#5C913B"/>
<path d="M19.9298 8.12173C22.8871 9.32973 24.4125 9.92084 26.536 9.03195C28.6863 8.12706 30.3867 6.15284 30.5734 3.5564C27.0871 4.23284 21.3369 7.24529 19.9298 8.12173Z" fill="#A6D388"/>
<path d="M4.22311 31.1653C3.704 31.0845 3.01156 30.4267 3.09156 29.9067C3.57689 26.7405 5.632 19.0907 19.3564 7.90223C19.7636 7.5689 20.224 7.31645 20.5689 7.71379C20.9164 8.11112 20.5227 8.55823 20.1262 8.90401C8.31467 19.1885 6.336 27.3342 5.88356 30.2951C5.80267 30.8151 4.74311 31.2436 4.22311 31.1653Z" fill="#A06253"/>
</svg>
