<svg width="32" height="32" viewBox="0 0 32 32" fill="none" xmlns="http://www.w3.org/2000/svg">
<path d="M9.9529 8.79766L9.2744 8.77384C9.2744 8.77384 8.60015 8.55909 9.13728 7.72922C9.6744 6.89941 10.6591 6.77491 11.1564 5.58203C11.1564 5.58203 11.2658 7.91591 9.9529 8.79766Z" fill="#BC6662"/>
<path d="M12.9634 4.80867C12.7709 4.49261 12.3819 4.37836 12.0612 4.5468C11.6272 4.77474 11.0613 5.22924 10.7945 6.10717C10.7429 6.27699 10.7175 6.45461 10.6999 6.6318C10.6577 7.05467 10.4355 8.13586 9.27441 8.77392C9.27441 8.77392 10.7727 9.85942 11.9397 8.77392C11.9397 8.77392 13.5483 7.32655 14.6522 8.06667C14.6522 8.06667 13.6113 5.87249 12.9634 4.80867Z" fill="#DB8B84"/>
<path d="M16.05 7.86059C16.05 7.86059 16.0319 6.73003 17.078 5.58222C17.078 5.58222 18.2479 4.39859 18.3221 3.11834C18.3628 2.41709 17.8527 1.80384 17.1849 1.7114C16.5855 1.6284 15.7232 1.75334 14.7135 2.61953L14.3265 2.97253C14.1654 3.11953 14.128 3.36515 14.239 3.55603C14.716 4.37622 15.9165 6.54953 16.05 7.86059Z" fill="#DB8B84"/>
<path d="M12.7205 5.66493C12.7205 5.66493 13.1461 6.18281 14.1095 5.69687C14.4141 5.54324 14.6735 5.29387 14.8073 4.96974C14.9193 4.69843 14.9646 4.34262 14.7596 3.94556C14.7596 3.94556 16.0396 5.28031 16.2565 8.28931H14.7162C14.7162 8.28931 13.2194 7.45224 12.7205 5.66493Z" fill="#F7BBB6"/>
<path d="M13.7127 5.94506C13.4422 5.996 12.907 5.95469 12.7205 5.66475C12.4447 5.23606 12.5986 4.78325 13.1407 4.33306C13.1407 4.33306 14.3629 3.38969 14.779 3.96662C14.879 4.10544 14.987 4.50087 14.936 4.82475C14.8668 5.266 14.5668 5.78419 13.7127 5.94506Z" fill="#BC6662"/>
<path d="M14.8083 9.67976C14.8083 9.67976 14.1552 10.0797 13.9043 10.9571C13.9043 10.9571 12.7035 14.9546 9.57508 17.2843C9.23351 17.5386 8.90876 17.8133 8.62783 18.1333C7.66439 19.2306 5.93801 21.9402 7.32983 25.3289C7.32983 25.3289 8.78814 29.3161 14.9985 30.2068C17.2894 30.5353 19.6443 30.0853 21.5786 28.8146C23.0396 27.855 24.4718 26.3329 25.0348 23.9413C25.2246 23.1347 25.248 22.3006 25.074 21.4904C24.839 20.3959 24.2283 18.8606 22.6666 17.5329C21.6654 16.6817 20.7222 15.7651 19.9055 14.7356C18.701 13.217 17.1985 11.1288 16.5981 9.48926L14.8083 9.67976Z" fill="url(#paint0_linear_16_3939)"/>
<path d="M22.6667 17.5329C21.6656 16.6817 20.7224 15.7651 19.9057 14.7355C19.7157 14.4961 19.5181 14.2414 19.3181 13.9775C19.6892 15.4149 19.9874 17.0962 20.0084 18.8379C20.0746 24.3157 15.7092 28.5775 10.646 28.7825C11.7376 29.406 13.158 29.9427 14.9987 30.2067C17.2896 30.5353 19.6444 30.0852 21.5788 28.8146C23.0397 27.855 24.472 26.3329 25.0349 23.9412C25.2247 23.1347 25.2482 22.3005 25.0742 21.4904C24.8392 20.396 24.2284 18.8606 22.6667 17.5329Z" fill="#DB8B84"/>
<path d="M15.3447 8.3811C15.3447 8.3811 14.8953 10.2847 14.5327 11.2C14.498 11.2875 14.4811 11.3812 14.4916 11.4754C14.4923 11.4814 14.4931 11.4876 14.494 11.4939C14.5756 12.1082 15.4424 12.081 15.5073 11.4638C15.5222 11.3213 15.5278 11.1513 15.5171 10.9497C15.5171 10.9497 15.2306 9.35917 15.3447 8.3811Z" fill="#DB8B84"/>
<path d="M15.7469 9.46997C15.7469 9.46997 16.9411 12.4282 15.5797 15.7657C15.4808 16.0083 15.6335 16.2798 15.8925 16.3193C16.0912 16.3496 16.2815 16.2314 16.341 16.0393C16.647 15.0503 17.432 12.0341 16.5307 9.52278L15.7469 9.46997Z" fill="#A0376F"/>
<path d="M13.9044 8.4813C13.9044 8.7278 14.0882 8.93561 14.3329 8.96568L16.3897 9.2183C16.6807 9.25399 16.9373 9.02699 16.9373 8.73393V8.70161C16.9373 8.45224 16.7492 8.24293 16.5012 8.21636L14.4444 7.99599C14.156 7.96511 13.9044 8.19124 13.9044 8.4813Z" fill="#C14C82"/>
<path d="M15.7729 9.82437C15.7729 9.82437 18.1678 12.7052 16.7641 20.5086C16.7171 20.7701 16.8864 21.0217 17.1474 21.0719C17.4093 21.1224 17.662 20.9522 17.7127 20.6902C18.0393 19.0016 18.9449 13.1716 16.6936 9.67993L15.7729 9.82437Z" fill="#C14C82"/>
<path d="M13.9044 9.37555V9.42618C13.9044 9.66261 14.0857 9.85961 14.3213 9.87924L16.4449 10.0562C16.7099 10.0783 16.9373 9.86911 16.9373 9.60311C16.9373 9.37074 16.7621 9.1758 16.531 9.15111L14.4075 8.92355C14.1388 8.89468 13.9044 9.1053 13.9044 9.37555Z" fill="#A0376F"/>
<defs>
<linearGradient id="paint0_linear_16_3939" x1="15.1226" y1="15.472" x2="18.9205" y2="46.8394" gradientUnits="userSpaceOnUse">
<stop offset="0.0103" stop-color="#F7BBB6"/>
<stop offset="1" stop-color="#DB8B84"/>
</linearGradient>
</defs>
</svg>
