<svg width="32" height="32" viewBox="0 0 32 32" fill="none" xmlns="http://www.w3.org/2000/svg">
<g clip-path="url(#clip0_5_702)">
<path d="M8.12118 21.0114L10.9816 23.8718L16.3248 18.5286L13.4644 15.6682L8.12118 21.0114Z" fill="#636D77"/>
<path d="M12.558 23.8717C12.558 23.8717 12.5586 23.8715 12.5588 23.8713C12.5747 23.8626 12.5903 23.8541 12.6057 23.8458C12.7362 23.7676 13.0658 23.5149 12.6773 23.1259L9.34215 19.7908L0.715918 28.417C-0.653392 29.7864 0.447919 30.5314 0.615731 30.6328L2.26366 31.5918C4.40254 32.835 5.80503 30.9096 6.24266 30.1721C6.2906 30.082 6.33922 29.9936 6.38822 29.906C6.38872 29.9048 6.38922 29.9041 6.38922 29.9041L6.38928 29.9041C8.3194 26.4593 11.3134 24.553 12.558 23.8717Z" fill="#774633"/>
<path d="M3.19104 29.641C3.05629 29.641 2.92167 29.5896 2.81892 29.4869C2.61342 29.2812 2.61342 28.9481 2.81892 28.7425L8.63841 22.9231C8.84391 22.7177 9.17716 22.7177 9.38266 22.9231C9.58816 23.1287 9.58816 23.4619 9.38266 23.6674L3.56317 29.4869C3.46042 29.5895 3.32567 29.641 3.19104 29.641Z" fill="#5B3327"/>
<path d="M29.8426 0.187601C29.7142 0.0654138 29.3387 -0.205773 28.8595 0.273476L11.2861 17.8468L15.5289 22.0896C16.345 22.9059 17.6686 22.9059 18.4848 22.0896L29.7317 10.8427C32.6679 7.90665 32.7046 3.16935 29.8426 0.187601Z" fill="#D6E0E0"/>
<g opacity="0.15">
<path d="M1.59304 29.1539L8.99878 21.7482L8.99872 21.7481L14.342 16.4048L14.3421 16.4048L29.7365 1.01029C29.959 0.787787 30.1591 0.727225 30.3225 0.738163C30.1727 0.549038 30.013 0.365163 29.8426 0.187601C29.7142 0.0654138 29.3387 -0.205773 28.8595 0.273476L13.465 15.668L13.4649 15.6679L8.12159 21.0113L8.12165 21.0114L0.715918 28.4171C-0.653392 29.7865 0.447919 30.5315 0.615731 30.6329L1.02211 30.8694C0.834293 30.4977 0.822231 29.9247 1.59304 29.1539Z" fill="#020202"/>
</g>
<path d="M31.9546 5.14233L28.8831 8.2137L27.6551 9.4417L15.2681 21.8288L15.5289 22.0896C16.3449 22.9058 17.6686 22.9058 18.4847 22.0896L29.7317 10.8426C31.2989 9.27545 32.0393 7.19508 31.9546 5.14233Z" fill="#EBEDED"/>
</g>
<defs>
<clipPath id="clip0_5_702">
<rect width="32" height="32" fill="white"/>
</clipPath>
</defs>
</svg>
