<svg width="32" height="32" viewBox="0 0 32 32" fill="none" xmlns="http://www.w3.org/2000/svg">
<path d="M24.8198 16.3635C24.8198 16.3635 23.5914 15.7427 22.172 19.7029L24.6124 22.2289C24.6124 22.2289 26.3397 18.3909 24.8198 16.3635Z" fill="#375DAB"/>
<path d="M15.0451 11.7432V14.3803C15.0451 14.9874 14.8613 15.5786 14.5163 16.0781C13.8784 17.002 12.7673 18.5357 11.7723 19.5307C11.7723 19.5307 15.5318 22.2306 19.7698 23.6319L22.5041 19.5649C22.5041 19.5649 20.27 18.7787 20.413 16.5914L15.0451 11.7432Z" fill="url(#paint0_linear_10_3258)"/>
<path d="M20.4129 16.5914L15.045 11.7432V14.3803C15.045 14.4155 15.0423 14.4506 15.041 14.4858L21.4259 21.1685L22.504 19.5649C22.504 19.5649 20.27 18.7787 20.4129 16.5914Z" fill="#E8897B"/>
<path d="M11.7722 19.5307C11.7722 19.5307 15.5318 22.2307 19.7698 23.632L22.504 19.5649C22.504 19.5649 21.7852 19.3114 21.189 18.6931C21.0609 18.9888 20.8753 19.2269 20.6772 19.4138C20.2413 19.825 19.6606 20.0439 19.0632 20.0905C16.0083 20.329 13.7832 18.3442 13.2487 17.8157C12.7747 18.4266 12.2597 19.0433 11.7722 19.5307Z" fill="#375DAB"/>
<path d="M8.66425 22.2152L12.7429 18.4482C12.7429 18.4482 15.9551 21.3116 19.1636 22.4906C19.3668 22.5652 19.5954 22.5027 19.7374 22.3394C20.1883 21.8208 21.1439 20.6296 21.4787 19.4966L22.504 19.565C22.504 19.565 23.5572 20.7531 24.4873 21.5213C24.7282 21.7202 24.9046 21.9844 24.9836 22.2867C25.3677 23.7569 25.998 28.1805 21.0361 31.6746C20.8771 31.7866 20.6859 31.8439 20.4913 31.8436C19.4052 31.842 15.6951 31.5637 12.6489 28.0752C12.6489 28.0752 11.0519 26.3137 9.19807 25.4902C8.54163 25.1985 8.09738 24.5716 8.03263 23.8562C7.977 23.2407 8.21038 22.6344 8.66425 22.2152Z" fill="white"/>
<path d="M24.4874 21.5211C23.5572 20.753 22.5041 19.5648 22.5041 19.5648L21.4805 19.4966L21.4779 19.499C21.153 20.5957 20.2488 21.7445 19.7828 22.2865C20.2715 29.3694 15.0582 28.9002 12.9807 28.4383C15.9592 31.5822 19.4445 31.8418 20.4915 31.8434C20.686 31.8438 20.8772 31.7865 21.0363 31.6745C25.9982 28.1803 25.3678 23.7567 24.9837 22.2865C24.9047 21.9843 24.7282 21.72 24.4874 21.5211Z" fill="#CDE0FF"/>
<path d="M24.9837 22.2866C24.9047 21.9844 24.7283 21.7202 24.4875 21.5213C23.5573 20.7531 22.5042 19.565 22.5042 19.565L21.4789 19.4966C21.1441 20.6296 20.1885 21.8208 19.7376 22.3393C19.6712 22.4158 19.5855 22.469 19.4927 22.4976C20.8152 26.4634 20.7181 30.5822 20.6501 31.8299C20.7884 31.8073 20.921 31.7558 21.0364 31.6745C25.9982 28.1805 25.3679 23.7568 24.9837 22.2866Z" fill="#AFC8FF"/>
<path d="M11.1841 18.1049L12.4422 17.3909C12.7663 17.2071 13.1753 17.2763 13.4169 17.5599C13.8142 18.0264 14.3956 18.799 14.7776 19.707C15.0092 20.2577 14.8062 20.895 14.2932 21.201C13.8588 21.4601 13.3091 21.416 12.9202 21.0925C12.4022 20.6616 11.6621 20.014 11.0044 19.3201C10.6557 18.9522 10.7434 18.3551 11.1841 18.1049Z" fill="url(#paint1_linear_10_3258)"/>
<path d="M21.2674 18.6794L21.3226 20.8321C21.3319 21.1972 21.6084 21.4998 21.9712 21.542C22.2993 21.5801 22.6135 21.3956 22.736 21.0888C22.8634 20.7697 23.0079 20.3382 23.0704 19.8999C23.1001 19.6923 23.0217 19.4842 22.8677 19.3417C22.6212 19.114 22.1918 18.7557 21.6406 18.4492C21.4708 18.3547 21.2625 18.4852 21.2674 18.6794Z" fill="url(#paint2_linear_10_3258)"/>
<path d="M7.99886 15.3515C9.34336 16.0959 12.1892 18.2093 12.2869 22.7961C12.2907 22.9758 12.2485 23.1534 12.1685 23.3143C11.7929 24.0708 10.4587 26.1515 7.03242 26.4795C6.7323 26.5082 6.43536 26.3949 6.23217 26.1722C5.76836 25.6639 4.79248 24.7097 3.56367 24.1562C3.21448 23.9988 3.00736 23.6313 3.05205 23.251C3.19692 22.0184 3.82923 19.4559 6.55805 18.2334C6.88367 18.0875 7.12811 17.8088 7.22111 17.4643C7.3308 17.0585 7.43511 16.4603 7.39298 15.7317C7.37455 15.4106 7.71748 15.1956 7.99886 15.3515Z" fill="#EEF5FF"/>
<path d="M12.1686 23.3142C12.2485 23.1533 12.2907 22.9757 12.2869 22.7961C12.1915 18.3138 9.47273 16.1943 8.0941 15.4053C9.42998 17.1586 13.0254 22.8654 5.85242 25.7803C6.00048 25.9256 6.13067 26.0608 6.23229 26.1721C6.43542 26.3948 6.73242 26.5082 7.03254 26.4794C10.4589 26.1515 11.793 24.0708 12.1686 23.3142Z" fill="#C7DAFF"/>
<path d="M5.35216 20.381C5.47004 20.1224 5.68666 19.8259 6.08472 19.6099C6.10197 19.6005 6.12029 19.5919 6.13879 19.5851C6.21972 19.555 6.4641 19.4734 6.73647 19.4724C7.02885 19.4713 7.21716 19.7842 7.07316 20.0386C6.88704 20.3674 6.51141 20.7798 5.77254 20.9068C5.4716 20.9584 5.22547 20.6589 5.35216 20.381Z" fill="white"/>
<path d="M17.5869 2.95956C17.5869 1.41143 16.332 0.156494 14.7839 0.156494C11.9089 0.156494 9.57825 2.48712 9.57825 5.36212V13.7712C9.57825 14.3837 10.0747 14.8802 10.6871 14.8802C11.2996 14.8802 11.796 14.3837 11.796 13.7712V12.4314C11.796 12.1507 12.0236 11.9231 12.3042 11.9231C12.5849 11.9231 12.8125 12.1507 12.8125 12.4314V12.9089C12.8125 13.2831 13.1159 13.5865 13.4902 13.5865C13.8644 13.5865 14.1679 13.2831 14.1679 12.9089V9.42812C14.1679 9.42812 14.0754 4.77687 17.5869 2.95956Z" fill="url(#paint3_linear_10_3258)"/>
<path d="M14.7838 0.156494C14.0227 0.156494 13.3007 0.321119 12.649 0.614619C13.9015 0.881432 15.7873 1.74943 15.1445 4.57374L15.5674 4.74274C16.053 4.04887 16.7066 3.41512 17.5869 2.95956C17.5869 1.41143 16.3319 0.156494 14.7838 0.156494Z" fill="#A03774"/>
<path d="M14.3446 11.1967C14.3446 11.1967 13.2473 10.7006 13.1338 8.78503C13.0542 7.44209 13.4646 6.10897 14.2587 5.02303C14.5789 4.58503 14.9942 4.12222 15.5229 3.7079C17.5298 2.13528 20.3453 2.07353 22.4348 3.53478C23.3529 4.17684 24.1807 5.16778 24.4366 6.69184C24.4713 6.89865 24.4872 7.10822 24.4958 7.31778C24.5238 8.00028 24.5196 9.44265 24.0348 10.0455L14.3446 11.1967Z" fill="#EEF5FF"/>
<path d="M24.0348 10.0455C24.5196 9.44267 24.5239 8.00029 24.4958 7.31779C24.4872 7.10823 24.4713 6.89867 24.4366 6.69185C24.1806 5.16779 23.3529 4.17692 22.4348 3.53479C21.2383 2.69798 19.8041 2.36304 18.4197 2.52279C19.8546 3.12679 22.1449 5.09104 16.3208 10.9619L24.0348 10.0455Z" fill="#C7DAFF"/>
<path d="M14.0366 7.49821C14.1094 7.05571 14.3636 5.94946 15.1577 5.20409C15.3591 5.01502 15.6655 4.99065 15.8942 5.14546C16.1633 5.32759 16.2343 5.69202 16.0535 5.96202C15.7166 6.46484 15.1543 7.24521 14.5773 7.7859C14.4615 7.89446 14.2843 7.90252 14.1585 7.80559C14.0641 7.73296 14.0173 7.61565 14.0366 7.49821Z" fill="white"/>
<path d="M15.0452 11.7432L15.5302 13.7572C15.6181 14.1223 15.8304 14.4461 16.1332 14.6683C16.8629 15.2037 18.3972 16.2173 20.4381 16.9575C20.6792 17.0448 20.935 17.0853 21.1915 17.0853H21.7187C22.0864 17.0853 22.4186 16.8702 22.5687 16.5344C22.8682 15.8642 23.3365 14.6086 23.5629 12.911L15.6863 11.1965L15.0452 11.7432Z" fill="url(#paint4_linear_10_3258)"/>
<path d="M16.6056 11.3967L16.4272 11.9421C16.4272 11.9421 18.712 13.4085 20.8777 14.313C21.304 14.491 21.5917 14.8989 21.5972 15.3609C21.6021 15.7769 21.5847 16.3546 21.5056 17.0855H21.7186C22.0864 17.0855 22.4186 16.8704 22.5687 16.5346C22.8682 15.8644 23.3365 14.6087 23.5628 12.9112L16.6056 11.3967Z" fill="#E8897B"/>
<path d="M15.1792 10.5402C15.8168 9.91305 18.1255 7.80043 22.0581 5.91187C22.0581 5.91187 24.2002 8.05399 25.2845 10.1697V11.2011C25.2845 11.2011 24.2632 12.8833 22.2269 14.1792C22.2269 14.1792 18.824 13.5209 15.2561 11.2469C15.1579 11.1842 15.087 11.0852 15.0588 10.9722C15.0198 10.8166 15.0648 10.6526 15.1792 10.5402Z" fill="#EEF5FF"/>
<path d="M18.5067 12.9567C20.6442 13.8721 22.2269 14.1792 22.2269 14.1792C24.2632 12.8833 25.2846 11.2011 25.2846 11.2011V10.1697C24.4003 8.44436 22.8134 6.70229 22.2577 6.11792C22.2976 7.65398 22.0453 11.6664 18.5067 12.9567Z" fill="#C7DAFF"/>
<path d="M25.2847 11.2011V10.1697C24.2004 8.05399 22.0582 5.91187 22.0582 5.91187C22.0582 5.91187 22.6337 9.11762 22.227 14.1792C24.2633 12.8833 25.2847 11.2011 25.2847 11.2011Z" fill="#819FEA"/>
<path d="M20.269 8.69663C20.269 8.69663 20.6277 8.38257 21.2328 8.0022C21.2328 8.0022 21.4435 10.5436 21.2711 12.2106L20.3074 11.6805L20.269 8.69663Z" fill="#375DAB"/>
<path d="M18.8684 9.64795L18.9806 10.9634L18.0972 10.457C18.0972 10.457 18.6336 9.92651 18.8684 9.64795Z" fill="#375DAB"/>
<path d="M23.1005 8.39111C23.1005 8.39111 23.2271 10.1839 23.1215 12.1386L23.7338 11.4355L23.7529 9.11449L23.1005 8.39111Z" fill="#375DAB"/>
<path d="M24.6124 10.2206C24.5284 10.1229 24.4263 10.0082 24.3347 9.9165V10.9314L24.6124 10.6169V10.2206Z" fill="#375DAB"/>
<path d="M15.0451 12.0573C15.6493 12.0573 16.139 11.5675 16.139 10.9633C16.139 10.3592 15.6493 9.86938 15.0451 9.86938C14.4409 9.86938 13.9512 10.3592 13.9512 10.9633C13.9512 11.5675 14.4409 12.0573 15.0451 12.0573Z" fill="#C7DAFF"/>
<path d="M24.8199 16.3635C24.8199 16.3635 25.8744 18.3384 24.4995 21.5441C24.3469 21.8999 24.3956 22.3098 24.6409 22.6095C24.9843 23.0289 25.509 23.6277 26.0519 24.0898C26.5453 24.5097 27.2282 24.6227 27.8322 24.3883C28.0921 24.2875 28.3808 24.1497 28.6663 23.9625C28.9356 23.7861 29.0299 23.4358 28.8886 23.1466C28.5406 22.4344 27.7236 21.037 26.1419 19.624C26.0528 19.5445 25.9974 19.4336 25.9921 19.3144C25.9655 18.7285 25.8039 16.9003 24.8199 16.3635Z" fill="#819FEA"/>
<path d="M11.6588 27.1265C12.7598 25.8045 14.8124 23.4536 17.0294 21.4876C16.5836 21.2377 16.1531 20.974 15.7483 20.7102C15.0637 22.2373 13.5706 24.2966 10.3151 26.1068C10.8243 26.4381 11.2843 26.8015 11.6588 27.1265Z" fill="#CDE0FF"/>
<path d="M18.2464 22.11C18.0348 22.0129 17.8248 21.9101 17.6168 21.8032C16.5303 23.0688 14.0435 25.9444 12.3372 27.7542C12.5352 27.9502 12.649 28.075 12.649 28.075C12.6783 28.1086 12.708 28.1398 12.7374 28.1727C13.9018 26.7375 16.2812 23.8929 18.2464 22.11Z" fill="#CDE0FF"/>
<defs>
<linearGradient id="paint0_linear_10_3258" x1="17.1403" y1="19.3887" x2="17.2656" y2="9.696" gradientUnits="userSpaceOnUse">
<stop offset="0.0051" stop-color="#FFC3B0"/>
<stop offset="1" stop-color="#E8897B"/>
</linearGradient>
<linearGradient id="paint1_linear_10_3258" x1="12.7732" y1="19.2519" x2="9.60877" y2="14.2639" gradientUnits="userSpaceOnUse">
<stop stop-color="#CC5697"/>
<stop offset="1" stop-color="#8E3979"/>
</linearGradient>
<linearGradient id="paint2_linear_10_3258" x1="21.7724" y1="20.6706" x2="22.8987" y2="16.9163" gradientUnits="userSpaceOnUse">
<stop stop-color="#CC5697"/>
<stop offset="1" stop-color="#8E3979"/>
</linearGradient>
<linearGradient id="paint3_linear_10_3258" x1="13.5825" y1="7.47586" x2="13.5825" y2="25.7207" gradientUnits="userSpaceOnUse">
<stop stop-color="#CC5697"/>
<stop offset="1" stop-color="#8E3979"/>
</linearGradient>
<linearGradient id="paint4_linear_10_3258" x1="21.0099" y1="15.6725" x2="15.2862" y2="6.85716" gradientUnits="userSpaceOnUse">
<stop offset="0.0051" stop-color="#FFC3B0"/>
<stop offset="1" stop-color="#E8897B"/>
</linearGradient>
</defs>
</svg>
