<svg width="32" height="32" viewBox="0 0 32 32" fill="none" xmlns="http://www.w3.org/2000/svg">
<g clip-path="url(#clip0_5_615)">
<path d="M29.2499 9.36487L29.2394 9.31134C28.8905 7.56841 27.9117 6.01486 26.4895 4.9483C19.5544 7.50162 18.7605 0.531668 18.7605 0.531668C16.9883 -0.177223 15.0119 -0.177223 13.2397 0.531668C13.2397 0.531668 12.4464 7.50162 5.51063 4.9483C4.08847 6.01492 3.10966 7.56847 2.76075 9.31134L2.75024 9.36487C6.41821 13.0328 6.41821 20.0509 2.75024 23.7189L2.76075 23.7724C3.10966 25.5153 4.08847 27.0689 5.51063 28.1354C5.51063 28.1354 13.2055 25.4441 16.0001 32C18.7952 25.444 26.4895 28.1354 26.4895 28.1354C27.9117 27.0688 28.8905 25.5152 29.2394 23.7724L29.2499 23.7189C25.5819 20.0509 25.5819 13.0329 29.2499 9.36487Z" fill="#D98F7A"/>
<path d="M16 28.61C15.8526 28.61 15.7118 28.5515 15.608 28.4466C15.3049 28.1408 14.9758 27.8581 14.6308 27.6058C14.3846 27.4258 14.3305 27.0808 14.5105 26.8346C14.6899 26.5883 15.0355 26.5342 15.2817 26.7142C15.5296 26.8953 15.7698 27.0902 16 27.2967C16.2302 27.0902 16.4704 26.8953 16.7183 26.7142C16.9645 26.5342 17.3101 26.5883 17.4895 26.8346C17.6695 27.0808 17.6154 27.4258 17.3692 27.6058C17.0242 27.8581 16.6951 28.1408 16.392 28.4466C16.2882 28.5515 16.1474 28.61 16 28.61Z" fill="#F0EDE0"/>
<path d="M12.4948 26.4566C12.4374 26.4566 12.3794 26.4472 12.322 26.4284C11.6529 26.2082 10.9335 26.0591 10.1833 25.9862C9.88018 25.9569 9.65766 25.6869 9.6875 25.3833C9.71676 25.0802 9.98725 24.8555 10.2904 24.8876C11.1213 24.9682 11.9212 25.1338 12.6676 25.38C12.9575 25.4755 13.1148 25.7874 13.0193 26.0773C12.9426 26.3092 12.7267 26.4566 12.4948 26.4566Z" fill="#F0EDE0"/>
<path d="M6.10253 26.2481C5.94687 26.2481 5.79671 26.1825 5.69071 26.0638C5.2695 25.5917 4.93379 25.0557 4.69363 24.4699C4.61909 24.2883 4.64673 24.0808 4.76649 23.925C5.02872 23.5828 5.27388 23.2167 5.49577 22.8363C5.64981 22.5724 5.98765 22.4841 6.251 22.6376C6.51436 22.7911 6.60323 23.1295 6.44975 23.3928C6.26095 23.7158 6.05669 24.0299 5.8408 24.3297C5.97332 24.5991 6.1323 24.8531 6.31617 25.0899C6.67446 25.022 7.03826 24.9668 7.40042 24.9249C7.70518 24.8884 7.97736 25.107 8.01213 25.4096C8.04746 25.7127 7.82995 25.9865 7.52738 26.0213C7.08847 26.0727 6.64794 26.145 6.21729 26.2361C6.17927 26.2443 6.14062 26.2481 6.10253 26.2481Z" fill="#F0EDE0"/>
<path d="M7.60279 15.6252C7.32399 15.6252 7.0844 15.4149 7.054 15.1311C6.9712 14.3433 6.81829 13.5676 6.59965 12.8262C6.51353 12.5336 6.68083 12.2266 6.97339 12.1405C7.26545 12.0533 7.57296 12.2211 7.65908 12.5137C7.89648 13.3197 8.06265 14.1611 8.15264 15.0152C8.1841 15.3182 7.9644 15.5904 7.66126 15.6224C7.64144 15.6241 7.62211 15.6252 7.60279 15.6252ZM7.13017 20.9666C7.07827 20.9666 7.02586 20.9588 6.97339 20.9434C6.68133 20.8578 6.51403 20.5503 6.60021 20.2583C6.81885 19.5157 6.97176 18.7406 7.054 17.9528C7.08602 17.6497 7.35269 17.4311 7.66076 17.4614C7.96439 17.4934 8.18416 17.765 8.15264 18.0682C8.06265 18.9222 7.89704 19.7641 7.65964 20.5702C7.5884 20.8109 7.3687 20.9666 7.13017 20.9666Z" fill="#F0EDE0"/>
<path d="M5.97346 10.5214C5.78353 10.5214 5.5986 10.4237 5.49591 10.2476C5.27395 9.86723 5.02886 9.50062 4.76663 9.1589C4.6468 9.00324 4.61922 8.79561 4.69377 8.61343C4.92617 8.04701 5.24863 7.52636 5.65107 7.06488C5.78741 6.90972 5.99667 6.84236 6.1993 6.89264C6.63876 7.0014 7.07104 7.07814 7.48455 7.12173C7.78762 7.15375 8.00795 7.42592 7.97537 7.72899C7.94391 8.03156 7.67561 8.24738 7.3686 8.22037C7.01419 8.18284 6.64871 8.12318 6.27772 8.04369C6.11043 8.26671 5.96415 8.50355 5.841 8.75364C6.05689 9.05396 6.26115 9.3681 6.44996 9.69106C6.60343 9.95441 6.51456 10.2923 6.2512 10.4463C6.1639 10.4971 6.06784 10.5214 5.97346 10.5214Z" fill="#F0EDE0"/>
<path d="M10.5305 7.93285C10.2981 7.93285 10.0822 7.78488 10.0054 7.55192C9.91101 7.26211 10.0695 6.95073 10.3588 6.85573C11.1157 6.60838 11.8052 6.20982 12.4097 5.67097C12.6366 5.46728 12.9861 5.48767 13.1887 5.71569C13.3919 5.94315 13.372 6.29206 13.1446 6.49525C12.4263 7.13622 11.6043 7.61046 10.7022 7.90527C10.6453 7.92404 10.5873 7.93285 10.5305 7.93285Z" fill="#F0EDE0"/>
<path d="M14.615 4.12234C14.5355 4.12234 14.4549 4.10521 14.3787 4.06937C14.1032 3.93854 13.9856 3.60952 14.1165 3.33403C14.3003 2.94591 14.4582 2.53796 14.5852 2.12219C14.6465 1.92288 14.8143 1.77491 15.0197 1.73957C15.6612 1.62913 16.338 1.62913 16.9807 1.73957C17.186 1.77491 17.3538 1.92288 17.4146 2.12219C17.5421 2.53789 17.6995 2.94534 17.8834 3.33403C18.0142 3.60952 17.8966 3.93854 17.6206 4.06937C17.3456 4.20021 17.0166 4.08263 16.8857 3.80658C16.7289 3.47587 16.5898 3.13302 16.4689 2.78355C16.1586 2.75316 15.8417 2.75316 15.5309 2.78355C15.4106 3.13359 15.2709 3.47643 15.1141 3.80658C15.0197 4.00583 14.8215 4.12234 14.615 4.12234Z" fill="#F0EDE0"/>
<path d="M21.4717 7.93411C21.4149 7.93411 21.3574 7.92529 21.3005 7.90653C20.3985 7.61228 19.5764 7.13804 18.857 6.49707C18.6296 6.29444 18.6097 5.94553 18.8123 5.71751C19.0155 5.49005 19.3639 5.47016 19.5919 5.67279C20.1964 6.21164 20.8865 6.6102 21.6428 6.85699C21.9326 6.95142 22.0911 7.26331 21.9967 7.55318C21.9206 7.78614 21.7041 7.93411 21.4717 7.93411Z" fill="#F0EDE0"/>
<path d="M26.0266 10.5212C25.9322 10.5212 25.8361 10.4969 25.7489 10.4461C25.4856 10.2921 25.3967 9.95422 25.5502 9.69087C25.739 9.36791 25.9433 9.05377 26.1591 8.75346C26.036 8.50336 25.8897 8.26596 25.7219 8.0435C25.3521 8.12299 24.9866 8.18265 24.6316 8.22018C24.3252 8.24669 24.0564 8.03137 24.0243 7.7288C23.9923 7.42573 24.212 7.15356 24.5157 7.12154C24.9298 7.07795 25.3621 7.00065 25.8004 6.89189C26.0019 6.84223 26.2128 6.90903 26.3486 7.06469C26.7516 7.52567 27.074 8.04682 27.3065 8.61324C27.381 8.79542 27.3534 9.00299 27.2336 9.15872C26.9714 9.50043 26.7263 9.86704 26.5044 10.2474C26.4015 10.4235 26.2165 10.5212 26.0266 10.5212Z" fill="#F0EDE0"/>
<path d="M24.3974 15.6253C24.3781 15.6253 24.3587 15.6242 24.3394 15.6226C24.0358 15.5906 23.816 15.319 23.8475 15.0158C23.9375 14.1618 24.1031 13.3199 24.3405 12.5138C24.4272 12.2212 24.7359 12.0544 25.0268 12.1406C25.3189 12.2262 25.4862 12.5331 25.4 12.8257C25.1813 13.5677 25.0284 14.3434 24.9462 15.1307C24.9158 15.4145 24.6762 15.6253 24.3974 15.6253ZM24.8705 20.9661C24.632 20.9661 24.4117 20.8105 24.341 20.5703C24.1036 19.7643 23.9375 18.9229 23.8475 18.0688C23.816 17.7652 24.0357 17.4936 24.3389 17.4616C24.6442 17.4307 24.9141 17.6498 24.9461 17.953C25.0289 18.7408 25.1818 19.5165 25.4005 20.2579C25.4866 20.5505 25.3193 20.8574 25.0267 20.9436C24.9748 20.959 24.9224 20.9661 24.8705 20.9661Z" fill="#F0EDE0"/>
<path d="M25.8974 26.2482C25.8593 26.2482 25.8207 26.2443 25.7826 26.2361C25.352 26.145 24.9114 26.0727 24.4725 26.0213C24.17 25.9865 23.9524 25.7127 23.9878 25.4096C24.0225 25.1065 24.2986 24.8879 24.5995 24.9249C24.9616 24.9668 25.3254 25.022 25.6837 25.0899C25.8676 24.8531 26.0266 24.5991 26.1591 24.3297C25.9432 24.0299 25.739 23.7158 25.5501 23.3928C25.3967 23.1295 25.4855 22.7911 25.7489 22.6376C26.0123 22.4841 26.3501 22.5724 26.5041 22.8363C26.7261 23.2167 26.9712 23.5828 27.2334 23.925C27.3532 24.0807 27.3808 24.2883 27.3063 24.4699C27.0661 25.0557 26.7305 25.5918 26.3092 26.0638C26.2033 26.1825 26.0531 26.2482 25.8974 26.2482Z" fill="#F0EDE0"/>
<path d="M19.5069 26.4561C19.275 26.4561 19.0591 26.3087 18.9824 26.0768C18.8869 25.787 19.0442 25.4751 19.3341 25.3796C20.0805 25.1334 20.8804 24.9677 21.7118 24.8871C22.016 24.8562 22.2854 25.0798 22.3141 25.3829C22.344 25.6865 22.122 25.9565 21.8184 25.9858C21.0681 26.0586 20.3488 26.2077 19.6796 26.428C19.6222 26.4468 19.5643 26.4561 19.5069 26.4561Z" fill="#F0EDE0"/>
</g>
<defs>
<clipPath id="clip0_5_615">
<rect width="32" height="32" fill="white"/>
</clipPath>
</defs>
</svg>
