<svg width="32" height="32" viewBox="0 0 32 32" fill="none" xmlns="http://www.w3.org/2000/svg">
<path d="M15.04 13.2788C15.04 13.8089 15.4698 14.2388 16 14.2388C16.5301 14.2388 16.96 13.8089 16.96 13.2788H15.04ZM16.96 5.76005C16.96 5.22986 16.5301 4.80005 16 4.80005C15.4698 4.80005 15.04 5.22986 15.04 5.76005H16.96ZM12.5578 9.16685C13.0403 8.94713 13.2533 8.37784 13.0337 7.89532C12.8139 7.4128 12.2446 7.19977 11.7621 7.41949L12.5578 9.16685ZM7.03996 16.2048L6.07983 16.1999L6.08003 16.216L7.03996 16.2048ZM16 24.96L16.011 24C16.0037 24 15.9963 24 15.989 24L16 24.96ZM24.96 16.2048L25.9201 16.216L25.92 16.1999L24.96 16.2048ZM20.2378 7.41949C19.7552 7.19977 19.186 7.4128 18.9662 7.89532C18.7466 8.37784 18.9596 8.94713 19.4421 9.16685L20.2378 7.41949ZM16.96 13.2788V5.76005H15.04V13.2788H16.96ZM11.7621 7.41949C8.31795 8.98784 6.09966 12.4154 6.07983 16.1999L7.99995 16.2098C8.01586 13.1743 9.79511 10.4249 12.5578 9.16685L11.7621 7.41949ZM6.08003 16.216C6.14313 21.6379 10.5891 25.9823 16.011 25.92L15.989 24C11.6273 24.0502 8.05066 20.5553 7.9999 16.1937L6.08003 16.216ZM15.989 25.92C21.4108 25.9823 25.8571 21.6379 25.9201 16.216L24.0001 16.1937C23.9493 20.5553 20.3727 24.0502 16.011 24L15.989 25.92ZM25.92 16.1999C25.9001 12.4154 23.682 8.98784 20.2378 7.41949L19.4421 9.16685C22.2048 10.4249 23.9841 13.1743 24 16.2098L25.92 16.1999Z" fill="#FB1616"/>
</svg>
