<svg width="32" height="32" viewBox="0 0 32 32" fill="none" xmlns="http://www.w3.org/2000/svg">
<path d="M16 1.43579H14.2715C13.9758 1.43579 13.7485 1.69754 13.7899 1.99029L14.0964 4.15798H16H17.9035L18.21 1.99029C18.2514 1.69748 18.0242 1.43579 17.7285 1.43579H16Z" fill="#BA8280"/>
<path d="M13.9041 2.79688L14.0965 4.15794H16.0001H17.9036L18.0961 2.79688H13.9041Z" fill="#965C5C"/>
<path d="M20.5458 11.3475L20.5512 11.3481C20.5482 11.3475 20.5455 11.3465 20.5425 11.3458C20.4317 11.2902 20.3198 11.2364 20.2068 11.1845C19.3018 10.769 18.5938 10.0021 18.3403 9.03902C18.3129 8.93533 18.2908 8.83621 18.2726 8.74371C18.2017 8.38114 18.1752 8.00977 18.2204 7.64314C18.4129 6.07971 19.5681 5.34033 19.5681 5.34033H15.9999H12.4317C12.4317 5.34033 13.5869 6.07971 13.7794 7.64314C13.8246 8.00977 13.7981 8.38121 13.7272 8.74371C13.7091 8.83614 13.6868 8.93527 13.6596 9.03902C13.4059 10.0021 12.698 10.769 11.793 11.1845C11.68 11.2364 11.5681 11.2902 11.4573 11.3458C11.4543 11.3465 11.4516 11.3475 11.4486 11.3481L11.4541 11.3475C7.91645 13.124 5.55976 16.9061 5.88326 21.2033C6.26714 26.3028 10.4901 30.3602 15.6002 30.5564C21.3859 30.7786 26.1461 26.1541 26.1461 20.4178C26.1462 16.4491 23.8661 13.0148 20.5458 11.3475Z" fill="url(#paint0_linear_10_3386)"/>
<path d="M19.5534 3.69067H12.2735C11.818 3.69067 11.4487 4.05992 11.4487 4.51555C11.4487 4.97111 11.818 5.34036 12.2735 5.34036H19.5534C20.0089 5.34036 20.3782 4.97111 20.3782 4.51555C20.3782 4.05992 20.0089 3.69067 19.5534 3.69067Z" fill="#FFCCE0"/>
<path d="M12.4318 5.34033C12.4318 5.34033 12.9056 5.64577 13.2971 6.27521H18.7029C19.0944 5.64577 19.5683 5.34033 19.5683 5.34033H16H12.4318Z" fill="#DB8DA5"/>
<path d="M24.0094 20.815C24.042 20.197 24.0039 19.5936 23.903 19.0117C23.6581 17.6002 22.3842 16.5985 20.9554 16.7013C18.7388 16.861 16.4385 18.1774 15.7121 18.6264C15.5377 18.7342 15.3601 18.8373 15.1749 18.9252C12.7164 20.0934 10.8108 19.8614 9.51506 19.3317C8.78181 19.0319 7.98019 19.5735 7.97925 20.3658V20.3845C7.97925 24.9921 11.8644 28.6923 16.5375 28.3877C20.5571 28.1258 23.7974 24.8375 24.0094 20.815Z" fill="#CC5697"/>
<path d="M11.6276 12.8869C11.6276 12.8869 9.38272 13.3726 8.89328 16.1947C8.84003 16.5014 9.0496 16.7959 9.35603 16.8505C9.83878 16.9365 10.6102 16.9429 11.4919 16.458C11.8877 16.2404 12.2352 15.9461 12.5375 15.6104C12.9082 15.1991 13.3602 14.5785 13.4202 13.9483C13.4793 13.325 12.9545 12.8032 12.3284 12.803C12.1187 12.803 11.8779 12.8239 11.6276 12.8869Z" fill="white"/>
<path d="M11.4359 24.0698C11.9881 24.0698 12.4358 23.6222 12.4358 23.0699C12.4358 22.5177 11.9881 22.0701 11.4359 22.0701C10.8837 22.0701 10.436 22.5177 10.436 23.0699C10.436 23.6222 10.8837 24.0698 11.4359 24.0698Z" fill="#A03774"/>
<path d="M15.2534 21.5134C15.4228 21.5134 15.5602 21.3761 15.5602 21.2067C15.5602 21.0372 15.4228 20.8999 15.2534 20.8999C15.084 20.8999 14.9467 21.0372 14.9467 21.2067C14.9467 21.3761 15.084 21.5134 15.2534 21.5134Z" fill="#A03774"/>
<path d="M17.6394 26.4787C18.5806 26.4787 19.3437 25.7156 19.3437 24.7744C19.3437 23.8331 18.5806 23.0701 17.6394 23.0701C16.6981 23.0701 15.9351 23.8331 15.9351 24.7744C15.9351 25.7156 16.6981 26.4787 17.6394 26.4787Z" fill="#A03774"/>
<path d="M20.7526 20.741C21.1855 20.741 21.5365 20.39 21.5365 19.957C21.5365 19.5241 21.1855 19.1731 20.7526 19.1731C20.3196 19.1731 19.9686 19.5241 19.9686 19.957C19.9686 20.39 20.3196 20.741 20.7526 20.741Z" fill="#A03774"/>
<defs>
<linearGradient id="paint0_linear_10_3386" x1="15.9999" y1="29.7288" x2="15.9999" y2="-0.864393" gradientUnits="userSpaceOnUse">
<stop offset="0.0103" stop-color="#FFCCE0"/>
<stop offset="1" stop-color="#FFE6FA"/>
</linearGradient>
</defs>
</svg>
