<svg width="32" height="32" viewBox="0 0 32 32" fill="none" xmlns="http://www.w3.org/2000/svg">
<path d="M16.4568 28.3869C16.4568 28.3869 16.4989 28.39 16.572 28.3917C17.3335 28.4095 18.08 28.1776 18.7065 27.7444L19.723 27.0416C20.1375 26.755 20.7255 26.8942 20.9342 27.3528C20.9373 27.3594 20.9403 27.3661 20.9433 27.3729L18.6169 28.9054L17.1659 29.1282C17.1659 29.1282 16.5055 28.7655 16.4568 28.3869Z" fill="#A06260"/>
<path d="M19.1971 29.7208C19.1971 29.7208 20.5872 28.7739 21.6824 28.189C22.2515 27.8851 22.0053 27.0039 21.3621 27.0554C21.3526 27.0562 21.3429 27.057 21.3332 27.058C21.2519 27.0661 21.1744 27.0968 21.1044 27.139L19.1158 28.3379C18.8739 28.4837 18.6176 28.6026 18.3488 28.6891C17.9366 28.8217 17.3239 28.9618 16.6846 28.9054C16.6846 28.9054 18.1988 29.6709 19.1971 29.7208Z" fill="#BA8280"/>
<path d="M14.6857 25.1988C14.4348 25.2362 14.1787 25.1558 13.9995 24.9762C13.4824 24.4576 12.2205 23.4002 10.3978 23.2366C10.3978 23.2366 9.52532 23.2106 9.18257 22.7562C9.18257 22.7562 7.18644 19.9827 7.95732 17.0041C7.99869 16.8443 8.19838 16.7878 8.31576 16.9038C8.44119 17.0277 8.60307 17.1677 8.77444 17.2634C8.96257 17.3685 9.19238 17.3591 9.37276 17.2413C9.59738 17.0945 9.95544 16.8409 10.2666 16.5323C10.7371 16.0656 10.9473 15.3776 10.7456 14.7463C10.6204 14.3543 10.3393 13.9616 9.73901 13.7882C9.60494 13.7495 9.52813 13.6141 9.57107 13.4813C9.72688 12.9998 10.1135 11.9382 10.6759 11.2838C10.7638 11.1815 10.8882 11.1188 11.023 11.1139C11.6129 11.0925 13.4441 10.907 14.5004 9.46365C14.6506 9.2584 14.7707 9.02996 14.8354 8.78396C14.9684 8.27778 14.9584 7.47153 13.7006 7.18984C13.7006 7.18984 12.1998 6.8494 12.9528 5.19565C12.9528 5.19565 13.3319 4.24777 14.2556 3.67465C14.4004 3.58477 14.5809 3.72684 14.5253 3.88796C14.4054 4.2359 14.2744 4.7299 14.3188 5.13477C14.3545 5.46146 14.5998 5.72602 14.9206 5.79715C15.5651 5.94002 17.3828 6.53377 17.3374 8.68246C17.3334 8.87234 17.2083 9.03634 17.0313 9.10521C16.5357 9.29815 15.6205 9.95565 16.2281 12.129C16.2281 12.129 16.6096 13.3955 17.6929 13.4412C18.3846 13.4704 18.4753 12.9065 18.4783 12.6292C18.4792 12.5526 18.5488 12.4963 18.6229 12.5155C19.2491 12.6775 21.6048 13.4453 21.7522 15.8522C21.766 16.077 21.6863 16.2998 21.5353 16.467C20.9873 17.0736 19.7684 18.7246 21.0734 20.2558C21.2621 20.4771 21.3004 20.7892 21.1866 21.0567C20.7618 22.056 19.4674 24.2663 16.144 24.9815L14.6857 25.1988Z" fill="url(#paint0_linear_14_1163)"/>
<path d="M18.9735 11.0593C18.9735 11.3965 18.772 11.6699 18.4348 11.6699C18.0976 11.6699 17.8242 11.3965 17.8242 11.0593C17.8242 10.7221 18.0975 10.4487 18.4348 10.4487C18.772 10.4487 18.9735 10.7221 18.9735 11.0593Z" fill="#FF697B"/>
<path d="M16.0991 0.780409C15.9872 0.666284 15.8077 0.644221 15.6785 0.738346C15.5126 0.859284 15.3129 1.13385 15.2855 1.75678C15.2855 1.75678 15.3028 2.02135 15.2416 2.27541C15.2052 2.42653 15.3432 2.55928 15.4921 2.51435C15.5138 2.50778 15.5359 2.5006 15.5584 2.49272C16.1093 2.30091 16.4403 1.7071 16.2941 1.14241C16.2599 1.01047 16.1996 0.883096 16.0991 0.780409Z" fill="#FF94A6"/>
<path d="M14.3054 13.6663C14.0874 13.9657 13.835 14.3603 13.7044 14.7327C13.6642 14.8474 13.6837 14.9747 13.7565 15.0721C13.9756 15.3648 14.3186 16.1344 12.8825 17.0588C12.8825 17.0588 11.5299 17.7563 11.5088 19.1723C11.5088 19.1723 11.5319 21.7552 13.9944 22.3649C14.372 22.4584 14.7635 22.4803 15.1521 22.46C15.516 22.441 16.0063 22.3909 16.4305 22.2623C16.6134 22.2069 16.7703 22.0908 16.8884 21.9406C17.0947 21.6781 17.4784 21.2283 17.9 20.9266C18.0997 20.7836 18.2471 20.5815 18.3045 20.3426C18.4376 19.7888 18.535 18.7669 17.8311 17.8173C17.7683 17.7326 17.6386 17.733 17.5842 17.8234C17.4508 18.0449 17.1705 18.3693 16.6942 18.3089C16.2492 18.2524 15.8782 17.7987 15.8755 17.3501C15.8738 17.0503 15.9805 16.7511 16.3942 16.7011C16.5245 16.6854 16.5983 16.5415 16.5389 16.4244C16.3892 16.1297 16.0438 15.6664 15.283 15.3858C14.9072 15.2471 14.6093 14.9407 14.532 14.5476C14.4911 14.3394 14.4826 14.0807 14.5384 13.7642C14.5622 13.6286 14.3864 13.555 14.3054 13.6663Z" fill="#FBB04D"/>
<path d="M14.0833 12.2432C14.0833 12.4666 13.8143 12.7269 13.5908 12.7269C13.3674 12.7269 13.1863 12.5458 13.1863 12.3223C13.1863 12.0989 13.5081 11.7595 13.7315 11.7595C13.955 11.7595 14.0833 12.0198 14.0833 12.2432Z" fill="#FBB04D"/>
<path d="M21.3768 27.0544C21.3673 27.055 21.3528 27.0562 21.3411 27.0573C21.2641 27.0645 21.1815 27.0926 21.1116 27.1348L19.1271 28.3379C18.8852 28.4837 18.6289 28.6026 18.3601 28.6891C17.981 28.8111 17.4314 28.9376 16.8481 28.9133L17.177 29.1281C17.1771 29.1281 17.1773 29.1283 17.1775 29.1283C17.1803 29.129 18.0804 29.3543 19.3543 28.6168L21.1866 27.4392C21.3765 27.3172 21.5915 27.2339 21.8163 27.2139C21.8163 27.2139 21.671 27.0373 21.3768 27.0544Z" fill="#DDAEA9"/>
<path d="M8.06848 28.1086C8.06848 28.7636 8.06848 29.9888 8.06848 30.6485C8.06848 30.9207 8.26036 31.1544 8.52779 31.2049C9.30392 31.3515 10.5772 31.5091 12.5863 30.6527C12.5863 30.6527 14.4435 29.7365 16.8184 30.4222C16.8184 30.4222 18.4122 30.8969 19.8172 30.9784C20.1458 30.9976 20.4673 30.8875 20.7149 30.6704C21.2789 30.1759 22.4775 29.2122 23.8342 28.6477C24.3621 28.4279 24.3435 27.6661 23.805 27.4736C23.761 27.4579 23.7153 27.4439 23.6679 27.4319C23.5521 27.4028 23.4313 27.4057 23.3178 27.4425C22.919 27.5719 21.8024 27.9664 20.88 28.5962C20.2834 29.0036 19.5584 29.1749 18.8459 29.0551C17.9639 28.9066 16.7981 28.5946 15.8685 27.9397C15.3504 27.5748 15.1192 26.8948 15.3862 26.3201C15.4369 26.2112 15.5028 26.1094 15.5885 26.0237C15.5885 26.0237 17.2863 24.4258 18.2419 23.5016C18.4699 23.2811 18.364 22.8982 18.056 22.8223C17.634 22.7184 17.0613 22.6952 16.5382 23.0688L14.8545 24.542C14.6832 24.6919 14.4629 24.7716 14.2352 24.7642C13.4257 24.7376 11.3127 24.9242 9.82742 27.3522C9.72079 27.5264 9.53823 27.6389 9.33586 27.6668C9.11511 27.6972 8.80942 27.7251 8.48442 27.7113C8.25786 27.7017 8.06848 27.8817 8.06848 28.1086Z" fill="#FFD3CD"/>
<path d="M16.6203 28.7002C17.0546 28.6897 17.9893 28.6058 18.6267 28.1073L19.812 27.3294C20.0217 27.1918 20.2509 27.0826 20.4954 27.0264C20.533 27.0178 20.5761 27.0083 20.6151 27.0021C20.3492 26.8504 19.9969 26.8524 19.7232 27.0417L18.7062 27.7449C18.0798 28.1781 17.3333 28.4097 16.572 28.3919C16.4989 28.3902 16.4569 28.3872 16.4569 28.3872C16.4707 28.4957 16.5357 28.6025 16.6203 28.7002Z" fill="#BA8280"/>
<path d="M16.8184 30.4223C16.8184 30.4223 18.4122 30.897 19.8172 30.9785C20.1458 30.9977 20.4673 30.8876 20.7149 30.6705C21.2789 30.176 22.4775 29.2124 23.8342 28.6478C24.3621 28.428 24.3435 27.6662 23.805 27.4737C23.761 27.458 23.7153 27.444 23.6679 27.432C23.5521 27.4029 23.4313 27.4059 23.3178 27.4426C22.919 27.572 21.8024 27.9665 20.88 28.5963C20.2834 29.0037 19.5584 29.175 18.8459 29.0552C17.9639 28.9067 16.7981 28.5947 15.8685 27.9399C15.3504 27.5749 15.1192 26.8949 15.3862 26.3202C15.4369 26.2114 15.5028 26.1095 15.5885 26.0238C15.5885 26.0238 17.2863 24.4259 18.2419 23.5017C18.3654 23.3823 18.3882 23.2162 18.3367 23.0759C18.1753 23.0637 18.0196 23.0685 17.8755 23.0857C17.4145 23.1409 16.986 23.3509 16.6452 23.6663L14.87 25.3087C14.7012 25.4649 14.4852 25.5624 14.2562 25.5828C12.0437 25.7804 10.9259 27.1823 10.4339 28.0694C10.1847 28.5188 9.71667 28.8011 9.2028 28.8011H8.06836C8.06836 29.432 8.06836 30.1815 8.06836 30.6485C8.06836 30.9207 8.26023 31.1544 8.52767 31.2048C9.3038 31.3515 10.5771 31.509 12.5862 30.6527C12.5863 30.6528 14.4435 29.7365 16.8184 30.4223Z" fill="#DDAEA9"/>
<path d="M24.1211 27.7227C24.0519 27.6137 23.9466 27.5243 23.8051 27.4737C23.7611 27.458 23.7153 27.444 23.6679 27.432C23.5521 27.4029 23.4313 27.4058 23.3178 27.4426C22.9191 27.572 21.8024 27.9665 20.8801 28.5963C20.2834 29.0037 19.5584 29.175 18.8459 29.0552C18.0801 28.9262 17.1007 28.6733 16.2473 28.1805C17.2523 29.0891 18.6579 29.4775 19.4374 29.6305C19.7855 29.6987 20.1449 29.614 20.4334 29.4075C22.1358 28.1891 23.5781 27.8236 24.1211 27.7227Z" fill="#FFD3CD"/>
<path d="M15.7893 21.2443C15.4955 21.525 15.1357 21.5675 14.6722 21.5395C14.1889 21.5102 13.5377 21.178 13.3638 20.4611C13.3638 20.4611 13.2602 20.0093 13.4098 19.559C13.519 19.2304 13.788 18.9852 14.1063 18.8488C14.2788 18.7749 14.5187 18.6159 14.5762 18.2923C14.5958 18.1825 14.7249 18.1287 14.8209 18.1855C14.9975 18.29 15.2272 18.4654 15.3371 18.715C15.3371 18.715 15.4685 19.1079 15.7612 19.3485C16.0322 19.5713 16.2166 19.8886 16.2047 20.2392C16.1933 20.5679 16.0983 20.9488 15.7893 21.2443Z" fill="white"/>
<path d="M13.7721 18.1645C13.8899 18.1645 13.9855 18.069 13.9855 17.9512C13.9855 17.8333 13.8899 17.7378 13.7721 17.7378C13.6542 17.7378 13.5587 17.8333 13.5587 17.9512C13.5587 18.069 13.6542 18.1645 13.7721 18.1645Z" fill="white"/>
<path d="M17.5108 16.4151C17.6437 16.4151 17.7514 16.3074 17.7514 16.1745C17.7514 16.0416 17.6437 15.9338 17.5108 15.9338C17.3779 15.9338 17.2701 16.0416 17.2701 16.1745C17.2701 16.3074 17.3779 16.4151 17.5108 16.4151Z" fill="#FBB04D"/>
<defs>
<linearGradient id="paint0_linear_14_1163" x1="14.767" y1="23.6852" x2="14.767" y2="-1.31277" gradientUnits="userSpaceOnUse">
<stop offset="0.0154" stop-color="#E54254"/>
<stop offset="1" stop-color="#FF94A6"/>
</linearGradient>
</defs>
</svg>
