<svg width="32" height="32" viewBox="0 0 32 32" fill="none" xmlns="http://www.w3.org/2000/svg">
<path d="M13.1369 8.05151H8.91198C8.48423 8.05151 8.26179 8.59358 8.55136 8.93014C8.84998 9.2772 9.15761 9.72826 9.38098 10.2853C9.54717 10.6995 9.80661 11.0691 10.1657 11.3053C10.6993 11.6561 11.6 11.9958 12.9907 11.8083L13.1369 8.05151Z" fill="#BFC29F"/>
<path d="M13.0999 9.00244H11.4196C11.2192 9.00244 11.1061 9.26382 11.2277 9.44582C11.5156 9.87682 12.0826 10.4811 13.0384 10.5841L13.0999 9.00244Z" fill="#9B9B6E"/>
<path d="M12.8495 13.3433C12.8495 13.3433 13.0946 16.2463 9.60572 17.7998C9.60572 17.7998 7.15722 18.8949 6.22872 20.9806C6.08365 21.3066 6.17853 21.6931 6.45578 21.9176C7.2159 22.5329 8.74197 24.0118 9.32928 26.3428C9.4299 26.7424 9.62447 27.1116 9.90028 27.4176C10.8152 28.4329 13.1409 30.2731 17.5148 29.4395C18.8451 29.1859 20.0836 28.5567 21.0554 27.6135C22.1837 26.5185 23.4742 24.7532 23.7725 22.2424C23.8146 21.8885 23.6955 21.5348 23.4553 21.2714C22.6913 20.4332 20.846 18.5319 19.0192 17.582L12.8495 13.3433Z" fill="url(#paint0_linear_10_3262)"/>
<path d="M11.7374 16.3711L11.5115 17.2138C15.2922 20.1138 16.8833 26.7353 17.3943 29.4604C17.4347 29.4531 17.474 29.4472 17.5148 29.4394C18.1198 29.3241 18.704 29.1273 19.2546 28.8624C17.902 19.7933 11.7374 16.3711 11.7374 16.3711Z" fill="#9B9B6E"/>
<path d="M22.1591 20.6942L23.5534 21.3951C23.5232 21.3522 23.4911 21.3105 23.4554 21.2714C23.1738 20.9624 22.7445 20.5086 22.2241 20.0116C22.224 20.0115 22.2239 20.0114 22.2237 20.0113C22.009 19.8063 21.7782 19.5943 21.5362 19.3816C20.7732 18.7111 19.8947 18.0373 19.0193 17.582L12.8496 13.3433C12.8496 13.3433 12.8496 13.3434 12.8494 13.3438C12.5626 14.1209 12.9978 15.3306 13.6479 16.3711C14.1082 17.108 15.1417 17.939 15.9547 18.2455L21.2882 20.2564L20.3777 23.4676L21.0569 27.6121C21.6111 27.0741 22.2039 26.3734 22.6993 25.5031C22.4576 24.4096 21.6459 23.2691 21.6459 23.2691C21.9275 22.3245 22.0782 21.3956 22.1591 20.6942Z" fill="#9B9B6E"/>
<path d="M22.8282 13.054C22.8423 12.8977 22.8505 12.7399 22.8505 12.58V6.80947C22.8505 3.9266 20.5135 1.5896 17.6306 1.5896C14.7478 1.5896 12.4108 3.9266 12.4108 6.80947V12.58C12.4108 15.4629 14.7478 17.7998 17.6306 17.7998H19.5138C21.586 17.7998 23.2656 16.1201 23.2656 14.048V13.7248C23.2657 13.425 23.0856 13.1682 22.8282 13.054Z" fill="url(#paint1_linear_10_3262)"/>
<path d="M15.4868 8.52173H17.3314C17.5042 8.52173 17.6309 8.68598 17.5836 8.8521C17.5018 9.13935 17.3117 9.53667 16.8738 9.7156C16.5614 9.84323 16.2009 9.81685 15.902 9.66048C15.6661 9.53704 15.3919 9.31392 15.2198 8.91273C15.1403 8.72742 15.2851 8.52173 15.4868 8.52173Z" fill="#FCFAFF"/>
<path d="M18.4753 11.0498C18.651 11.0498 18.7933 10.9074 18.7933 10.7318C18.7933 10.5562 18.651 10.4138 18.4753 10.4138C18.2997 10.4138 18.1573 10.5562 18.1573 10.7318C18.1573 10.9074 18.2997 11.0498 18.4753 11.0498Z" fill="#9B9B6E"/>
<path d="M19.5566 11.0498C19.7323 11.0498 19.8746 10.9074 19.8746 10.7318C19.8746 10.5562 19.7323 10.4138 19.5566 10.4138C19.381 10.4138 19.2386 10.5562 19.2386 10.7318C19.2386 10.9074 19.381 11.0498 19.5566 11.0498Z" fill="#9B9B6E"/>
<path d="M16.866 7.94936H15.4826C15.3597 7.94936 15.26 7.84968 15.26 7.72674V4.44299C15.26 4.28055 15.3916 4.14893 15.5541 4.14893C15.6792 4.14893 15.7903 4.22693 15.8313 4.34524C15.9574 4.70949 16.2789 5.49411 16.8356 5.94836C16.9898 6.07418 17.0886 6.25499 17.0886 6.45399V7.72668C17.0886 7.84968 16.989 7.94936 16.866 7.94936Z" fill="#C9519C"/>
<path d="M15.6258 10.3503H16.5108C16.6807 10.3503 16.8184 10.488 16.8184 10.6578C16.8184 10.7522 16.7759 10.8403 16.7019 10.8987C16.4924 11.0638 16.0555 11.4475 15.8563 11.9142C15.8159 12.0086 15.721 12.0677 15.6183 12.0677C15.4732 12.0677 15.3555 11.95 15.3555 11.8048V10.6207C15.3555 10.4714 15.4765 10.3503 15.6258 10.3503Z" fill="#C9519C"/>
<path d="M18.2025 7.55408L18.6403 7.98889C18.725 8.07308 18.8621 8.07214 18.9457 7.98683L19.3727 7.55089C19.4425 7.47958 19.3787 7.36077 19.2807 7.3797L18.9696 7.48645C18.8512 7.52708 18.7228 7.52733 18.6043 7.4872L18.2935 7.38195C18.1949 7.36289 18.1313 7.48327 18.2025 7.55408Z" fill="#9B9B6E"/>
<path d="M22.5154 8.43921H25.4924C25.7939 8.43921 25.9506 8.8709 25.7465 9.1389C25.5361 9.41533 25.3194 9.77452 25.1619 10.2181C25.0448 10.5481 24.862 10.8425 24.6089 11.0305C24.2329 11.3099 23.5983 11.5805 22.6183 11.4312L22.5154 8.43921Z" fill="#7F7D56"/>
<path d="M19.1155 17.7997H19.5139C21.586 17.7997 23.2657 16.1199 23.2657 14.0478V13.7247C23.2657 13.5245 23.1843 13.3446 23.0542 13.2124H21.3274C21.3945 14.2361 21.312 16.7184 19.1155 17.7997Z" fill="#9B9B6E"/>
<path d="M23.0543 13.2124C22.9896 13.1466 22.9138 13.0917 22.8283 13.0538C22.8424 12.8975 22.8506 12.7397 22.8506 12.5798V6.80932C22.8506 4.60451 21.4829 2.72032 19.5503 1.95532C20.1684 2.80238 21.043 4.74838 21.0423 8.97757H19.8747C19.9243 9.90945 20.575 10.1621 21.0179 10.2266C20.9841 11.1298 20.9143 12.121 20.7987 13.2123H23.0543V13.2124Z" fill="#9B9B6E"/>
<path d="M21.7076 8.52173H19.8629C19.6901 8.52173 19.5634 8.68598 19.6107 8.8521C19.6926 9.13935 19.8826 9.53667 20.3206 9.7156C20.6329 9.84323 20.9934 9.81685 21.2924 9.66048C21.5282 9.53704 21.8024 9.31392 21.9745 8.91273C22.0541 8.72742 21.9093 8.52173 21.7076 8.52173Z" fill="#FCFAFF"/>
<path d="M16.5798 13.2124C16.5798 13.2124 16.6385 12.4368 17.0793 11.7039C17.1888 11.5218 17.4514 11.5163 17.5621 11.6977C17.7775 12.0507 18.0646 12.6285 18.0745 13.2124H16.5798V13.2124Z" fill="#FCFAFF"/>
<path d="M20.502 13.2124C20.502 13.2124 20.5607 12.4368 21.0015 11.7039C21.111 11.5218 21.3736 11.5163 21.4843 11.6977C21.6996 12.0507 21.9868 12.6285 21.9966 13.2124H20.502V13.2124Z" fill="#FCFAFF"/>
<path d="M10.2411 17.4172C11.273 18.2677 13.9849 20.7682 14.971 24.2698L16.3956 23.0148C16.3956 23.0148 15.6289 19.5658 11.7374 16.3712C11.4851 16.1641 11.1239 16.152 10.8609 16.3453L10.258 16.7882C10.0482 16.9423 10.0403 17.2517 10.2411 17.4172Z" fill="#B77D85"/>
<path d="M20.65 18.5335C20.596 19.3125 20.3892 21.1365 19.6007 22.925L20.7986 23.7616C20.7986 23.7616 21.998 21.4329 21.9248 19.4345C21.9161 19.1977 21.7987 18.9781 21.6083 18.8372L20.9879 18.3781C20.853 18.2782 20.6616 18.3661 20.65 18.5335Z" fill="#B77D85"/>
<path d="M14.9711 24.2695L16.3957 23.0146C16.3957 23.0146 16.2937 22.5597 15.9797 21.8293C15.3964 22.1987 14.9007 22.666 14.5444 23.0496C14.7074 23.4413 14.8523 23.8477 14.9711 24.2695Z" fill="#9D5D65"/>
<path d="M20.0267 21.793C19.9077 22.1652 19.768 22.5456 19.6007 22.9249L20.7987 23.7615C20.7987 23.7615 21.0275 23.3175 21.279 22.6508C20.8815 22.2026 20.38 21.9363 20.0267 21.793Z" fill="#9D5D65"/>
<path d="M14.3384 30.3533C16.3219 30.5274 20.5353 30.4931 22.3015 27.3916C22.4319 27.1628 22.4821 26.8973 22.4462 26.6362C22.3687 26.0711 22.136 24.9943 21.4422 23.9327C20.1042 21.8855 17.1893 21.6967 15.4709 23.4369C14.4282 24.4928 13.3211 26.2824 13.2508 29.1503C13.2357 29.7739 13.7172 30.2988 14.3384 30.3533Z" fill="#C4D5FF"/>
<path d="M20.565 25.4L20.0424 25.7883C19.9771 25.8368 19.8851 25.7858 19.8918 25.7048L19.9827 24.5966C19.9903 24.5052 19.9458 24.4146 19.8651 24.3711C19.118 23.9674 18.1738 23.9998 17.4284 24.4884C15.3915 25.8236 15.4551 29.3392 15.5253 30.4095C17.406 30.4239 20.0292 30.0749 21.6458 28.2934C21.5504 27.0064 21.2668 26.1052 20.913 25.474C20.843 25.3492 20.6798 25.3148 20.565 25.4Z" fill="#7E9AEF"/>
<path d="M15.5515 13.3433C15.5515 13.5031 15.6811 13.6327 15.841 13.6327H23.259C23.2263 13.3733 23.0588 13.1562 22.8283 13.054H15.841C15.6811 13.054 15.5515 13.1835 15.5515 13.3433Z" fill="#9B9B6E"/>
<defs>
<linearGradient id="paint0_linear_10_3262" x1="14.5519" y1="15.9228" x2="16.2301" y2="39.0259" gradientUnits="userSpaceOnUse">
<stop stop-color="#BFC29F"/>
<stop offset="1" stop-color="#9B9B6E"/>
</linearGradient>
<linearGradient id="paint1_linear_10_3262" x1="17.242" y1="3.20301" x2="19.8712" y2="47.1159" gradientUnits="userSpaceOnUse">
<stop stop-color="#BFC29F"/>
<stop offset="1" stop-color="#9B9B6E"/>
</linearGradient>
</defs>
</svg>
