<svg width="32" height="32" viewBox="0 0 32 32" fill="none" xmlns="http://www.w3.org/2000/svg">
<g clip-path="url(#clip0_5_681)">
<path d="M32 24.5127C32 24.5127 25.9004 16.4717 20.7138 11.2861C15.5273 6.0996 7.48633 0 7.48633 0C7.48633 0 15.9922 0.0205133 23.9863 8.01363C31.9795 16.0068 32 24.5127 32 24.5127Z" fill="#F6BB42"/>
<path d="M23.8242 5.34766L0.585938 28.586C-0.195313 29.3672 -0.195313 30.6329 0.585938 31.4141C1.36719 32.1954 2.63281 32.1954 3.41406 31.4141L26.6523 8.17584L23.8242 5.34766Z" fill="#8C4C4C"/>
<path d="M17.6966 11.4752L20.5247 14.3032L26.6525 8.17541L23.8244 5.34737L17.6966 11.4752Z" fill="#FFCE54"/>
<path d="M22.8809 10.0615C22.6211 10.3222 22.1982 10.3213 21.9385 10.0615C21.6777 9.80076 21.6777 9.37887 21.9385 9.11814C22.1982 8.85841 22.6211 8.85841 22.8809 9.11814C23.1417 9.37887 23.1417 9.80076 22.8809 10.0615Z" fill="#434A54"/>
<path d="M29.1425 25.9043L21.9336 21.333L14.8574 25.9043L12 32H32L29.1425 25.9043Z" fill="#CCD1D9"/>
<path d="M32 32L29.1425 25.9043L21.9336 21.333L25.5244 28.3331L24.8399 32H32Z" fill="#AAB2BC"/>
</g>
<defs>
<clipPath id="clip0_5_681">
<rect width="32" height="32" fill="white"/>
</clipPath>
</defs>
</svg>
