<svg width="32" height="32" viewBox="0 0 32 32" fill="none" xmlns="http://www.w3.org/2000/svg">
<g clip-path="url(#clip0_16_945)">
<path fill-rule="evenodd" clip-rule="evenodd" d="M16 16C12.4536 16 9.56954 13.1296 9.56954 9.59998C9.56954 6.07038 12.4536 3.19998 16 3.19998C19.5464 3.19998 22.4305 6.07038 22.4305 9.59998C22.4305 13.1296 19.5464 16 16 16ZM22.0414 17.0767C24.5927 15.0335 26.0798 11.7295 25.5332 8.11189C24.8982 3.91509 21.3904 0.556763 17.1559 0.067163C11.3122 -0.609637 6.3543 3.91838 6.3543 9.59998C6.3543 12.624 7.76257 15.3183 9.95857 17.0767C4.56341 19.0943 0.624741 23.832 0.0074145 30.2256C-0.0826111 31.1712 0.658508 32 1.61343 32C2.43171 32 3.12942 31.3856 3.20176 30.5744C3.84642 23.4336 9.33964 19.2 16 19.2C22.6604 19.2 28.1536 23.4336 28.7982 30.5744C28.8706 31.3856 29.5683 32 30.3866 32C31.3415 32 32.0826 31.1712 31.9926 30.2256C31.3753 23.832 27.4366 19.0943 22.0414 17.0767Z" fill="#D3D3D3"/>
</g>
<defs>
<clipPath id="clip0_16_945">
<rect width="32" height="32" fill="white"/>
</clipPath>
</defs>
</svg>
