<svg width="32" height="32" viewBox="0 0 32 32" fill="none" xmlns="http://www.w3.org/2000/svg">
<g clip-path="url(#clip0_4_4580)">
<path d="M31.1911 22.7107C30.3644 20.3147 28.5191 16.9737 24.4135 14.4637C24.2869 9.6656 22.3201 6.40423 20.6611 4.49335C18.7897 2.33779 16.8645 1.37054 16.7834 1.33048L16 0.943604L14.6938 3.09129L16 4.9976C16.5284 5.37429 17.2955 5.99692 18.0507 6.88067C19.4695 8.54092 20.3602 10.4952 20.7122 12.7107C20.1778 12.5375 19.5805 12.3763 18.9277 12.2499C17.9939 12.069 17.0343 11.9773 16.0754 11.9773C16.0503 11.9773 16.0251 11.9778 16 11.9779L14.6937 13.8241L16 15.515C16.0204 15.5149 16.0408 15.5144 16.0612 15.5144C16.3183 15.5144 16.5685 15.523 16.8118 15.5387C17.0504 15.5566 17.319 15.5865 17.5571 15.6197C17.6206 15.6287 17.684 15.6387 17.7475 15.6489C17.8035 15.6578 17.8595 15.6672 17.9156 15.6769C17.9745 15.6872 18.0334 15.6975 18.0923 15.7087C18.1292 15.7157 18.1662 15.7233 18.2031 15.7307C18.2599 15.742 18.3167 15.7537 18.3735 15.7659C18.41 15.7737 18.4464 15.7819 18.4829 15.79C18.5412 15.8032 18.5995 15.8168 18.6578 15.8309C18.6922 15.8392 18.7265 15.8474 18.7609 15.856C18.8243 15.8719 18.8877 15.8885 18.951 15.9054C18.9801 15.9132 19.0092 15.9206 19.0382 15.9287C19.128 15.9534 19.2178 15.979 19.3075 16.0059C19.3201 16.0097 19.3327 16.0137 19.3453 16.0176C19.4245 16.0417 19.5038 16.0665 19.5829 16.0922C19.6222 16.1049 19.6613 16.1184 19.7006 16.1315C19.7508 16.1484 19.801 16.1652 19.8512 16.1828C19.898 16.1991 19.9448 16.216 19.9916 16.2329C20.0324 16.2477 20.0731 16.2626 20.1138 16.2779C20.1667 16.2977 20.2197 16.3177 20.2725 16.3382C20.3029 16.35 20.3333 16.3621 20.3637 16.3742C20.4256 16.3988 20.4875 16.4235 20.5494 16.449C20.5519 16.4501 20.5545 16.4512 20.557 16.4523C21.1243 16.6876 21.6872 16.9655 22.2432 17.2867C22.9049 17.6687 23.5181 18.0879 24.082 18.5461C25.1035 19.3746 25.9575 20.3233 26.6394 21.3841C26.6422 21.3885 26.6452 21.3927 26.6481 21.3971C26.6481 21.3971 27.1482 22.2327 27.3589 22.6755C28.0902 24.2129 28.3419 25.6127 28.4257 26.4942C27.8352 26.7638 26.9117 27.1172 25.7679 27.3296C25.0598 27.461 24.3434 27.5277 23.6385 27.5278C23.6384 27.5278 23.6381 27.5278 23.638 27.5278C22.2109 27.5278 20.787 27.2549 19.3841 26.7167C19.7973 26.3434 20.2305 25.911 20.6611 25.415C21.3786 24.5886 22.1533 23.5085 22.8122 22.1618C22.8912 22.0047 22.9656 21.8494 23.0363 21.6961C22.3885 21.0226 21.6177 20.4262 20.7273 19.9122C20.5135 19.7887 20.2993 19.6739 20.0848 19.567C19.9013 20.0563 19.6871 20.5307 19.4408 20.9887C19.1755 21.4711 18.879 21.9347 18.5462 22.3745C17.8506 23.2954 16.9972 24.1274 15.9999 24.8605L14.6937 27.0805L16 29.0379C18.4608 30.3775 21.0413 31.0567 23.6777 31.0567C24.6365 31.0567 25.5961 30.965 26.5299 30.7841C29.3385 30.2399 31.1335 29.057 31.2084 29.0069L31.9346 28.5224L31.9912 27.651C31.9972 27.56 32.1222 25.4093 31.1911 22.7107Z" fill="#53B400"/>
<path d="M14.6411 25.7469C13.9246 26.1605 13.1985 26.502 12.4662 26.7725C12.4228 26.7885 12.3794 26.8049 12.3361 26.8204C12.2833 26.8393 12.2304 26.8574 12.1775 26.8755C12.1267 26.8929 12.0758 26.9102 12.0249 26.9269C11.9759 26.943 11.9269 26.9589 11.8779 26.9744C11.8168 26.9936 11.7557 27.0121 11.6946 27.0304C11.6551 27.0422 11.6156 27.0545 11.5761 27.0658C11.4773 27.0943 11.3784 27.1214 11.2794 27.1473C11.2515 27.1546 11.2235 27.1613 11.1955 27.1683C11.1179 27.188 11.0404 27.207 10.9628 27.225C10.9294 27.2328 10.896 27.2404 10.8626 27.2478C10.7852 27.2651 10.7078 27.2815 10.6303 27.2972C10.6026 27.3029 10.5749 27.3087 10.5472 27.3141C10.3358 27.3554 10.1241 27.3907 9.91213 27.42C9.88713 27.4235 9.8622 27.4265 9.83713 27.4299C9.75482 27.4407 9.67257 27.4507 9.5902 27.4598C9.5617 27.4629 9.53326 27.466 9.50482 27.4689C9.4157 27.478 9.2107 27.4956 9.19738 27.4966C9.19738 27.4966 8.64038 27.5279 8.36163 27.5279C7.65695 27.5279 6.94045 27.4612 6.23213 27.3298C5.08913 27.1176 4.16645 26.7646 3.57607 26.4952C3.63801 25.8494 3.79376 24.8739 4.18145 23.7778C4.91226 21.712 6.16545 19.9587 7.91732 18.5438C8.03457 19.0943 8.19376 19.6933 8.41107 20.3232C8.60726 20.8919 8.86182 21.5142 9.18945 22.1657C9.57107 22.9451 9.99151 23.6346 10.4171 24.2379C11.3217 24.0123 12.2271 23.64 13.1252 23.1214C13.342 22.9962 13.5506 22.8669 13.7521 22.7339C13.1539 22.0046 12.6493 21.2121 12.2431 20.358C12.156 20.175 12.0762 19.994 12.0022 19.8155C11.7624 19.2158 11.5725 18.5905 11.4299 17.9417C11.2246 17.0038 11.1154 15.9995 11.1154 14.9544C11.1154 12.8459 11.5409 10.924 12.3801 9.24167C12.7993 8.39904 13.3242 7.61192 13.9492 6.88054C14.7043 5.99698 15.4714 5.37429 15.9999 4.99767V0.943604L15.217 1.33029C15.1354 1.37067 13.2102 2.33792 11.3388 4.49348C9.67982 6.40429 7.71295 9.66567 7.58638 14.4639C3.48088 16.9739 1.63557 20.3149 0.808821 22.7108C-0.122242 25.4094 0.00269559 27.5602 0.00850809 27.6504L0.0651956 28.5224L0.791446 29.007C0.866321 29.057 2.66132 30.24 5.46982 30.7841C6.40395 30.965 7.36351 31.0567 8.32207 31.0567C10.9585 31.0567 13.5391 30.3775 15.9998 29.0379V24.8606C15.573 25.1744 15.1201 25.4704 14.6411 25.7469Z" fill="#6CD800"/>
<path d="M14.532 12.0421C14.2749 12.9357 14.1472 13.9033 14.1472 14.9544C14.1472 15.1978 14.1548 15.4362 14.1685 15.6709C14.776 15.5705 15.3869 15.5184 15.9999 15.5151V11.9779C15.9748 11.9778 15.9497 11.9773 15.9245 11.9773C15.4596 11.9772 14.9944 11.9992 14.532 12.0421Z" fill="#6CD800"/>
</g>
<defs>
<clipPath id="clip0_4_4580">
<rect width="32" height="32" fill="white"/>
</clipPath>
</defs>
</svg>
