<svg width="32" height="32" viewBox="0 0 32 32" fill="none" xmlns="http://www.w3.org/2000/svg">
<g clip-path="url(#clip0_4_4656)">
<path d="M2.67932 4.00004C2.67932 2.89452 3.57384 2 4.6793 2H21.3458C22.082 2 22.6798 2.5957 22.6798 3.33203V6.00002H6.67928H4.01135H2.67932V4.00004Z" fill="#E8AA3D"/>
<path d="M6.67932 28.0001V2H23.3458C24.4493 2 25.3458 2.89452 25.3458 4.00004V30H8.6793L6.67932 28.0001Z" fill="#F6BB42"/>
<path d="M28.0117 28.6659C28.0117 29.4023 27.416 30 26.6797 30H8.6792C8.6792 30 9.34521 29.4023 9.34521 28.6659V26H28.0117V28.6659Z" fill="#FFCE54"/>
<path d="M6.67932 28V26H10.6793V28C10.6793 29.1044 9.78289 30 8.67936 30C7.57384 30 6.67932 29.1044 6.67932 28Z" fill="#F6BB42"/>
<path d="M4.67932 2H6.6793V4.00004C6.6793 2.89452 5.78278 2 4.67932 2Z" fill="#F6BB42"/>
<path d="M1.33353 27.333C1.33353 27.7012 1.03471 28 0.666514 28C0.298381 28 0 27.7012 0 27.333C0 26.9648 0.298319 26.666 0.666514 26.666C1.03471 26.666 1.33353 26.9648 1.33353 27.333Z" fill="#FC6E51"/>
<path d="M5.33359 19.333C5.33359 19.7012 5.03477 20 4.66664 20C4.2985 20 4.00012 19.7012 4.00012 19.333C4.00012 18.9648 4.29844 18.666 4.66664 18.666C5.03483 18.666 5.33359 18.9649 5.33359 19.333Z" fill="#ED5564"/>
<path d="M32 23.333C32 23.7012 31.7012 24 31.334 24C30.9649 24 30.666 23.7012 30.666 23.333C30.666 22.9648 30.9648 22.666 31.334 22.666C31.7012 22.666 32 22.9649 32 23.333Z" fill="#4FC2E9"/>
<path d="M32 4.66601C32 5.03421 31.7012 5.33297 31.334 5.33297C30.9649 5.33297 30.666 5.03415 30.666 4.66601C30.666 4.29788 30.9648 4 31.334 4C31.7012 4 32 4.29788 32 4.66601Z" fill="#FFCE54"/>
<path d="M28.666 12.666V12C28.666 11.6308 28.3681 11.333 28 11.333C27.6318 11.333 27.334 11.6308 27.334 12V12.666C26.9648 12.666 26.666 12.9649 26.666 13.3331C26.666 13.7012 26.9648 14.0001 27.334 14.0001V14.666C27.334 15.0342 27.6318 15.333 28 15.333C28.3681 15.333 28.666 15.0342 28.666 14.666V14.0001C29.0351 14.0001 29.334 13.7012 29.334 13.3331C29.334 12.9649 29.0352 12.666 28.666 12.666Z" fill="#48CFAD"/>
<path d="M2.00004 9.99992V9.33297C2.00004 8.96483 1.70172 8.66602 1.33353 8.66602C0.965333 8.66602 0.666514 8.96483 0.666514 9.33297V9.99992C0.298381 9.99992 0 10.2979 0 10.666C0 11.0341 0.298319 11.333 0.666514 11.333V12C0.666514 12.3682 0.965333 12.666 1.33353 12.666C1.70172 12.666 2.00004 12.3681 2.00004 12V11.333C2.36824 11.333 2.66662 11.0342 2.66662 10.666C2.66662 10.2978 2.36824 9.99992 2.00004 9.99992Z" fill="#AC92EB"/>
<path d="M12.0347 9.24034C12.4029 9.22766 12.691 8.91903 12.6782 8.55089C12.6675 8.23451 12.8013 8.07826 12.9302 8.03719C13.0684 7.99325 13.2139 8.06944 13.3291 8.2452C13.377 8.31745 13.4029 8.3692 13.4175 8.40145C13.3863 8.43858 13.3399 8.48639 13.3028 8.52545C13.0586 8.78033 12.6499 9.20709 12.5967 9.9893C12.5718 10.3565 12.8491 10.6749 13.2163 10.6993C13.2319 10.7003 13.2471 10.7012 13.2627 10.7012C13.6099 10.7012 13.9028 10.4317 13.9272 10.08C13.9472 9.78029 14.0742 9.64748 14.2661 9.44722C14.5659 9.13378 15.124 8.55077 14.4443 7.51462C13.9976 6.83204 13.2446 6.5381 12.5269 6.7666C11.7794 7.00292 11.3159 7.72162 11.3457 8.59664C11.358 8.96496 11.667 9.25403 12.0347 9.24034Z" fill="#ED5564"/>
<path d="M19.9122 14.5694C19.9014 14.253 20.0352 14.0967 20.1641 14.0557C20.3028 14.0117 20.4483 14.0879 20.5636 14.2637C20.6114 14.3359 20.6368 14.3877 20.6514 14.4199C20.6202 14.4571 20.5743 14.5049 20.5372 14.5439C20.293 14.7988 19.8848 15.2256 19.8311 16.0068C19.8057 16.375 20.084 16.6924 20.4512 16.7178C20.4669 16.7188 20.4815 16.7197 20.4962 16.7197C20.8438 16.7197 21.1368 16.4502 21.1612 16.0977C21.1817 15.7988 21.3086 15.666 21.5001 15.4658C21.7999 15.1523 22.3575 14.5694 21.6788 13.5322C21.2315 12.8506 20.4786 12.5566 19.7618 12.7841C19.0137 13.0215 18.5498 13.7402 18.5801 14.6152C18.5919 14.9834 18.9005 15.2724 19.2687 15.2588C19.6368 15.2461 19.9249 14.9375 19.9122 14.5694Z" fill="#ED5564"/>
<path d="M15.8687 9.15723C15.9512 9.24023 15.9693 9.30074 15.9425 9.40624C15.9146 9.51755 15.8448 9.62112 15.8204 9.65137L15.8228 9.64843C15.7296 9.76368 15.6734 9.91012 15.6734 10.0693C15.6734 10.4375 15.9717 10.7353 16.3399 10.7353C16.5406 10.7353 16.7203 10.6465 16.8424 10.5058L16.8434 10.5068C17.2598 10.0156 17.5947 9.00098 16.814 8.21677C16.7169 8.11915 16.7213 8.0664 16.7378 8.0039C16.7618 7.91014 16.8248 7.82227 16.8472 7.79589L16.8404 7.8037L16.8365 7.80077C16.942 7.68258 17.007 7.52732 17.007 7.35644C17.007 6.98825 16.7082 6.69043 16.34 6.69043C16.108 6.69043 15.904 6.80862 15.7848 6.98825C15.3906 7.48432 15.1206 8.40622 15.8687 9.15723Z" fill="#ED5564"/>
<path d="M12.0314 16.6436L12.0402 16.6299C12.1383 16.6865 12.2521 16.7198 12.3737 16.7198C12.7418 16.7198 13.0402 16.421 13.0402 16.0528C13.0402 15.7979 12.8971 15.5772 12.6872 15.4649C12.673 15.4483 12.6627 15.4336 12.6608 15.4248C12.6608 15.4238 12.6696 15.334 12.8449 15.1582C13.3932 14.6103 13.4533 14.1084 13.4069 13.7852C13.3141 13.1308 12.7516 12.8046 12.6876 12.7695C12.3649 12.5918 11.9596 12.71 11.7823 13.0322C11.6051 13.3555 11.7228 13.7607 12.0455 13.9375C12.0455 13.9385 12.068 13.958 12.0817 13.9746C12.0695 14.0068 12.0294 14.0889 11.902 14.2158C11.3648 14.7529 11.298 15.2539 11.3365 15.5801C11.4152 16.2481 11.9684 16.6055 12.0314 16.6436Z" fill="#ED5564"/>
<path d="M18.6641 10.6875H18.9981C19.1758 10.6875 19.3477 10.6153 19.4727 10.4883C19.5977 10.3613 19.667 10.1895 19.6641 10.0117C19.6641 10.0068 19.6592 9.54587 19.7305 9.02736C19.8067 8.48048 19.9238 8.19535 20 8.07322C20.0752 8.19435 20.1913 8.4746 20.2656 9.01267C20.3379 9.53119 20.334 10.0068 20.334 10.0107C20.331 10.1894 20.4004 10.3613 20.5254 10.4883C20.6504 10.6153 20.8222 10.6875 20.9999 10.6875H21.3339C21.7011 10.6875 21.9999 10.3887 21.9999 10.0205C21.9999 9.76563 21.8574 9.54494 21.6474 9.43262C21.6376 9.27931 21.6229 9.10743 21.5995 8.9268C21.4882 8.04497 21.2596 7.43952 20.9002 7.0752C20.6503 6.82132 20.3397 6.6875 19.9999 6.6875C19.6601 6.6875 19.3495 6.82132 19.0995 7.0742C18.5546 7.6269 18.3934 8.72554 18.3476 9.43356C18.1396 9.54587 17.9979 9.76657 17.9979 10.0204C17.998 10.3887 18.2969 10.6875 18.6641 10.6875Z" fill="#ED5564"/>
<path d="M18.001 18.6875H17.668C17.4893 18.6875 17.3184 18.7588 17.1934 18.8857C17.0685 19.0126 16.9986 19.1845 17.0011 19.3623C17.0011 19.3671 17.0059 19.8281 16.9351 20.3467C16.8599 20.8935 16.7423 21.1787 16.6661 21.3008C16.5904 21.1797 16.4747 20.8994 16.3994 20.3613C16.3272 19.8428 16.3321 19.3672 16.3321 19.3633C16.335 19.1846 16.2657 19.0127 16.1402 18.8857C16.0152 18.7588 15.8443 18.6875 15.6656 18.6875H15.3326C14.9644 18.6875 14.6656 18.9853 14.6656 19.3535C14.6656 19.6083 14.8082 19.829 15.0182 19.9413C15.0284 20.0947 15.0435 20.2665 15.066 20.4472C15.1768 21.3291 15.4054 21.9345 15.7648 22.2988C16.0148 22.5526 16.3263 22.6875 16.6657 22.6875C17.0051 22.6875 17.3165 22.5527 17.5665 22.2998C18.1115 21.747 18.2716 20.6484 18.3185 19.9404C18.5255 19.8281 18.6681 19.6074 18.6681 19.3535C18.668 18.9854 18.3692 18.6875 18.001 18.6875Z" fill="#ED5564"/>
<path d="M21.3341 20.0205V19.3535C21.3341 18.9853 21.0353 18.6875 20.6661 18.6875C20.2989 18.6875 20.0001 18.9853 20.0001 19.3535V20.0205C19.6319 20.0205 19.3341 20.3183 19.3341 20.6875C19.3341 21.0557 19.632 21.3535 20.0001 21.3535V22.0204C20.0001 22.3886 20.2989 22.6875 20.6661 22.6875C21.0352 22.6875 21.3341 22.3886 21.3341 22.0204V21.3535C21.7013 21.3535 22 21.0556 22 20.6875C22 20.3184 21.7013 20.0205 21.3341 20.0205Z" fill="#ED5564"/>
<path d="M13.5391 20.0637C13.4639 20.0354 13.3839 20.0207 13.3037 20.0207H12.6665V19.3537C12.6665 18.9855 12.3682 18.6877 12 18.6877C11.6318 18.6877 11.3335 18.9856 11.3335 19.3537V22.0207C11.3335 22.3889 11.6318 22.6877 12 22.6877C12.3682 22.6877 12.6665 22.3889 12.6665 22.0207V21.3537H13.104C13.1075 21.3576 13.1099 21.3616 13.1113 21.3635C13.19 21.467 13.2046 21.6545 13.1523 21.8908C13.0732 22.2502 13.3003 22.6057 13.6597 22.6858C13.7085 22.6965 13.7564 22.7014 13.8042 22.7014C14.1099 22.7014 14.3857 22.4895 14.4546 22.1779C14.7398 20.886 13.9805 20.2297 13.5391 20.0637Z" fill="#ED5564"/>
<path d="M14.2461 15.0021C14.2442 15.0099 14.2417 15.0177 14.2397 15.0265L14.0327 15.8342C13.9414 16.1906 14.1563 16.554 14.5132 16.6457C14.5684 16.6594 14.624 16.6662 14.6792 16.6662C14.9761 16.6662 15.2471 16.466 15.3243 16.1652L15.3965 15.8849L17.2988 16.0188C17.4824 16.0324 17.6641 15.968 17.7998 15.842C17.9356 15.7151 18.0117 15.5392 18.0117 15.3537C18.0117 14.5452 17.7637 13.8948 17.2715 13.4182C16.503 12.6731 15.4537 12.6838 15.336 12.6877C15.0396 12.6965 14.7852 12.9006 14.7115 13.1887L14.2461 15.0021ZM15.8545 14.0988C16.0215 14.1506 16.2036 14.2375 16.3501 14.382C16.4223 14.4533 16.4824 14.5353 16.5308 14.6281L15.7329 14.5715L15.8545 14.0988Z" fill="#ED5564"/>
</g>
<defs>
<clipPath id="clip0_4_4656">
<rect width="32" height="32" fill="white"/>
</clipPath>
</defs>
</svg>
