<svg width="32" height="32" viewBox="0 0 32 32" fill="none" xmlns="http://www.w3.org/2000/svg">
<path fill-rule="evenodd" clip-rule="evenodd" d="M16 11C13.2386 11 11 13.2386 11 16C11 18.7615 13.2386 21 16 21C18.7615 21 21 18.7615 21 16C21 13.2386 18.7615 11 16 11ZM13 16C13 14.3432 14.3432 13 16 13C17.6568 13 19 14.3432 19 16C19 17.6568 17.6568 19 16 19C14.3432 19 13 17.6568 13 16Z" fill="#D3D3D3"/>
<path fill-rule="evenodd" clip-rule="evenodd" d="M15.9663 1.66675C15.3738 1.66674 14.879 1.66674 14.4728 1.69444C14.05 1.7233 13.6507 1.78548 13.2635 1.94586C12.3651 2.318 11.6513 3.0318 11.2791 3.93024C11.0854 4.39797 11.0329 4.89091 11.0129 5.4267C10.9968 5.8574 10.7794 6.21676 10.4586 6.40196C10.1379 6.58716 9.71798 6.59572 9.33692 6.39432C8.8629 6.14377 8.40976 5.94274 7.90782 5.87666C6.94368 5.74972 5.9686 6.011 5.1971 6.603C4.86462 6.85812 4.61107 7.17288 4.3747 7.52462C4.14762 7.8625 3.90027 8.29095 3.60396 8.80417L3.5703 8.86249C3.27398 9.37571 3.02662 9.80414 2.84754 10.1697C2.66112 10.5503 2.5153 10.9273 2.46059 11.3428C2.33366 12.3069 2.59494 13.282 3.18692 14.0535C3.49508 14.455 3.89568 14.747 4.3496 15.0322C4.71464 15.2615 4.91722 15.6295 4.91719 16.0001C4.91718 16.3705 4.7146 16.7385 4.3496 16.9678C3.89563 17.253 3.49499 17.545 3.1868 17.9466C2.5948 18.7181 2.33354 19.6931 2.46046 20.6573C2.51516 21.0727 2.66099 21.4498 2.8474 21.8303C3.02648 22.1959 3.27384 22.6243 3.57015 23.1375L3.60383 23.1959C3.90014 23.7091 4.14748 24.1375 4.37456 24.4754C4.61094 24.8271 4.86448 25.1419 5.19696 25.397C5.96847 25.989 6.94355 26.2503 7.90768 26.1234C8.4096 26.0573 8.86271 25.8563 9.33671 25.6058C9.71782 25.4043 10.1378 25.4129 10.4586 25.5982C10.7794 25.7834 10.9968 26.1427 11.0129 26.5735C11.0329 27.1093 11.0854 27.6022 11.2791 28.0699C11.6513 28.9683 12.3651 29.6822 13.2635 30.0543C13.6507 30.2147 14.05 30.2769 14.4728 30.3057C14.879 30.3334 15.3738 30.3334 15.9663 30.3334H16.0336C16.6263 30.3334 17.121 30.3334 17.5272 30.3057C17.95 30.2769 18.3494 30.2147 18.7366 30.0543C19.635 29.6822 20.3488 28.9683 20.721 28.0699C20.9147 27.6022 20.9671 27.1093 20.9871 26.5734C21.0032 26.1427 21.2206 25.7834 21.5414 25.5981C21.8622 25.4129 22.2822 25.4043 22.6632 25.6057C23.1372 25.8562 23.5903 26.0573 24.0923 26.1233C25.0564 26.2502 26.0315 25.989 26.803 25.397C27.1355 25.1418 27.389 24.8271 27.6254 24.4754C27.8524 24.1375 28.0998 23.7091 28.396 23.1959L28.4298 23.1375C28.726 22.6243 28.9735 22.1958 29.1526 21.8302C29.339 21.4497 29.4847 21.0727 29.5395 20.6573C29.6664 19.693 29.4051 18.7179 28.8131 17.9465C28.505 17.5449 28.1043 17.253 27.6504 16.9678C27.2854 16.7385 27.0828 16.3705 27.0828 15.9999C27.0828 15.6295 27.2854 15.2617 27.6503 15.0323C28.1044 14.7471 28.5051 14.4553 28.8132 14.0535C29.4052 13.2821 29.6666 12.307 29.5396 11.3429C29.4848 10.9274 29.3391 10.5504 29.1527 10.1698C28.9736 9.80425 28.7263 9.37585 28.4299 8.86268L28.3963 8.80432C28.0999 8.29108 27.8526 7.86259 27.6255 7.52471C27.3891 7.17297 27.1356 6.85821 26.8031 6.60308C26.0316 6.0111 25.0566 5.74981 24.0923 5.87675C23.5904 5.94283 23.1374 6.14384 22.6634 6.39438C22.2823 6.5958 21.8623 6.58723 21.5415 6.402C21.2207 6.21679 21.0032 5.85738 20.9871 5.42663C20.9671 4.89086 20.9147 4.39795 20.721 3.93024C20.3488 3.0318 19.635 2.318 18.7366 1.94586C18.3494 1.78548 17.95 1.7233 17.5272 1.69444C17.121 1.66674 16.6263 1.66674 16.0336 1.66675H15.9663ZM14.0288 3.79362C14.1318 3.751 14.288 3.71171 14.609 3.6898C14.939 3.6673 15.3651 3.66675 16 3.66675C16.635 3.66675 17.0611 3.6673 17.391 3.6898C17.712 3.71171 17.8683 3.751 17.9711 3.79362C18.3795 3.96278 18.704 4.28723 18.8731 4.69562C18.9266 4.82443 18.9707 5.02524 18.9886 5.50137C19.028 6.55788 19.5734 7.57514 20.5415 8.13406C21.5095 8.69299 22.6632 8.65661 23.5979 8.16259C24.0191 7.93995 24.2152 7.87784 24.3534 7.85964C24.7916 7.80195 25.2348 7.92071 25.5855 8.18979C25.6739 8.25758 25.786 8.37327 25.9655 8.6403C26.15 8.91479 26.3635 9.28355 26.681 9.83342C26.9984 10.3833 27.2111 10.7526 27.3566 11.0496C27.498 11.3385 27.5422 11.4935 27.5567 11.6039C27.6144 12.0421 27.4956 12.4854 27.2266 12.8361C27.1416 12.9467 26.9899 13.0854 26.5863 13.3389C25.6912 13.9014 25.083 14.8822 25.0828 15.9999C25.0828 17.1178 25.6911 18.0987 26.5863 18.6613C26.9898 18.9147 27.1415 19.0534 27.2264 19.1641C27.4955 19.5147 27.6143 19.9579 27.5566 20.3962C27.542 20.5066 27.4979 20.6615 27.3564 20.9505C27.211 21.2474 26.9983 21.6167 26.6808 22.1666C26.3634 22.7165 26.1499 23.0853 25.9654 23.3598C25.7859 23.6267 25.6738 23.7425 25.5854 23.8102C25.2347 24.0794 24.7915 24.1981 24.3532 24.1405C24.2151 24.1222 24.019 24.0601 23.5978 23.8375C22.6631 23.3434 21.5094 23.3071 20.5412 23.8661C19.5734 24.425 19.028 25.4422 18.9886 26.4987C18.9707 26.9749 18.9266 27.1757 18.8731 27.3046C18.704 27.7129 18.3795 28.0374 17.9711 28.2066C17.8683 28.2491 17.712 28.2885 17.391 28.3103C17.0611 28.3329 16.635 28.3334 16 28.3334C15.3651 28.3334 14.939 28.3329 14.609 28.3103C14.288 28.2885 14.1318 28.2491 14.0288 28.2066C13.6206 28.0374 13.2961 27.7129 13.1269 27.3046C13.0735 27.1757 13.0293 26.9749 13.0115 26.4987C12.972 25.4423 12.4267 24.425 11.4586 23.8661C10.4905 23.3071 9.33687 23.3435 8.40215 23.8375C7.98091 24.0602 7.78488 24.1223 7.64664 24.1405C7.20839 24.1982 6.76518 24.0794 6.4145 23.8103C6.32615 23.7426 6.21398 23.6269 6.03452 23.3598C5.85006 23.0854 5.63652 22.7166 5.31906 22.1667C5.00158 21.6169 4.78899 21.2475 4.64351 20.9506C4.50199 20.6617 4.45788 20.5066 4.44335 20.3962C4.38566 19.9579 4.50442 19.5147 4.77351 19.1641C4.85839 19.0535 5.01019 18.9147 5.41364 18.6613C6.30882 18.0989 6.91714 17.1179 6.91719 16.0002C6.91726 14.8822 6.30891 13.9013 5.41366 13.3387C5.0103 13.0853 4.85851 12.9466 4.77363 12.836C4.50455 12.4853 4.38579 12.0421 4.44348 11.6038C4.45802 11.4934 4.50212 11.3384 4.64364 11.0495C4.78912 10.7525 5.00171 10.3832 5.31918 9.83332C5.63666 9.28345 5.85018 8.9147 6.03466 8.6402C6.21411 8.37319 6.32628 8.25748 6.41462 8.18971C6.76531 7.92062 7.20852 7.80186 7.64676 7.85955C7.78502 7.87775 7.98106 7.93986 8.40235 8.16254C9.33702 8.65655 10.4906 8.69291 11.4586 8.13402C12.4267 7.57512 12.972 6.55791 13.0115 5.50144C13.0293 5.02527 13.0735 4.82444 13.1269 4.69562C13.2961 4.28723 13.6206 3.96278 14.0288 3.79362Z" fill="#D3D3D3"/>
</svg>
