<svg width="32" height="32" viewBox="0 0 32 32" fill="none" xmlns="http://www.w3.org/2000/svg">
<path d="M4 4V17.3333C4 22.9333 8.84293 28 16 30.6667C23.1573 28 28 22.9333 28 17.3333V4H4Z" fill="#7F8C8D"/>
<path d="M4 2.66675V16.0001C4 21.6001 8.84293 26.6667 16 29.3334C23.1573 26.6667 28 21.6001 28 16.0001V2.66675H4Z" fill="#BDC3C7"/>
<path d="M4 2.66675V16.0001C4 21.6001 8.84293 26.6667 16 29.3334V2.66675H4Z" fill="#95A5A6"/>
<path d="M6.66663 5.33325V15.9999C6.66663 20.5333 10.4334 24.5333 16 26.6666C21.5666 24.5333 25.3333 20.5333 25.3333 15.9999V5.33325H6.66663Z" fill="#ECF0F1"/>
<path d="M6.66663 16C6.66663 20.5333 10.4334 24.5333 16 26.6667V16H6.66663Z" fill="#2980B9"/>
<path d="M25.3333 5.33325H16V15.9999H25.3333V5.33325Z" fill="#3498DB"/>
<path d="M16 5.33325H6.66663V15.9999H16V5.33325Z" fill="#BDC3C7"/>
</svg>
