<svg width="32" height="32" viewBox="0 0 32 32" fill="none" xmlns="http://www.w3.org/2000/svg">
<path d="M10.1267 22.5276V27.1159C10.1267 27.4005 10.4895 27.5208 10.6595 27.2925L11.4498 26.2312C11.478 26.1934 11.5348 26.1938 11.5624 26.232L12.3119 27.2681C12.48 27.5005 12.8471 27.3815 12.8471 27.0948V22.5276L10.1267 22.5276Z" fill="#7A2B5A"/>
<path d="M19.3528 22.5276V29.5956C19.3528 29.8006 19.6223 29.8753 19.727 29.6989C20.1206 29.0359 20.7785 28.0531 21.4753 27.554C21.5286 27.516 21.5607 27.4565 21.5607 27.3911V22.5276L19.3528 22.5276Z" fill="#5B153E"/>
<path d="M21.2847 2.20215H24.1634C24.6422 2.20215 25.0304 2.59034 25.0304 3.06915V22.133C25.0304 22.6118 24.6422 23 24.1634 23H21.2847V2.20215Z" fill="#5B153E"/>
<path d="M16.7661 2.72583H22.974C23.5092 2.72583 23.9431 3.15977 23.9431 3.69502V22.0306C23.9431 22.5658 23.5093 22.9998 22.974 22.9998H16.7661V2.72583Z" fill="#B57B76"/>
<path d="M8.09604 2.20215H17.3424L18.8449 4.39509C18.9977 4.61809 19.345 4.53459 19.3798 4.26652L19.6474 2.20215H21.5596C22.008 2.20215 22.3716 2.56571 22.3716 3.01415V22.1879C22.3716 22.6363 22.008 22.9999 21.5596 22.9999H8.04366C7.45054 22.9999 6.96973 22.5191 6.96973 21.9259V3.32852C6.96973 2.70646 7.47398 2.20215 8.09604 2.20215Z" fill="url(#paint0_linear_14_1118)"/>
<path d="M22.9407 4.98218V11.6849L24.445 5.44736C24.5022 5.2103 24.3225 4.98218 24.0787 4.98218H22.9407Z" fill="#DDAEA9"/>
<path d="M17.1926 12.5816L18.3102 10.5119C18.429 10.2918 18.2697 10.0244 18.0194 10.0244H15.8119L14.9614 8.44932C14.8365 8.21807 14.5047 8.21807 14.3799 8.44932L13.5294 10.0244H11.3219C11.0717 10.0244 10.9122 10.2918 11.0311 10.5119L12.1487 12.5816L11.0311 14.6513C10.9122 14.8714 11.0717 15.1388 11.3219 15.1388H13.5294L14.3799 16.7139C14.5047 16.9452 14.8365 16.9452 14.9614 16.7139L15.8119 15.1388H18.0194C18.2697 15.1388 18.4291 14.8715 18.3102 14.6513L17.1926 12.5816ZM17.4242 10.7099L16.803 11.8601L16.1819 10.7099H17.4242ZM16.4135 12.5816L15.4029 14.4533H13.9382L12.9275 12.5816L13.9382 10.71H15.4029L16.4135 12.5816ZM14.6705 9.35363L15.0327 10.0244H14.3084L14.6705 9.35363ZM11.917 10.7099H13.1591L12.538 11.8601L11.917 10.7099ZM11.917 14.4533L12.538 13.3031L13.1591 14.4533H11.917ZM14.6705 15.8095L14.3084 15.1388H15.0327L14.6705 15.8095ZM16.8031 13.303L17.4242 14.4533H16.182L16.8031 13.303Z" fill="white"/>
<path d="M8.69663 20.1903L8.78932 18.9387C8.81488 18.5937 9.28332 18.5098 9.42707 18.8244L9.89307 19.8442C9.97176 20.0165 9.89195 20.2196 9.71707 20.2922L9.15838 20.524C8.92826 20.6194 8.67826 20.4387 8.69663 20.1903Z" fill="#5B153E"/>
<path d="M21.1986 5.525C21.0732 5.44525 20.9055 5.49594 20.8478 5.63294C20.7457 5.87531 20.637 6.22375 20.7789 6.36575C20.8304 6.41731 20.8898 6.49025 20.9508 6.57231C21.0898 6.75937 21.3863 6.6635 21.3863 6.43038V5.77675C21.3863 5.69438 21.3442 5.61769 21.2747 5.57344L21.1986 5.525Z" fill="#5B153E"/>
<path d="M9.96765 11.9454C10.2143 10.1159 11.5459 8.58213 13.3149 8.05476C14.2744 7.7687 15.1922 7.80576 16.0202 8.0542C16.1365 8.08913 16.2592 8.02682 16.2938 7.91038L16.4318 7.44613C16.4655 7.33295 16.403 7.21126 16.29 7.17738C15.7766 7.02345 15.2333 6.9397 14.6705 6.9397C13.2408 6.9397 11.9341 7.4732 10.9367 8.35057C10.8595 8.41857 10.8399 8.53195 10.8867 8.62363L11.0983 9.03901L10.753 8.7962C10.6602 8.73082 10.5314 8.74288 10.4556 8.82751C9.55728 9.8297 9.00928 11.1519 9.00928 12.6006C9.00928 14.7881 10.257 16.6886 12.0777 17.6308C12.2009 17.6945 12.3525 17.6319 12.4012 17.5019L12.56 17.0785C12.602 16.9666 12.5518 16.8438 12.4465 16.7876C10.77 15.8941 9.68665 14.0293 9.96765 11.9454Z" fill="white"/>
<path d="M17.6293 7.9682L17.2783 8.42313C17.2173 8.50226 17.238 8.61457 17.3207 8.67045C18.6101 9.54213 19.4528 11.0262 19.4166 12.7047C19.3683 14.9498 17.4039 17.0853 15.1707 17.3216C14.4416 17.3987 13.7441 17.3041 13.1069 17.0801C13.0018 17.0431 12.8891 17.1078 12.8731 17.2182L12.7909 17.7878C12.7788 17.8718 12.8279 17.9539 12.9085 17.9804C13.6741 18.2319 14.5106 18.3256 15.3805 18.2182C18.0568 17.8879 20.1562 15.6464 20.321 12.9548C20.4485 10.8725 19.4421 9.01232 17.8628 7.92976C17.7878 7.87845 17.6847 7.89632 17.6293 7.9682Z" fill="white"/>
<defs>
<linearGradient id="paint0_linear_14_1118" x1="23.2068" y1="6.08014" x2="-1.66163" y2="25.3107" gradientUnits="userSpaceOnUse">
<stop offset="0.0103" stop-color="#78264D"/>
<stop offset="1" stop-color="#93486F"/>
</linearGradient>
</defs>
</svg>
