<svg width="32" height="32" viewBox="0 0 32 32" fill="none" xmlns="http://www.w3.org/2000/svg">
<path d="M10.3323 21.6677L9.49975 20.8352L4.01819 26.3168L4.85063 27.1493L5.68306 27.9818L11.1647 22.5001L10.3323 21.6677Z" fill="#B75798"/>
<path d="M6.1771 27.6699L5.7781 26.2219L4.33016 25.823C4.16316 25.777 3.98435 25.8242 3.86185 25.9467L3.03678 26.7718C2.87478 26.9337 2.87478 27.1964 3.03678 27.3584L3.83922 28.1609L4.64166 28.9633C4.80366 29.1253 5.06628 29.1253 5.22828 28.9633L6.05335 28.1383C6.17591 28.0157 6.2231 27.8369 6.1771 27.6699Z" fill="#FFD9BE"/>
<path d="M9.49972 20.8352L8.56897 21.766L10.2339 23.4309L11.1647 22.5001L10.3322 21.6677L9.49972 20.8352Z" fill="#7F2467"/>
<path d="M7.08375 23.2518L8.74866 24.9167L9.1803 24.4851L7.51539 22.8202L7.08375 23.2518Z" fill="#7F2467"/>
<path d="M5.59815 24.7369L7.26306 26.4019L7.6947 25.9702L6.02979 24.3053L5.59815 24.7369Z" fill="#7F2467"/>
<path d="M3.37305 27.6946L3.83923 28.1609L4.64167 28.9633C4.80367 29.1253 5.0663 29.1253 5.2283 28.9633L6.05336 28.1382C6.17586 28.0157 6.22305 27.8369 6.17705 27.6699L5.77805 26.2219L4.75011 27.2499C4.75011 27.2499 4.2113 27.8582 3.37305 27.6946Z" fill="#FFBF76"/>
<path d="M28.5859 2.91657L26.9577 3.03632C26.6284 3.06057 26.3189 3.20225 26.0854 3.43575L9.42798 20.0933L10.6674 21.3326L11.9068 22.572L28.5643 5.91457C28.7977 5.68113 28.9395 5.37157 28.9637 5.04225L29.0835 3.41413C29.1043 3.13113 28.8688 2.89575 28.5859 2.91657Z" fill="url(#paint0_linear_14_1162)"/>
<path d="M13.9624 15.5589L9.42798 20.0933L10.6674 21.3327L17.7401 14.26C16.2066 15.1171 14.8467 15.4407 13.9624 15.5589Z" fill="#C7DAFF"/>
<path d="M23.4929 8.61683C23.5287 8.54646 23.5645 8.47421 23.6 8.40015L17.7401 14.26C18.7202 13.7123 19.7705 12.9481 20.8141 11.8763L21.8676 10.8228C22.5171 10.1733 23.075 9.4349 23.4929 8.61683Z" fill="#C7DAFF"/>
<path d="M28.5858 2.91657L26.9577 3.03632C26.6284 3.06057 26.3188 3.20226 26.0854 3.43576L24.3895 5.13157C24.3887 6.39151 24.021 7.51951 23.5999 8.40001L28.9485 3.05139C28.8569 2.95976 28.7273 2.90614 28.5858 2.91657Z" fill="#C7DAFF"/>
<path d="M28.5642 5.91464C28.7152 5.76364 28.8229 5.57901 28.8901 5.37964C28.6132 5.3837 28.2455 5.42045 27.7888 5.53095C26.6192 5.81389 25.5605 6.43958 24.7095 7.29051L10.6674 21.3326L11.9067 22.572L28.5642 5.91464Z" fill="url(#paint1_linear_14_1162)"/>
<path d="M15.7184 26.2204C15.8223 25.9661 16.011 25.3853 15.9386 24.6551C15.9197 24.4651 15.7198 24.3546 15.5498 24.4415C15.2148 24.6128 14.682 24.7721 14.2728 24.3629L11.789 21.9131L11.6441 20.3558L10.0868 20.2109L7.63701 17.7271C7.22783 17.3179 7.38708 16.7852 7.55839 16.4502C7.64533 16.2801 7.53489 16.0802 7.34483 16.0613C6.61464 15.9889 6.03383 16.1776 5.77951 16.2814C5.69089 16.3177 5.61614 16.3823 5.57064 16.4666C5.18283 17.185 5.14183 17.9381 5.17089 18.4253C5.18201 18.6111 5.40283 18.7033 5.54426 18.5821C6.01714 18.1768 6.53108 18.4029 6.53108 18.4029L10.064 21.9359L13.597 25.4688C13.597 25.4688 13.8231 25.9828 13.4178 26.4556C13.2966 26.597 13.3888 26.8178 13.5746 26.8289C14.0618 26.8581 14.8149 26.8171 15.5332 26.4293C15.6175 26.3838 15.6821 26.309 15.7184 26.2204Z" fill="#FFD9BE"/>
<path d="M13.5969 25.4691C13.5969 25.4691 13.823 25.983 13.4177 26.4559C13.2966 26.5973 13.3887 26.8181 13.5746 26.8292C14.0617 26.8584 14.8148 26.8173 15.5332 26.4295C15.6175 26.384 15.6821 26.3092 15.7183 26.2206C15.8222 25.9663 16.0109 25.3855 15.9385 24.6553C15.9196 24.4653 15.7197 24.3548 15.5497 24.4417C15.2147 24.613 14.6819 24.7723 14.2727 24.3631L11.7889 21.9133L11.644 20.356L10.0638 21.9361L13.5969 25.4691Z" fill="#FFBF76"/>
<path d="M7.94446 19.8164L8.82458 20.6965L9.70271 19.8184L8.82783 18.9331L7.94446 19.8164Z" fill="#FFFCFF"/>
<path d="M6.84338 18.7156L7.35332 19.2256L8.2397 18.3392L7.73326 17.8257L6.84338 18.7156Z" fill="#FFFCFF"/>
<defs>
<linearGradient id="paint0_linear_14_1162" x1="27.9557" y1="4.04426" x2="7.18899" y2="24.811" gradientUnits="userSpaceOnUse">
<stop stop-color="white"/>
<stop offset="1" stop-color="#C7DAFF"/>
</linearGradient>
<linearGradient id="paint1_linear_14_1162" x1="12.2741" y1="20.9653" x2="28.484" y2="4.75537" gradientUnits="userSpaceOnUse">
<stop stop-color="#819FEA"/>
<stop offset="1" stop-color="#A7C1FC"/>
</linearGradient>
</defs>
</svg>
