<svg width="32" height="32" viewBox="0 0 32 32" fill="none" xmlns="http://www.w3.org/2000/svg">
<path d="M20.7251 2.29602C14.9245 1.35342 9.9215 7.27487 11.5408 13.0271C11.4925 12.9788 10.0423 12.6404 9.17225 12.7613C8.27799 12.8821 7.26289 13.5347 6.61032 14.2114C5.20851 15.5649 4.38675 17.9818 4.65262 19.9154C4.84597 21.9939 5.86107 24.7734 7.98796 25.4984C9.19642 25.9093 10.7674 25.5951 12.0242 25.2809L13.9336 24.6042C14.6345 24.6525 15.3354 25.0151 16.0605 25.1842C18.5257 25.6435 22.272 23.5891 23.9396 21.8247C26.5016 19.0694 27.6617 15.5649 27.7342 11.7703C27.7825 7.29904 25.3173 2.94859 20.7251 2.29602Z" fill="#1CA538"/>
<path d="M20.6284 9.61943C17.9698 10.0061 16.2054 13.0273 16.2054 15.5892C16.2054 16.0968 16.2779 16.6043 16.3263 17.1119C16.3988 17.6194 16.4471 18.1028 16.4471 18.562C16.4471 18.7312 16.4471 18.9004 16.4229 19.0938C16.3504 19.698 16.1087 20.278 15.8187 20.8339C15.7704 20.0364 15.5045 19.2629 15.1661 18.707C14.3686 17.3536 12.9426 16.4593 11.6133 16.4835C10.5015 16.5076 9.58307 17.136 8.97884 18.2478C8.35044 19.5046 8.3021 21.2448 9.43805 22.0424C10.0423 22.4533 10.6707 22.5016 11.1541 22.1632C11.71 21.7765 11.9758 20.9548 11.8066 20.1814C11.7825 20.0605 11.6616 19.9638 11.5166 19.9638C11.3958 19.9638 11.2749 20.0605 11.2507 20.2055C11.1782 20.6647 10.9365 20.8581 10.719 20.8339C10.5015 20.8339 10.2598 20.5922 10.2356 20.133C10.2356 19.6738 10.5257 18.9246 10.9849 18.7312C11.4199 18.562 11.8791 18.707 12.1692 18.8762C12.7492 19.1663 13.2326 19.7463 13.3776 20.278V20.3022C13.4985 20.6647 13.571 21.0515 13.571 21.4623C13.571 21.9699 13.4743 22.5258 13.3051 23.0817C13.1118 23.6134 12.8942 24.0968 12.6767 24.5802C12.1692 25.7403 11.6858 26.8521 11.6858 28.2055C11.6858 28.6164 11.7341 29.0273 11.8308 29.4865C11.8308 29.5107 11.855 29.5348 11.855 29.559L12.0967 30.0182C12.1208 30.0666 12.145 30.0907 12.1933 30.1149C12.58 30.8158 14.4411 31.0817 16.1329 30.985C17.4381 30.9125 19.6374 30.5983 19.9758 29.7282L20 29.704C20.0483 29.6557 20.0483 29.5832 20.0483 29.5348C20.0483 29.5107 20.0483 29.4623 20.0242 29.4382C19.8066 28.9064 19.6133 28.278 19.4441 27.698C19.0574 26.4895 18.864 25.4261 18.864 24.3385C18.864 23.42 19.009 22.5016 19.2749 21.4623L19.4441 20.9064C19.7825 19.7463 20.1692 18.4654 20.1692 17.2327C20.1692 16.8944 20.145 16.5802 20.0725 16.2418C20 15.8793 19.9033 15.5167 19.8066 15.13C19.6133 14.4533 19.4441 13.7765 19.4441 13.124C19.4441 12.5922 19.5649 12.0847 19.9275 11.6496C20.4109 11.0938 21.571 10.6104 22.2961 10.9004C22.6344 11.0454 22.8278 11.3354 22.8761 11.7222C22.9003 12.0847 22.7553 12.4231 22.5377 12.5681C22.2961 12.7373 22.006 12.6406 21.8127 12.5197C21.6918 12.4472 21.5468 12.4714 21.4743 12.5922C21.3776 12.6889 21.3776 12.8339 21.4501 12.9306C22.0785 13.7765 22.7311 13.5832 22.9728 13.4623C23.6979 13.0998 24.0846 11.988 23.8187 11.1179C23.3353 9.86112 21.8852 9.47442 20.6284 9.61943Z" fill="#65320B"/>
<path d="M23.5287 11.2387C23.1178 10.0544 21.7401 9.76435 20.6767 9.90937C18.1389 10.2961 16.4954 13.3172 16.4954 15.71C16.4954 16.8943 16.858 18.1269 16.7371 19.3112C16.5921 20.4471 15.9637 21.4864 15.4561 22.4773C15.8187 21.3897 15.5528 19.9637 14.9969 19.0212C13.716 16.7492 10.6706 15.855 9.293 18.5378C8.78545 19.577 8.5921 21.2689 9.65554 22.0423C10.9365 22.9366 11.8549 21.6556 11.5891 20.4471C11.3957 21.6798 10.1148 21.6314 10.0181 20.3505C10.0181 19.7946 10.3323 18.8761 10.9365 18.6586C12.0483 18.2236 13.4259 19.3595 13.6918 20.3988C14.006 21.3414 13.9335 22.429 13.5951 23.4199C12.8217 25.6435 11.5649 27.2387 12.1208 29.8006L12.3625 30.284H12.4108C12.5317 30.8399 14.151 31.2266 16.1329 31.1299C18.1148 31.0332 19.6858 30.5015 19.7583 29.9456H19.8066C19.5649 29.3897 19.3957 28.7613 19.2024 28.1571C18.4773 25.8369 18.429 24 19.009 21.6314C19.4682 19.9879 20.1208 18.0786 19.7824 16.435C19.5166 14.864 18.5498 12.9305 19.6858 11.5287C20.2416 10.8761 21.5226 10.3444 22.3444 10.6828C23.722 11.287 23.0453 13.6556 21.6193 12.858C22.7069 14.3082 23.8912 12.4713 23.5287 11.2387Z" fill="#65320B"/>
</svg>
