<svg width="32" height="32" viewBox="0 0 32 32" fill="none" xmlns="http://www.w3.org/2000/svg">
<path d="M18.0662 1.52257C18.289 1.52257 18.4696 1.34197 18.4696 1.1192C18.4696 0.896417 18.289 0.71582 18.0662 0.71582C17.8434 0.71582 17.6628 0.896417 17.6628 1.1192C17.6628 1.34197 17.8434 1.52257 18.0662 1.52257Z" fill="#C7DAFF"/>
<path d="M22.0647 7.82227C22.0647 7.82227 22.8195 8.01077 23.0959 8.9237C23.289 9.5617 23.1603 10.2718 22.674 10.7278C22.4602 10.9284 22.1653 11.0943 21.7643 11.13L22.0647 7.82227Z" fill="#A06260"/>
<path d="M12.6593 16.9133C12.6593 16.9133 9.04246 17.6428 6.06933 21.3172C5.75883 21.701 5.82527 22.2691 6.22402 22.5601C6.98583 23.1161 8.20683 24.356 9.38802 27.0406C9.38802 27.0406 10.8935 30.8946 16.3971 31.321C17.3695 31.3963 18.3521 31.2439 19.237 30.8337C20.9577 30.036 23.5567 28.1148 23.8982 23.7248C23.9719 22.7769 23.8228 21.8197 23.4135 20.9614C22.4815 19.0066 19.8855 16.3263 12.6593 16.9133Z" fill="#F9C8B2"/>
<path d="M23.8981 23.7248C23.9718 22.7769 23.8227 21.8197 23.4134 20.9614C22.5898 19.2339 20.4642 16.9415 14.9946 16.8364L14.5259 17.9922L13.9337 20.658C13.9337 20.658 14.8952 24.0852 19.1286 24.3866C19.1286 24.3866 21.6577 24.6547 20.2144 30.2971C21.806 29.2789 23.617 27.3389 23.8981 23.7248Z" fill="#DDA288"/>
<path d="M17.9442 28.2463C18.3168 28.2463 18.6189 27.9443 18.6189 27.5717C18.6189 27.199 18.3168 26.897 17.9442 26.897C17.5716 26.897 17.2695 27.199 17.2695 27.5717C17.2695 27.9443 17.5716 28.2463 17.9442 28.2463Z" fill="#D39671"/>
<path d="M12.9999 7.29297C12.9999 7.29297 9.92387 9.33959 8.69256 12.1185C8.26869 13.0752 8.23775 14.1768 8.69694 15.117C9.15731 16.0597 10.1479 17.0772 12.2688 17.3772L12.9999 7.29297Z" fill="#773E41"/>
<path d="M21.4465 13.5305H21.8148C22.4777 13.5305 23.015 12.9932 23.015 12.3303C23.015 11.6675 22.4777 11.1301 21.8148 11.1301H21.4465V13.5305Z" fill="#C66760"/>
<path d="M13.2196 6.4891V3.98423C10.1597 3.93342 9.19793 1.86479 8.90411 0.785104C8.85855 0.617666 8.6218 0.619854 8.57705 0.787541C8.13211 2.45367 7.52343 6.75885 13.2196 6.4891Z" fill="#EEF6FF"/>
<path d="M21.7643 6.19931V3.97575C24.4805 3.93062 25.3343 2.09431 25.5952 1.13587C25.6355 0.987247 25.8457 0.989185 25.8855 1.138C26.2804 2.61712 26.8208 6.43875 21.7643 6.19931Z" fill="#819FEA"/>
<path d="M13.2196 6.48896V3.98408C12.7326 3.97602 12.3043 3.91233 11.9179 3.81421C11.6842 4.50521 11.0746 5.37696 9.49707 5.59396C10.2416 6.19883 11.4126 6.57452 13.2196 6.48896Z" fill="#C7DAFF"/>
<path d="M22.2307 7.82227L22.0648 16.5629H11.9413L12.1113 7.90427L22.2307 7.82227Z" fill="url(#paint0_linear_10_3257)"/>
<path d="M7.41659 20.0616C8.16134 20.1315 9.17665 20.3411 10.1006 20.9185C11.3366 21.6908 12.714 22.2047 14.166 22.3318C16.7856 22.5612 20.6204 22.4823 23.4087 20.6514C23.7231 20.4448 23.8015 20.017 23.5869 19.7079C22.8047 18.582 20.3934 16.2106 13.947 16.1833C13.947 16.1833 9.99896 16.3858 7.1139 19.1783C6.79671 19.4854 6.97715 20.0203 7.41659 20.0616Z" fill="#BC7D5C"/>
<path d="M12.0011 13.5305H11.6329C10.9701 13.5305 10.4327 12.9932 10.4327 12.3303C10.4327 11.6675 10.9701 11.1301 11.6329 11.1301H12.0011V13.5305Z" fill="#E8897B"/>
<path d="M12.0349 7.82233L11.9282 17.7787C11.8889 21.446 14.8509 24.4398 18.5184 24.4398C20.477 24.4398 22.0647 22.8521 22.0647 20.8935V14.6177L16.2783 14.6474L14.6615 15.5437C14.6615 15.5437 12.4801 14.7067 12.4801 11.3238V7.82227L12.0349 7.82233Z" fill="url(#paint1_linear_10_3257)"/>
<path d="M20.132 9.82595V16.5629H22.0648L22.2307 7.82227L17.3217 7.86208C17.7633 7.91383 18.4703 8.02727 19.0667 8.26277C19.709 8.51633 20.132 9.13539 20.132 9.82595Z" fill="#E8897B"/>
<path d="M20.12 17.377V20.4588C20.12 21.3274 19.9494 22.1927 19.5779 22.978C19.3404 23.4799 19.0003 24.0037 18.5227 24.4397C20.4793 24.4374 22.0648 22.8507 22.0648 20.8935V14.6177L21.1554 14.6224L18.1992 15.0048C18.1992 15.0048 20.0222 15.0558 20.12 17.377Z" fill="#773E41"/>
<path d="M12.0011 11.8515C12.0011 11.8515 12.4127 10.3414 13.8623 9.89653C14.7097 9.63647 15.3822 8.90397 15.2959 7.90503H12.0349L12.0011 11.8515Z" fill="#773E41"/>
<path d="M17.3821 10.6907C17.6556 10.6907 17.8773 10.469 17.8773 10.1954C17.8773 9.92193 17.6556 9.7002 17.3821 9.7002C17.1086 9.7002 16.8868 9.92193 16.8868 10.1954C16.8868 10.469 17.1086 10.6907 17.3821 10.6907Z" fill="#333345"/>
<path d="M21.119 10.6907C21.3925 10.6907 21.6143 10.469 21.6143 10.1954C21.6143 9.92193 21.3925 9.7002 21.119 9.7002C20.8455 9.7002 20.6238 9.92193 20.6238 10.1954C20.6238 10.469 20.8455 10.6907 21.119 10.6907Z" fill="#333345"/>
<path d="M23.3194 14.9229C22.9344 14.8075 22.4763 14.556 22.1721 14.012C21.8047 13.3551 21.1667 12.9183 20.4591 12.7722C20.0576 12.6892 18.1999 12.6892 17.7985 12.7722C17.0909 12.9184 16.4527 13.3552 16.0854 14.012C15.7812 14.556 15.3231 14.8075 14.9382 14.9229C14.5957 15.0255 14.5153 15.5057 14.8 15.7318C15.3791 16.1917 16.1044 16.2212 16.6277 16.1592C16.9839 16.117 17.3151 15.9284 17.5297 15.6245C18.1434 14.7557 20.1142 14.7557 20.7279 15.6245C20.9426 15.9284 21.2737 16.117 21.6299 16.1592C22.1533 16.2212 22.8786 16.1917 23.4577 15.7318C23.7422 15.5057 23.6618 15.0255 23.3194 14.9229Z" fill="#BC8285"/>
<path d="M16.8933 6.29263C16.8933 6.23369 16.8933 1.67594 16.8933 1.67594C16.8933 1.67594 12.6105 1.57901 12.1587 6.11644L16.8933 6.29263Z" fill="#EEF6FF"/>
<path d="M19.3931 1.67578C19.3931 1.67578 23.1405 2.44209 22.8262 6.03722H19.3931V1.67578Z" fill="#C7DAFF"/>
<path d="M12.9999 6.14757L16.8933 6.29245C16.8933 6.2537 16.8933 4.27045 16.8933 2.91626C16.5956 4.10745 15.6794 5.65963 12.9999 6.14757Z" fill="#C7DAFF"/>
<path d="M19.3931 6.11638H16.7394V1.56513C16.7394 1.31895 16.9389 1.11938 17.1852 1.11938H18.9474C19.1936 1.11938 19.3931 1.31895 19.3931 1.56513V6.11638Z" fill="#EEF6FF"/>
<path d="M22.8173 8.13753H12.2757C11.9502 8.13753 11.6862 7.87359 11.6862 7.54796V6.45309C11.6862 6.12753 11.9502 5.86353 12.2757 5.86353H22.8173C23.1428 5.86353 23.4068 6.12746 23.4068 6.45309V7.54796C23.4068 7.87359 23.1428 8.13753 22.8173 8.13753Z" fill="#C7DAFF"/>
<path d="M23.4068 6.45333C23.4068 6.12777 23.1428 5.86377 22.8172 5.86377H20.3678C20.287 6.43571 19.7762 7.97327 17.6096 8.13771H22.8172C23.1428 8.13771 23.4068 7.87377 23.4068 7.54814V6.45333Z" fill="#819FEA"/>
<path d="M23.3193 14.9229C22.9343 14.8076 22.4763 14.556 22.172 14.012C21.9504 13.6158 21.6293 13.3014 21.2549 13.0808C21.2762 14.2789 20.5038 14.812 19.7577 15.0469C20.1648 15.1431 20.5226 15.3341 20.7278 15.6245C20.9425 15.9284 21.2735 16.1171 21.6298 16.1592C22.1531 16.2212 22.8784 16.1917 23.4575 15.7318C23.7422 15.5057 23.6618 15.0255 23.3193 14.9229Z" fill="#9E6369"/>
<path d="M19.2861 12.3303C19.4183 12.3303 19.5255 12.2231 19.5255 12.0909C19.5255 11.9587 19.4183 11.8516 19.2861 11.8516C19.1539 11.8516 19.0468 11.9587 19.0468 12.0909C19.0468 12.2231 19.1539 12.3303 19.2861 12.3303Z" fill="#E8897B"/>
<path d="M18.0662 5.00792C18.289 5.00792 18.4696 4.82732 18.4696 4.60455C18.4696 4.38177 18.289 4.20117 18.0662 4.20117C17.8434 4.20117 17.6628 4.38177 17.6628 4.60455C17.6628 4.82732 17.8434 5.00792 18.0662 5.00792Z" fill="#C7DAFF"/>
<path d="M18.0662 3.16124C18.289 3.16124 18.4696 2.98064 18.4696 2.75787C18.4696 2.53509 18.289 2.35449 18.0662 2.35449C17.8434 2.35449 17.6628 2.53509 17.6628 2.75787C17.6628 2.98064 17.8434 3.16124 18.0662 3.16124Z" fill="#C7DAFF"/>
<defs>
<linearGradient id="paint0_linear_10_3257" x1="17.086" y1="9.07341" x2="17.086" y2="20.437" gradientUnits="userSpaceOnUse">
<stop offset="0.0051" stop-color="#FFC3B0"/>
<stop offset="1" stop-color="#E8897B"/>
</linearGradient>
<linearGradient id="paint1_linear_10_3257" x1="16.9963" y1="21.385" x2="16.9963" y2="8.68432" gradientUnits="userSpaceOnUse">
<stop stop-color="#A06260"/>
<stop offset="1" stop-color="#82494C"/>
</linearGradient>
</defs>
</svg>
