<svg width="32" height="32" viewBox="0 0 32 32" fill="none" xmlns="http://www.w3.org/2000/svg">
<path d="M15.4944 17.5127H13.3876C13.3876 17.5127 11.3219 19.8736 8.47181 21.4068C8.00112 21.6599 7.80681 22.2321 8.02968 22.7179C8.44081 23.6141 8.84137 24.8633 9.23525 26.6436C9.23525 26.6436 10.2622 32.0824 17.6012 31.4869C17.6012 31.4869 23.3116 31.3001 23.1827 22.7733C23.1755 22.2937 22.8776 21.8671 22.4337 21.6855C21.0319 21.1119 17.9942 19.6569 17.0846 17.5128H15.4944V17.5127Z" fill="url(#paint0_linear_10_3256)"/>
<path d="M22.4336 21.6854C21.0318 21.1118 17.9942 19.6569 17.0845 17.5127H16.021L16.9863 20.9529C21.1179 24.9132 20.686 28.571 19.7497 30.792C21.3539 29.8726 23.2577 27.7377 23.1826 22.7733C23.1754 22.2936 22.8775 21.8671 22.4336 21.6854Z" fill="#DDA288"/>
<path d="M17.9244 26.7439L17.3841 26.2465L17.8816 25.7061C18.0226 25.5528 18.0128 25.3143 17.8595 25.1732C17.7063 25.0321 17.4676 25.042 17.3266 25.1952L16.8291 25.7355L16.2888 25.2381C16.1356 25.097 15.897 25.1068 15.7559 25.2601C15.6149 25.4134 15.6247 25.652 15.7779 25.793L16.3183 26.2904L15.8208 26.8308C15.6798 26.984 15.6896 27.2226 15.8429 27.3637C15.9961 27.5048 16.2347 27.4949 16.3758 27.3417L16.8733 26.8013L17.4136 27.2988C17.5668 27.4399 17.8054 27.4301 17.9464 27.2768C18.0874 27.1236 18.0776 26.885 17.9244 26.7439Z" fill="#D38D78"/>
<path d="M13.3876 13.8208V18.545C13.3876 18.545 13.3876 20.1752 15.1309 20.865C15.5079 21.0142 15.7996 21.322 15.8991 21.7151L16.3831 23.6293C16.4234 23.7886 16.6558 23.7681 16.6676 23.6042L16.8185 21.5007C16.8364 21.2515 16.9227 21.0095 17.0799 20.8153C17.3173 20.5223 17.6473 19.9365 17.5958 18.9817V16.1631L13.3876 13.8208Z" fill="url(#paint1_linear_10_3256)"/>
<path d="M17.2558 20.5586C17.2673 20.5391 17.2783 20.518 17.2895 20.4973C17.3081 20.4632 17.3263 20.4283 17.3443 20.3908C17.3559 20.3666 17.3668 20.3414 17.3781 20.3158C17.3949 20.2772 17.4109 20.2371 17.4266 20.1951C17.4372 20.1669 17.4474 20.1386 17.4573 20.1087C17.4722 20.0639 17.4856 20.0167 17.4988 19.9685C17.5072 19.9375 17.5158 19.9073 17.5234 19.8748C17.5362 19.8197 17.5465 19.7612 17.5564 19.7019C17.5614 19.6721 17.5676 19.644 17.5718 19.6131C17.5843 19.5209 17.5938 19.4247 17.5981 19.3226C17.6026 19.2147 17.6021 19.1011 17.5957 18.9817V16.1631L13.3876 13.8208V14.2389C13.6149 14.509 13.9376 14.8826 14.2886 15.2851C15.167 16.2922 15.8616 17.4388 16.3469 18.6717C16.7178 19.6139 15.7861 20.2679 14.8041 20.0207C14.0291 19.8256 13.732 19.1297 13.3916 18.6234C13.4174 18.955 13.6147 20.2656 15.1318 20.8654C15.5085 21.0143 15.7998 21.3224 15.8989 21.7151L16.383 23.6293C16.4233 23.7886 16.6557 23.7681 16.6674 23.6042L16.8184 21.5007C16.8324 21.3072 16.8887 21.1188 16.9863 20.953C17.0143 20.9052 17.0448 20.8587 17.0799 20.8153C17.1076 20.781 17.1368 20.7419 17.1663 20.6995C17.1756 20.6862 17.1848 20.6709 17.1941 20.6568C17.2148 20.6257 17.2352 20.5937 17.2558 20.5586Z" fill="#E8897B"/>
<path d="M21.0214 5.33154V8.88936C21.0214 8.88936 21.9607 8.38211 22.2711 7.23186C22.5054 6.36398 21.9406 5.45748 21.05 5.33523C21.0405 5.33398 21.0309 5.33273 21.0214 5.33154Z" fill="#353547"/>
<path d="M21.0214 10.656V13.3972C21.6011 13.3972 22.0712 12.8649 22.0712 12.2083V11.845C22.0712 11.1884 21.6011 10.656 21.0214 10.656Z" fill="#E8897B"/>
<path d="M21.1963 4.85278L21.0214 15.2343C21.0214 15.2343 20.9968 17.2927 19.1285 17.3213C18.8147 17.3261 18.5058 17.2557 18.2129 17.1432C17.3187 16.7997 14.9541 15.8078 13.4363 14.398C13.1432 14.1258 12.9728 13.7469 12.9728 13.3469V4.85278H21.1963Z" fill="url(#paint2_linear_10_3256)"/>
<path d="M16.8512 7.85641C16.8512 7.85641 17.7443 8.19128 18.5145 7.53266C18.8164 7.27453 19.2334 7.1776 19.5943 7.34341C19.8974 7.48253 20.1756 7.7441 20.1756 8.23547V14.7712C20.1756 15.1215 20.1283 15.4721 20.0131 15.8029C19.7798 16.4728 19.2202 17.3107 17.895 17.0174C18.0133 17.0652 18.1223 17.1084 18.2128 17.1432C18.5057 17.2557 18.8146 17.3261 19.1283 17.3213C20.9968 17.2927 21.0213 15.2343 21.0213 15.2343L21.1962 4.85278H16.9789L16.8512 7.85641Z" fill="#E8897B"/>
<path d="M11.3443 4.03625C11.3443 4.03625 9.84632 4.493 9.36013 6.19469C9.20282 6.74538 9.20182 7.32538 9.31401 7.88638C9.51932 8.91282 10.2694 11.1543 11.5547 12.4639L12.9727 10.6559C12.9727 10.6559 13.4773 9.88744 13.9934 9.30744C14.1655 9.11394 14.3153 8.9035 14.4089 8.66469C14.5615 8.27588 14.7013 7.68613 14.5304 7.03988C14.5304 7.03988 15.5823 8.03813 17.3668 8.08044C17.9463 8.09425 18.3254 7.46094 17.9981 6.99675C17.9946 6.99163 17.9909 6.98657 17.9873 6.9815C17.9873 6.9815 17.6873 6.622 17.4794 6.11294C17.399 5.91607 17.5909 5.71713 17.7967 5.78775C18.975 6.19182 22.0432 6.99813 23.2564 4.9555C23.4082 4.7 23.2354 4.3735 22.9348 4.33057C22.7193 4.29982 22.4803 4.25288 22.2856 4.18207C22.2856 4.18207 23.8963 3.73225 24.0611 1.59538C24.086 1.27288 23.7409 1.0465 23.4403 1.18625C22.8623 1.45507 21.9281 1.73644 20.8471 1.48038C20.6273 1.42832 20.418 1.3455 20.2134 1.25194C19.49 0.921191 16.979 -0.0555594 14.1696 0.828441C14.1698 0.828441 11.7049 1.58663 11.3443 4.03625Z" fill="#353547"/>
<path d="M12.5537 13.3972H12.9727V10.656H12.5537C11.851 10.656 11.2814 11.2257 11.2814 11.9284V12.1248C11.2813 12.8276 11.851 13.3972 12.5537 13.3972Z" fill="#E8897B"/>
<path d="M19.1279 13.3973C18.8644 13.3973 18.6508 13.1837 18.6508 12.9201V12.2462C18.6508 11.9827 18.8644 11.769 19.1279 11.769C19.3914 11.769 19.6051 11.9827 19.6051 12.2462V12.9201C19.6051 13.1837 19.3914 13.3973 19.1279 13.3973Z" fill="#E8897B"/>
<path d="M17.3087 10.9541C17.5614 10.9541 17.7662 10.7492 17.7662 10.4966C17.7662 10.2439 17.5614 10.0391 17.3087 10.0391C17.056 10.0391 16.8512 10.2439 16.8512 10.4966C16.8512 10.7492 17.056 10.9541 17.3087 10.9541Z" fill="#333345"/>
<path d="M20.0626 10.9541C20.3153 10.9541 20.5201 10.7492 20.5201 10.4966C20.5201 10.2439 20.3153 10.0391 20.0626 10.0391C19.8099 10.0391 19.6051 10.2439 19.6051 10.4966C19.6051 10.7492 19.8099 10.9541 20.0626 10.9541Z" fill="#333345"/>
<defs>
<linearGradient id="paint0_linear_10_3256" x1="15.3626" y1="21.5196" x2="19.859" y2="44.6535" gradientUnits="userSpaceOnUse">
<stop stop-color="#F9C8B2"/>
<stop offset="1" stop-color="#DDA288"/>
</linearGradient>
<linearGradient id="paint1_linear_10_3256" x1="15.4944" y1="21.6611" x2="15.4944" y2="7.23815" gradientUnits="userSpaceOnUse">
<stop offset="0.0051" stop-color="#FFC3B0"/>
<stop offset="1" stop-color="#E8897B"/>
</linearGradient>
<linearGradient id="paint2_linear_10_3256" x1="17.0845" y1="15.6" x2="17.0845" y2="-0.405061" gradientUnits="userSpaceOnUse">
<stop offset="0.0051" stop-color="#FFC3B0"/>
<stop offset="1" stop-color="#E8897B"/>
</linearGradient>
</defs>
</svg>
