<svg width="32" height="32" viewBox="0 0 32 32" fill="none" xmlns="http://www.w3.org/2000/svg">
<g clip-path="url(#clip0_10_3260)">
<path d="M20.7522 11.624L20.6361 16.8504C20.6361 16.8504 20.4356 21.1945 16.4241 20.3261C16.4241 20.3261 15.2932 17.1587 16.6466 10.9731L20.7522 11.624Z" fill="#AD3A4C"/>
<path d="M16.5195 17.225C16.5195 17.225 15.8846 20.0296 17.5514 20.7929C17.7571 20.8871 17.9822 20.9273 18.2082 20.9381C18.9077 20.972 21.1387 21.3015 20.6941 24.1516C20.6941 24.1516 19.6579 26.038 14.8418 26.5019C14.8418 26.5019 10.6441 26.5328 8.72693 23.5951C8.72693 23.5951 9.34543 20.8121 11.1698 20.6883C11.1698 20.6883 12.154 20.6724 12.8883 20.3563C13.2922 20.1824 13.5689 19.8013 13.6248 19.3651L14.0766 15.8406L16.5195 17.225Z" fill="url(#paint0_linear_10_3260)"/>
<path d="M14.0765 15.8406L13.8168 17.8668L16.9466 20.3262C16.0618 19.2493 16.5195 17.225 16.5195 17.225L14.0765 15.8406Z" fill="#E8897B"/>
<path d="M20.694 24.1516C21.1281 21.3678 19.0109 20.9888 18.2603 20.9412C18.8839 21.371 20.0231 22.5018 19.8663 24.9597C20.4949 24.5138 20.694 24.1516 20.694 24.1516Z" fill="#E8897B"/>
<path d="M14.8442 25.0315C15.0601 25.196 15.5383 25.6534 15.5838 26.5019H16.3793C16.3793 26.5019 16.1431 25.408 16.711 24.7897C16.7342 24.7645 16.7078 24.726 16.6763 24.7393C16.4651 24.8285 16.0784 25.1546 15.8766 25.5005C15.8766 25.5005 15.5618 25.0701 14.8692 24.9746C14.837 24.9702 14.8183 25.0118 14.8442 25.0315Z" fill="#E8897B"/>
<path d="M15.252 21.7645C15.0481 21.7645 13.3565 21.6109 12.7877 20.2543C12.7405 20.1418 12.8002 20.012 12.9169 19.9766C13.0158 19.9466 13.1228 19.9951 13.1623 20.0904C13.6556 21.2797 15.2036 21.355 15.2671 21.3555C16.2937 21.3554 16.8195 20.6308 17.0007 20.3123C17.0488 20.2278 17.1506 20.1912 17.2423 20.2231C17.3623 20.2648 17.4159 20.4047 17.3526 20.5148C17.1179 20.9222 16.4854 21.7643 15.2741 21.7643C15.2734 21.7643 15.2658 21.7645 15.252 21.7645Z" fill="#333345"/>
<path d="M11.6595 9.81781L11.3015 11.8671C11.3015 11.8671 8.7491 11.8035 5.8386 12.6638C5.8386 12.6638 0.4026 14.3914 0.767725 8.73169L11.6595 9.81781Z" fill="#6D4D7A"/>
<path d="M19.8449 11.5555L19.702 16.4176C19.7005 16.4647 19.6969 16.5103 19.6902 16.5569C19.6612 16.7598 19.5567 17.2795 19.2187 17.6538C18.9368 17.966 18.4962 18.0808 18.0837 17.9983C17.2507 17.8314 15.1582 17.3032 14.2429 16.0733V10.5435L19.8449 11.5555Z" fill="url(#paint1_linear_10_3260)"/>
<path d="M19.2186 17.6538C19.5565 17.2795 19.661 16.7598 19.6901 16.5568C19.6967 16.5103 19.7004 16.4647 19.7019 16.4176L19.8448 11.5555L14.2428 10.5435V12.0851C15.1268 12.334 17.6012 13.0899 18.7817 14.053C18.9458 14.1868 19.0348 14.3917 19.0348 14.6034V16.7181C19.0348 16.7181 19.0497 17.3778 18.7385 17.9601C18.9202 17.9004 19.087 17.7995 19.2186 17.6538Z" fill="#E8897B"/>
<path d="M17.4675 14.2837H18.2763C18.4036 14.2837 18.4886 14.4191 18.4287 14.5316C18.3346 14.7086 18.1646 14.9155 17.8845 14.9155C17.8845 14.9155 17.4853 14.9091 17.31 14.523C17.2591 14.4113 17.3448 14.2837 17.4675 14.2837Z" fill="#E8897B"/>
<path d="M18.8035 12.5898C18.6756 12.5898 18.572 12.4861 18.572 12.3584V11.8554C18.572 11.7276 18.6756 11.624 18.8035 11.624C18.9313 11.624 19.0348 11.7276 19.0348 11.8554V12.3584C19.0348 12.4862 18.9313 12.5898 18.8035 12.5898Z" fill="#333345"/>
<path d="M17.598 11.1453C17.598 11.1453 17.3052 13.3632 14.8417 14.4161L14.5503 18.6132C14.4344 20.2837 13.104 21.6532 11.4309 21.7213C11.3647 21.724 11.2972 21.7251 11.2283 21.7245C10.6978 21.7198 10.2043 21.4496 9.88596 21.0252L9.8844 21.0231C9.60315 20.648 9.48415 20.1774 9.55327 19.7137C9.67433 18.9023 9.95183 17.5316 10.5655 16.0968C10.7558 15.6518 10.836 15.169 10.816 14.6854C10.7623 13.3783 10.7053 10.8125 11.0339 9.95801L17.598 11.1453Z" fill="#E25A6C"/>
<path d="M10.8062 11.4948C11.5894 11.6438 13.3717 12.0116 14.5478 12.4755C14.7914 12.5716 14.8841 12.8643 14.7435 13.0851C14.6178 13.2826 14.4423 13.5239 14.2181 13.7511C14.0001 13.9719 13.883 14.2728 13.8981 14.5828C13.9746 16.1531 13.9721 20.7866 11.3707 21.7223C11.371 21.7239 11.3706 21.7216 11.3708 21.7233C13.0722 21.6859 14.4331 20.3037 14.5505 18.6133L14.8418 14.4162C17.3053 13.3633 17.5982 11.1454 17.5982 11.1454L11.0342 9.95801C10.9103 10.2801 10.8413 10.8454 10.8062 11.4948Z" fill="#AD3A4C"/>
<path d="M0.767578 8.73167C0.767578 8.73167 11.6433 10.4279 21.5711 12.2239C21.5711 12.2239 25.1573 12.7827 27.3796 12.6405C27.5501 12.6297 27.7163 12.5915 27.8763 12.5319C28.7252 12.2156 31.2911 11.0315 31.2495 8.28273C31.2495 8.28273 27.0566 7.27936 20.3206 7.86067C20.3206 7.86067 20.9125 4.07955 14.8418 0.515296C14.5878 0.366108 14.2885 0.310358 14.0002 0.371108C13.1707 0.545921 11.2331 1.17636 8.04539 3.44973C8.04539 3.44973 7.66208 3.1303 7.16433 2.84436C6.90302 2.69423 6.58008 2.70773 6.32602 2.86992C5.85864 3.16817 5.07764 3.75617 4.38289 4.70342C4.20889 4.94067 4.44864 5.26117 4.72402 5.15761C5.09983 5.0163 5.53877 4.86623 5.90583 4.7818C6.16964 4.72111 6.44514 4.77736 6.67039 4.92755C7.02164 5.16186 7.58658 5.57017 8.05327 6.05392C8.2852 6.2943 8.64452 6.35642 8.93983 6.2003C9.58095 5.86136 10.6606 5.33105 11.2594 5.26192L12.1826 6.4838C12.1826 6.4838 11.4645 7.45023 10.9858 8.44186C10.9858 8.44186 6.51733 8.9873 0.767578 8.73167Z" fill="#936FA0"/>
<path d="M9.56702 5.88278C10.1526 5.5991 10.8293 5.31141 11.2595 5.26178L10.7328 4.4091C10.654 4.28141 10.4647 4.29278 10.4035 4.42985C10.2476 4.77816 9.96333 5.3491 9.56702 5.88278Z" fill="#6D4D7A"/>
<path d="M17.691 7.33463C17.7155 7.623 17.6087 7.90701 17.3962 8.10363C17.2644 8.22569 17.1047 8.36882 16.941 8.50476C16.783 8.63601 16.8701 8.89232 17.0755 8.89638C18.3323 8.92119 21.0776 9.00363 22.3722 9.26257C22.3722 9.26257 23.9139 9.60207 24.4189 10.6698C24.5507 10.9483 24.5312 11.2737 24.3604 11.5303C24.1736 11.8109 23.8329 12.1846 23.2496 12.4431C24.4786 12.5813 26.1408 12.7199 27.3797 12.6406C27.5501 12.6298 27.7163 12.5916 27.8763 12.5319C28.7252 12.2157 31.2911 11.0316 31.2495 8.28282C31.2495 8.28282 27.0566 7.27944 20.3205 7.86076C20.3205 7.86076 20.9124 4.07963 14.8418 0.515381C14.8418 0.515256 17.3132 2.87757 17.691 7.33463Z" fill="#6D4D7A"/>
<path d="M16.6466 22.0557C16.6466 21.4193 16.1307 20.9033 15.4942 20.9033C14.8577 20.9033 14.3418 21.4193 14.3418 22.0557C14.3418 22.5676 14.6759 23.001 15.1375 23.1512L15.1847 23.6195C15.1984 23.7547 15.319 23.8533 15.4542 23.8396L15.9252 23.7922C16.0604 23.7785 16.159 23.6579 16.1453 23.5226L16.0964 23.0368C16.426 22.8341 16.6466 22.4711 16.6466 22.0557Z" fill="white"/>
<path d="M15.135 22.4406C15.3023 22.4406 15.4379 22.305 15.4379 22.1377C15.4379 21.9703 15.3023 21.8347 15.135 21.8347C14.9677 21.8347 14.832 21.9703 14.832 22.1377C14.832 22.305 14.9677 22.4406 15.135 22.4406Z" fill="#333345"/>
<path d="M16.0136 22.3291C16.1809 22.3291 16.3166 22.1935 16.3166 22.0261C16.3166 21.8588 16.1809 21.7231 16.0136 21.7231C15.8462 21.7231 15.7106 21.8588 15.7106 22.0261C15.7106 22.1935 15.8462 22.3291 16.0136 22.3291Z" fill="#333345"/>
<path d="M8.22658 23.4353C8.34577 23.196 8.65871 23.1364 8.8559 23.3169C9.84508 24.2228 12.6729 26.4537 16.0088 25.8832C16.0088 25.8832 18.9474 25.4142 20.7065 23.7466C20.8586 23.6023 21.102 23.6344 21.212 23.8128C21.3812 24.087 21.647 24.4644 21.9865 24.775C22.1315 24.9075 22.1961 25.1064 22.1472 25.2966C22.1013 25.4752 22.023 25.7018 21.8913 25.9173C21.7572 26.137 21.6886 26.389 21.7185 26.6446C21.8306 27.6045 21.8766 29.9203 19.8448 30.5527C19.8448 30.5527 18.3807 30.853 17.2559 30.1966C17.1038 30.1079 16.9285 30.0676 16.7531 30.0822C16.4948 30.1038 16.2622 30.2408 16.1146 30.4538C15.7575 30.9695 14.8289 31.8734 12.8086 31.604C12.8086 31.604 10.3613 31.379 10.1888 28.8363C10.1656 28.4948 10.0745 28.1623 9.90446 27.8655C9.60102 27.3358 9.01783 26.5637 8.01452 26.0626C7.61214 25.8617 7.43227 25.3865 7.57983 24.9615C7.71871 24.5622 7.92627 24.0386 8.22658 23.4353Z" fill="#936FA0"/>
<path d="M15.283 27.5892C15.1853 27.4884 15.0516 27.4324 14.9112 27.4324C14.6708 27.4324 14.4641 27.5991 14.4071 27.8326C13.7108 30.6849 11.9188 30.8409 10.9629 30.7018C11.7379 31.5048 12.8088 31.604 12.8088 31.604C14.8291 31.8734 15.7576 30.9695 16.1148 30.4538C16.3187 28.8676 15.6193 27.9364 15.283 27.5892Z" fill="#6D4D7A"/>
<path d="M17.6432 30.3808C18.6898 30.7882 19.8449 30.5528 19.8449 30.5528C21.8768 29.9203 21.8307 27.6045 21.7186 26.6447C21.6886 26.3891 21.7573 26.137 21.8914 25.9174C22.023 25.702 22.1014 25.4753 22.1473 25.2967C22.1963 25.1065 22.1315 24.9076 21.9866 24.775C21.6471 24.4645 21.3813 24.087 21.2121 23.8128C21.1021 23.6345 20.8588 23.6025 20.7066 23.7467C20.4416 23.9979 20.1495 24.2215 19.845 24.4208L19.8449 24.4212C20.2313 28.6474 18.4261 29.9978 17.6432 30.3808Z" fill="#6D4D7A"/>
</g>
<defs>
<linearGradient id="paint0_linear_10_3260" x1="14.7395" y1="25.2141" x2="14.7395" y2="13.5836" gradientUnits="userSpaceOnUse">
<stop offset="0.0051" stop-color="#FFC3B0"/>
<stop offset="1" stop-color="#E8897B"/>
</linearGradient>
<linearGradient id="paint1_linear_10_3260" x1="17.0439" y1="17.3142" x2="17.0439" y2="9.08384" gradientUnits="userSpaceOnUse">
<stop offset="0.0051" stop-color="#FFC3B0"/>
<stop offset="1" stop-color="#E8897B"/>
</linearGradient>
<clipPath id="clip0_10_3260">
<rect width="32" height="32" fill="white"/>
</clipPath>
</defs>
</svg>
