<svg width="32" height="32" viewBox="0 0 32 32" fill="none" xmlns="http://www.w3.org/2000/svg">
<g clip-path="url(#clip0_4_4855)">
<path d="M5.35648 3.82837C5.11142 3.57137 4.70423 3.56174 4.44717 3.80693C4.1901 4.05212 4.18054 4.45918 4.42573 4.71625L8.48292 8.96901C8.6093 9.10151 8.77868 9.16819 8.94836 9.16819C9.10786 9.16819 9.26768 9.10919 9.39224 8.99044C9.64924 8.74525 9.65886 8.33819 9.41368 8.08113L5.35648 3.82837Z" fill="#D1D3D4"/>
<path d="M31.194 30.9114L27.7635 27.3372C27.5176 27.081 27.1105 27.0725 26.8542 27.3185C26.5979 27.5644 26.5895 27.9715 26.8355 28.2278L30.266 31.802C30.3923 31.9336 30.561 31.9999 30.7301 31.9999C30.8902 31.9999 31.0506 31.9404 31.1753 31.8207C31.4316 31.5749 31.4399 31.1677 31.194 30.9114Z" fill="#D1D3D4"/>
<path d="M3.12152 5.00451C4.50348 5.00451 5.62377 3.88421 5.62377 2.50225C5.62377 1.1203 4.50348 0 3.12152 0C1.73956 0 0.619263 1.1203 0.619263 2.50225C0.619263 3.88421 1.73956 5.00451 3.12152 5.00451Z" fill="#F871FF"/>
<path d="M4.89113 0.733117C4.8517 0.69368 4.81088 0.656367 4.76951 0.620117C4.83801 1.33781 4.59738 2.07937 4.04788 2.62887C3.11 3.56681 1.61331 3.60412 0.630249 2.74187C0.683499 3.30056 0.924125 3.84462 1.35188 4.27244C2.32919 5.24981 3.91382 5.24981 4.8912 4.27244C5.86857 3.29506 5.86857 1.71043 4.89113 0.733117Z" fill="#B378DD"/>
<path d="M18.0805 31.4958C25.426 31.4958 31.3807 25.5411 31.3807 18.1957C31.3807 10.8502 25.426 4.89551 18.0805 4.89551C10.7351 4.89551 4.7804 10.8502 4.7804 18.1957C4.7804 25.5411 10.7351 31.4958 18.0805 31.4958Z" fill="#F5BA3D"/>
<path d="M27.7635 27.3374C27.5176 27.0813 27.1105 27.0728 26.8542 27.3187C26.5979 27.5647 26.5895 27.9718 26.8355 28.228L27.9082 29.3457C28.2186 29.0872 28.5204 28.8132 28.8116 28.5221C28.8268 28.5069 28.8414 28.4913 28.8565 28.4762L27.7635 27.3374Z" fill="#BCBEC0"/>
<path d="M27.4851 8.79067C27.3864 8.69198 27.2861 8.59573 27.1851 8.50073C30.3138 13.6219 29.6637 20.4009 25.2327 24.8318C20.1374 29.9273 11.9365 30.0235 6.72302 25.1218C7.26196 26.0039 7.91209 26.8371 8.67534 27.6003C13.8695 32.7945 22.2909 32.7945 27.4851 27.6003C32.6792 22.4063 32.6792 13.9849 27.4851 8.79067Z" fill="#F5A51F"/>
<path d="M30.0048 17.5832C29.5086 14.7545 28.1692 12.1823 26.1314 10.1445C24.2832 8.29639 21.9668 7.0092 19.4327 6.4217C19.0873 6.34176 18.7412 6.55695 18.6609 6.90301C18.5807 7.24902 18.7962 7.59452 19.1422 7.67477C21.4417 8.2077 23.544 9.37633 25.2218 11.0541C27.0716 12.9039 28.2875 15.2385 28.7379 17.8053C28.7927 18.1177 29.0641 18.3374 29.3706 18.3374C29.4074 18.3374 29.4448 18.3342 29.4824 18.3277C29.8324 18.2663 30.0662 17.933 30.0048 17.5832Z" fill="#F47D20"/>
<path d="M13.7025 7.88972C13.3478 7.90903 13.076 8.21216 13.0952 8.56685C13.1146 8.92154 13.4178 9.19329 13.7723 9.17416C17.3594 8.97866 20.8744 10.3235 23.4135 12.8627C25.8707 15.3198 27.1865 18.5869 27.1183 22.0621C27.1114 22.4173 27.3937 22.7108 27.7487 22.7178C27.7531 22.7179 27.7574 22.7179 27.7616 22.7179C28.1109 22.7179 28.3975 22.4381 28.4044 22.0873C28.4795 18.2589 27.03 14.6598 24.3232 11.9529C21.526 9.15597 17.656 7.67591 13.7025 7.88972Z" fill="#F47D20"/>
<path d="M22.5145 13.7613C21.9849 13.2316 21.4205 12.7503 20.826 12.3184C20.7789 12.2727 20.7257 12.2348 20.668 12.2057C18.872 10.939 16.8083 10.1213 14.593 9.81183C12.0073 9.45101 9.3352 9.83345 6.96313 10.8894C6.62619 11.4008 6.32907 11.9307 6.07019 12.4743C6.25119 12.5653 6.47219 12.5701 6.66425 12.4669C9.00988 11.206 11.7626 10.7155 14.4151 11.0858C16.0876 11.3193 17.6651 11.8725 19.0868 12.7138C17.9651 13.341 16.9338 14.1212 16.0113 15.0436C13.8761 17.1789 12.5134 19.8708 12.0705 22.8284C11.676 25.4628 12.0672 28.1815 13.1714 30.5598C13.6596 30.7534 14.157 30.9171 14.6606 31.0506C14.7056 30.8957 14.6931 30.724 14.6115 30.5702C13.4048 28.2942 12.9541 25.6125 13.3425 23.0187C13.7443 20.3355 14.9816 17.8922 16.9207 15.9531C17.9171 14.9568 19.0522 14.1431 20.2987 13.5294C20.7555 13.8771 21.1919 14.2577 21.6048 14.6706C23.5675 16.6333 24.8072 19.1193 25.1899 21.8603C25.5602 24.5129 25.0699 27.2654 23.8089 29.6112C23.7057 29.8034 23.7105 30.0243 23.8017 30.2054C24.3452 29.9465 24.875 29.6494 25.3864 29.3125C26.4424 26.9404 26.825 24.268 26.4639 21.6825C26.0422 18.6625 24.6765 15.9233 22.5145 13.7613Z" fill="#F47D20"/>
<path d="M9.03068 12.2926C8.73156 12.101 8.3338 12.1881 8.1423 12.4874C7.19374 13.9684 6.54243 15.5975 6.20636 17.3294C6.13868 17.6781 6.36649 18.0156 6.71524 18.0832C6.75655 18.0912 6.7978 18.0951 6.83849 18.0951C7.14036 18.0951 7.40949 17.8817 7.46912 17.5744C7.77424 16.0029 8.36505 14.5247 9.22549 13.1812C9.41699 12.8819 9.32981 12.4842 9.03068 12.2926Z" fill="#F47D20"/>
<path d="M12.2675 12.4097C12.0043 12.1712 11.5974 12.1912 11.3591 12.4546C9.032 15.0241 7.75325 18.3525 7.75844 21.8267C7.75894 22.1817 8.04675 22.4689 8.40156 22.4689C8.40181 22.4689 8.40225 22.4689 8.4025 22.4689C8.75775 22.4684 9.04519 22.18 9.04469 21.8249C9.04007 18.6711 10.2006 15.65 12.3124 13.318C12.551 13.0548 12.5308 12.6481 12.2675 12.4097Z" fill="#F47D20"/>
<path d="M14.5604 14.6649C14.7496 14.4756 14.9469 14.2903 15.1469 14.1138C15.4132 13.8789 15.4386 13.4725 15.2036 13.2061C14.9687 12.9399 14.5623 12.9144 14.2959 13.1493C14.0759 13.3434 13.8589 13.5473 13.6509 13.7552C10.8925 16.5137 9.40884 20.3321 9.58041 24.2316C9.59566 24.5768 9.88028 24.8465 10.2224 24.8465C10.2319 24.8465 10.2416 24.8463 10.2512 24.8458C10.606 24.8301 10.8811 24.5298 10.8655 24.175C10.7096 20.6351 12.0564 17.1688 14.5604 14.6649Z" fill="#F47D20"/>
<path d="M14.0258 24.8293C13.8704 25.1488 14.0034 25.5336 14.3227 25.689C15.803 26.409 17.3902 26.7655 18.9502 26.7655C20.8689 26.7655 22.746 26.2261 24.3299 25.1605C24.6246 24.9623 24.7028 24.5626 24.5044 24.268C24.3063 23.9732 23.9064 23.8948 23.6119 24.0934C21.1194 25.7702 17.7754 25.9383 14.8854 24.5323C14.566 24.3767 14.1812 24.51 14.0258 24.8293Z" fill="#F47D20"/>
<path d="M14.5831 28.5491C15.7079 29.0965 16.9757 29.3678 18.3189 29.3678C20.1319 29.3678 22.0821 28.8734 24.0023 27.8963C24.3188 27.7351 24.4448 27.3479 24.2838 27.0314C24.1226 26.7148 23.7354 26.5891 23.4189 26.7499C20.4386 28.2666 17.4231 28.5008 15.1459 27.3925C14.8264 27.2374 14.4416 27.3701 14.2861 27.6894C14.1308 28.0088 14.2637 28.3936 14.5831 28.5491Z" fill="#F47D20"/>
<path d="M14.494 21.6385C14.3302 21.9538 14.4529 22.342 14.7681 22.5057C14.7909 22.5175 14.9037 22.5734 14.9931 22.6175L15.0924 22.6666C16.5087 23.38 18.0461 23.7359 19.5778 23.7359C21.1987 23.7359 22.8131 23.3371 24.2686 22.5418C24.5803 22.3715 24.6949 21.9808 24.5246 21.669C24.3542 21.3573 23.9636 21.2428 23.6517 21.413C21.1921 22.757 18.2086 22.7962 15.6704 21.5175L15.5624 21.4641C15.4836 21.4252 15.3847 21.3765 15.3611 21.3643C15.0459 21.2005 14.6577 21.3233 14.494 21.6385Z" fill="#F47D20"/>
<path d="M15.2453 19.2494C15.0948 19.5712 15.2336 19.954 15.5554 20.1045C16.8881 20.7278 18.3319 21.041 19.7733 21.041C21.0208 21.041 22.2666 20.8064 23.4371 20.335C23.7667 20.2023 23.9262 19.8277 23.7935 19.4982C23.6608 19.1687 23.2862 19.0088 22.9566 19.1418C20.7634 20.0253 18.2643 19.9514 16.1002 18.9394C15.7784 18.7889 15.3958 18.9277 15.2453 19.2494Z" fill="#F47D20"/>
<path d="M20.02 18.095C20.583 18.095 21.1545 18.0185 21.7231 17.8652C22.0661 17.7727 22.269 17.4196 22.1765 17.0767C22.0841 16.7337 21.7312 16.5307 21.388 16.6233C20.3307 16.9086 19.2675 16.8634 18.3134 16.4924C17.9825 16.3636 17.6096 16.5277 17.4809 16.8587C17.3522 17.1897 17.5162 17.5625 17.8472 17.6912C18.5385 17.9601 19.2718 18.095 20.02 18.095Z" fill="#F47D20"/>
</g>
<defs>
<clipPath id="clip0_4_4855">
<rect width="32" height="32" fill="white"/>
</clipPath>
</defs>
</svg>
